<svg xmlns="http://www.w3.org/2000/svg" xmlns:xlink="http://www.w3.org/1999/xlink" contentStyleType="text/css" data-diagram-type="DESCRIPTION" height="822px" preserveAspectRatio="none" style="width:775px;height:822px;background:#FFFFFF;" version="1.1" viewBox="0 0 775 822" width="775px" zoomAndPan="magnify"><defs/><g><!--entity local_fs_d--><g class="entity" data-entity="local_fs_d" data-source-line="10" data-uid="ent0002" id="entity_local_fs_d"><rect fill="#ADD8E6" height="43.9688" rx="2.5" ry="2.5" style="stroke:#00008B;stroke-width:1;" width="98.0547" x="613.36" y="160.25"/><rect fill="#ADD8E6" height="10" style="stroke:#00008B;stroke-width:1;" width="15" x="691.4147" y="165.25"/><rect fill="#ADD8E6" height="2" style="stroke:#00008B;stroke-width:1;" width="4" x="689.4147" y="167.25"/><rect fill="#ADD8E6" height="2" style="stroke:#00008B;stroke-width:1;" width="4" x="689.4147" y="171.25"/><text fill="#000000" font-family="Verdana" font-size="12" lengthAdjust="spacing" textLength="58.0547" x="628.36" y="191.3887">local_fs_d</text></g><g class="entity" data-entity="GMN3" data-source-line="12" data-uid="ent0004" id="entity_GMN3"><path d="M585,11 L585,74.3984 A0,0 0 0 0 585,74.3984 L658.39,74.3984 L662.39,159.87 L666.39,74.3984 L739.7832,74.3984 A0,0 0 0 0 739.7832,74.3984 L739.7832,21 L729.7832,11 L585,11 A0,0 0 0 0 585,11" fill="#FFFFFF" style="stroke:#000000;stroke-width:1;"/><path d="M729.7832,11 L729.7832,21 L739.7832,21 L729.7832,11" fill="#FFFFFF" style="stroke:#000000;stroke-width:1;"/><text fill="#000000" font-family="Verdana" font-size="13" font-weight="bold" lengthAdjust="spacing" textLength="35.4644" x="591" y="28.0669">Type</text><text fill="#000000" font-family="Verdana" font-size="13" lengthAdjust="spacing" textLength="98.3188" x="626.4644" y="28.0669">: backend.local</text><line style="stroke:#000000;stroke-width:1;" x1="586" x2="738.7832" y1="31.1328" y2="31.1328"/><text fill="#000000" font-family="Verdana" font-size="13" font-weight="bold" lengthAdjust="spacing" textLength="47.144" x="591" y="47.1997">Config</text><text fill="#000000" font-family="Verdana" font-size="13" lengthAdjust="spacing" textLength="4.3799" x="638.144" y="47.1997">:</text><text fill="#000000" font-family="Verdana" font-size="13" lengthAdjust="spacing" textLength="89.0386" x="591" y="62.3325">&#8226; baseDir: D:/</text></g><!--entity local_fs_z--><g class="entity" data-entity="local_fs_z" data-source-line="18" data-uid="ent0006" id="entity_local_fs_z"><rect fill="#ADD8E6" height="43.9688" rx="2.5" ry="2.5" style="stroke:#00008B;stroke-width:1;" width="96.7363" x="40.02" y="160.25"/><rect fill="#ADD8E6" height="10" style="stroke:#00008B;stroke-width:1;" width="15" x="116.7563" y="165.25"/><rect fill="#ADD8E6" height="2" style="stroke:#00008B;stroke-width:1;" width="4" x="114.7563" y="167.25"/><rect fill="#ADD8E6" height="2" style="stroke:#00008B;stroke-width:1;" width="4" x="114.7563" y="171.25"/><text fill="#000000" font-family="Verdana" font-size="12" lengthAdjust="spacing" textLength="56.7363" x="55.02" y="191.3887">local_fs_z</text></g><g class="entity" data-entity="GMN7" data-source-line="20" data-uid="ent0008" id="entity_GMN7"><path d="M11,11 L11,74.3984 A0,0 0 0 0 11,74.3984 L84.39,74.3984 L88.39,159.87 L92.39,74.3984 L165.7832,74.3984 A0,0 0 0 0 165.7832,74.3984 L165.7832,21 L155.7832,11 L11,11 A0,0 0 0 0 11,11" fill="#FFFFFF" style="stroke:#000000;stroke-width:1;"/><path d="M155.7832,11 L155.7832,21 L165.7832,21 L155.7832,11" fill="#FFFFFF" style="stroke:#000000;stroke-width:1;"/><text fill="#000000" font-family="Verdana" font-size="13" font-weight="bold" lengthAdjust="spacing" textLength="35.4644" x="17" y="28.0669">Type</text><text fill="#000000" font-family="Verdana" font-size="13" lengthAdjust="spacing" textLength="98.3188" x="52.4644" y="28.0669">: backend.local</text><line style="stroke:#000000;stroke-width:1;" x1="12" x2="164.7832" y1="31.1328" y2="31.1328"/><text fill="#000000" font-family="Verdana" font-size="13" font-weight="bold" lengthAdjust="spacing" textLength="47.144" x="17" y="47.1997">Config</text><text fill="#000000" font-family="Verdana" font-size="13" lengthAdjust="spacing" textLength="4.3799" x="64.144" y="47.1997">:</text><text fill="#000000" font-family="Verdana" font-size="13" lengthAdjust="spacing" textLength="87.9341" x="17" y="62.3325">&#8226; baseDir: Z:/</text></g><!--entity metadata_cache_fs--><g class="entity" data-entity="metadata_cache_fs" data-source-line="26" data-uid="ent0010" id="entity_metadata_cache_fs"><rect fill="#ADD8E6" height="43.9688" rx="2.5" ry="2.5" style="stroke:#00008B;stroke-width:1;" width="156.1738" x="141.3" y="338.48"/><rect fill="#ADD8E6" height="10" style="stroke:#00008B;stroke-width:1;" width="15" x="277.4738" y="343.48"/><rect fill="#ADD8E6" height="2" style="stroke:#00008B;stroke-width:1;" width="4" x="275.4738" y="345.48"/><rect fill="#ADD8E6" height="2" style="stroke:#00008B;stroke-width:1;" width="4" x="275.4738" y="349.48"/><text fill="#000000" font-family="Verdana" font-size="12" lengthAdjust="spacing" textLength="116.1738" x="156.3" y="369.6187">metadata_cache_fs</text></g><g class="entity" data-entity="GMN11" data-source-line="28" data-uid="ent0012" id="entity_GMN11"><path d="M172.14,135.4 L172.14,229.0641 A0,0 0 0 0 172.14,229.0641 L266.26,229.0641 L227.79,338.01 L274.26,229.0641 L404.6376,229.0641 A0,0 0 0 0 404.6376,229.0641 L404.6376,145.4 L394.6376,135.4 L172.14,135.4 A0,0 0 0 0 172.14,135.4" fill="#FFFFFF" style="stroke:#000000;stroke-width:1;"/><path d="M394.6376,135.4 L394.6376,145.4 L404.6376,145.4 L394.6376,135.4" fill="#FFFFFF" style="stroke:#000000;stroke-width:1;"/><text fill="#000000" font-family="Verdana" font-size="13" font-weight="bold" lengthAdjust="spacing" textLength="35.4644" x="178.14" y="152.4669">Type</text><text fill="#000000" font-family="Verdana" font-size="13" lengthAdjust="spacing" textLength="176.0332" x="213.6044" y="152.4669">: backend.metadata_cache</text><line style="stroke:#000000;stroke-width:1;" x1="173.14" x2="403.6376" y1="155.5328" y2="155.5328"/><text fill="#000000" font-family="Verdana" font-size="13" font-weight="bold" lengthAdjust="spacing" textLength="47.144" x="178.14" y="171.5997">Config</text><text fill="#000000" font-family="Verdana" font-size="13" lengthAdjust="spacing" textLength="4.3799" x="225.284" y="171.5997">:</text><text fill="#000000" font-family="Verdana" font-size="13" lengthAdjust="spacing" textLength="174.8398" x="178.14" y="186.7325">&#8226; originBackend: local_fs_z</text><text fill="#000000" font-family="Verdana" font-size="13" lengthAdjust="spacing" textLength="177.7534" x="178.14" y="201.8653">&#8226; cacheBackend: local_fs_d</text><text fill="#000000" font-family="Verdana" font-size="13" lengthAdjust="spacing" textLength="190.1631" x="178.14" y="216.9981">&#8226; cacheDir: /metadata_cache</text></g><!--entity block_cache_fs--><g class="entity" data-entity="block_cache_fs" data-source-line="36" data-uid="ent0014" id="entity_block_cache_fs"><rect fill="#ADD8E6" height="43.9688" rx="2.5" ry="2.5" style="stroke:#00008B;stroke-width:1;" width="129.8535" x="348.46" y="501.58"/><rect fill="#ADD8E6" height="10" style="stroke:#00008B;stroke-width:1;" width="15" x="458.3135" y="506.58"/><rect fill="#ADD8E6" height="2" style="stroke:#00008B;stroke-width:1;" width="4" x="456.3135" y="508.58"/><rect fill="#ADD8E6" height="2" style="stroke:#00008B;stroke-width:1;" width="4" x="456.3135" y="512.58"/><text fill="#000000" font-family="Verdana" font-size="12" lengthAdjust="spacing" textLength="89.8535" x="363.46" y="532.7187">block_cache_fs</text></g><g class="entity" data-entity="GMN15" data-source-line="38" data-uid="ent0016" id="entity_GMN15"><path d="M332.28,306.07 L332.28,414.8669 L592.5105,414.8669 L592.5105,316.07 L582.5105,306.07 L332.28,306.07" fill="#FFFFFF" style="stroke:#000000;stroke-width:1;"/><path d="M582.5105,306.07 L582.5105,316.07 L592.5105,316.07 L582.5105,306.07" fill="#FFFFFF" style="stroke:#000000;stroke-width:1;"/><text fill="#000000" font-family="Verdana" font-size="13" font-weight="bold" lengthAdjust="spacing" textLength="35.4644" x="338.28" y="323.1369">Type</text><text fill="#000000" font-family="Verdana" font-size="13" lengthAdjust="spacing" textLength="147.5195" x="373.7444" y="323.1369">: backend.block_cache</text><line style="stroke:#000000;stroke-width:1;" x1="333.28" x2="591.5105" y1="326.2028" y2="326.2028"/><text fill="#000000" font-family="Verdana" font-size="13" font-weight="bold" lengthAdjust="spacing" textLength="47.144" x="338.28" y="342.2697">Config</text><text fill="#000000" font-family="Verdana" font-size="13" lengthAdjust="spacing" textLength="4.3799" x="385.424" y="342.2697">:</text><text fill="#000000" font-family="Verdana" font-size="13" lengthAdjust="spacing" textLength="239.2305" x="338.28" y="357.4025">&#8226; originBackend: metadata_cache_fs</text><text fill="#000000" font-family="Verdana" font-size="13" lengthAdjust="spacing" textLength="177.7534" x="338.28" y="372.5353">&#8226; cacheBackend: local_fs_d</text><text fill="#000000" font-family="Verdana" font-size="13" lengthAdjust="spacing" textLength="161.6494" x="338.28" y="387.6681">&#8226; cacheDir: /block_cache</text><text fill="#000000" font-family="Verdana" font-size="13" lengthAdjust="spacing" textLength="139.3882" x="338.28" y="402.801">&#8226; blockSize: 4194304</text></g><!--entity union_fs--><g class="entity" data-entity="union_fs" data-source-line="47" data-uid="ent0018" id="entity_union_fs"><rect fill="#ADD8E6" height="43.9688" rx="2.5" ry="2.5" style="stroke:#00008B;stroke-width:1;" width="89.9688" x="368.41" y="641.98"/><rect fill="#ADD8E6" height="10" style="stroke:#00008B;stroke-width:1;" width="15" x="438.3788" y="646.98"/><rect fill="#ADD8E6" height="2" style="stroke:#00008B;stroke-width:1;" width="4" x="436.3788" y="648.98"/><rect fill="#ADD8E6" height="2" style="stroke:#00008B;stroke-width:1;" width="4" x="436.3788" y="652.98"/><text fill="#000000" font-family="Verdana" font-size="12" lengthAdjust="spacing" textLength="49.9688" x="383.41" y="673.1187">union_fs</text></g><g class="entity" data-entity="GMN19" data-source-line="49" data-uid="ent0020" id="entity_GMN19"><path d="M513,491.86 L513,555.2584 A0,0 0 0 0 513,555.2584 L549,555.2584 L441.08,641.68 L557,555.2584 L673.7754,555.2584 A0,0 0 0 0 673.7754,555.2584 L673.7754,501.86 L663.7754,491.86 L513,491.86 A0,0 0 0 0 513,491.86" fill="#FFFFFF" style="stroke:#000000;stroke-width:1;"/><path d="M663.7754,491.86 L663.7754,501.86 L673.7754,501.86 L663.7754,491.86" fill="#FFFFFF" style="stroke:#000000;stroke-width:1;"/><text fill="#000000" font-family="Verdana" font-size="13" font-weight="bold" lengthAdjust="spacing" textLength="35.4644" x="519" y="508.9269">Type</text><text fill="#000000" font-family="Verdana" font-size="13" lengthAdjust="spacing" textLength="104.311" x="554.4644" y="508.9269">: backend.union</text><line style="stroke:#000000;stroke-width:1;" x1="514" x2="672.7754" y1="511.9928" y2="511.9928"/><text fill="#000000" font-family="Verdana" font-size="13" font-weight="bold" lengthAdjust="spacing" textLength="47.144" x="519" y="528.0597">Config</text><text fill="#000000" font-family="Verdana" font-size="13" lengthAdjust="spacing" textLength="4.3799" x="566.144" y="528.0597">:</text><text fill="#000000" font-family="Verdana" font-size="13" lengthAdjust="spacing" textLength="115.1465" x="519" y="543.1925">&#8226; items: [4 items]</text></g><!--entity http_server--><g class="entity" data-entity="http_server" data-source-line="55" data-uid="ent0022" id="entity_http_server"><rect fill="#ADD8E6" height="43.9688" rx="2.5" ry="2.5" style="stroke:#00008B;stroke-width:1;" width="108.6191" x="232.08" y="772.66"/><rect fill="#ADD8E6" height="10" style="stroke:#00008B;stroke-width:1;" width="15" x="320.6991" y="777.66"/><rect fill="#ADD8E6" height="2" style="stroke:#00008B;stroke-width:1;" width="4" x="318.6991" y="779.66"/><rect fill="#ADD8E6" height="2" style="stroke:#00008B;stroke-width:1;" width="4" x="318.6991" y="783.66"/><text fill="#000000" font-family="Verdana" font-size="12" lengthAdjust="spacing" textLength="68.6191" x="247.08" y="803.7987">http_server</text></g><g class="entity" data-entity="GMN23" data-source-line="57" data-uid="ent0024" id="entity_GMN23"><path d="M181.64,632.26 L181.64,695.6584 A0,0 0 0 0 181.64,695.6584 L260.41,695.6584 L281.61,772.44 L268.41,695.6584 L333.1351,695.6584 A0,0 0 0 0 333.1351,695.6584 L333.1351,642.26 L323.1351,632.26 L181.64,632.26 A0,0 0 0 0 181.64,632.26" fill="#FFFFFF" style="stroke:#000000;stroke-width:1;"/><path d="M323.1351,632.26 L323.1351,642.26 L333.1351,642.26 L323.1351,632.26" fill="#FFFFFF" style="stroke:#000000;stroke-width:1;"/><text fill="#000000" font-family="Verdana" font-size="13" font-weight="bold" lengthAdjust="spacing" textLength="35.4644" x="187.64" y="649.3269">Type</text><text fill="#000000" font-family="Verdana" font-size="13" lengthAdjust="spacing" textLength="95.0308" x="223.1044" y="649.3269">: frontend.http</text><line style="stroke:#000000;stroke-width:1;" x1="182.64" x2="332.1351" y1="652.3928" y2="652.3928"/><text fill="#000000" font-family="Verdana" font-size="13" font-weight="bold" lengthAdjust="spacing" textLength="47.144" x="187.64" y="668.4597">Config</text><text fill="#000000" font-family="Verdana" font-size="13" lengthAdjust="spacing" textLength="4.3799" x="234.784" y="668.4597">:</text><text fill="#000000" font-family="Verdana" font-size="13" lengthAdjust="spacing" textLength="129.8286" x="187.64" y="683.5925">&#8226; backend: union_fs</text></g><!--link GMN15 to block_cache_fs--><g class="link" data-entity-1="GMN15" data-entity-2="block_cache_fs" data-source-line="38" data-uid="lnk17" id="link_GMN15_block_cache_fs"><path d="M447.26,415.24 C442.89,430.36 438.05,446.78 433.39,461.86 C429.33,475.01 424.51,489.66 420.62,501.28" fill="none" id="GMN15-block_cache_fs" style="stroke:#000000;stroke-width:1;stroke-dasharray:7,7;"/></g><!--link local_fs_z to metadata_cache_fs--><g class="link" data-entity-1="local_fs_z" data-entity-2="metadata_cache_fs" data-source-line="64" data-uid="lnk26" id="link_local_fs_z_metadata_cache_fs"><path d="M104.19,204.49 C129.37,238.37 174.7409,299.3944 199.9509,333.3144" fill="none" id="local_fs_z-to-metadata_cache_fs" style="stroke:#000000;stroke-width:1;"/><polygon fill="#000000" points="203.53,338.13,201.3718,328.5205,200.5474,334.117,194.951,333.2926,203.53,338.13" style="stroke:#000000;stroke-width:1;"/><text fill="#000000" font-family="Verdana" font-size="13" lengthAdjust="spacing" textLength="29.7832" x="155.39" y="272.1369">uses</text></g><!--link local_fs_d to metadata_cache_fs--><g class="link" data-entity-1="local_fs_d" data-entity-2="metadata_cache_fs" data-source-line="65" data-uid="lnk27" id="link_local_fs_d_metadata_cache_fs"><path d="M612.93,197.73 C544.5,218.45 417.67,259.24 314.39,306.07 C293.71,315.44 276.7182,324.7121 258.9982,335.1621" fill="none" id="local_fs_d-to-metadata_cache_fs" style="stroke:#000000;stroke-width:1;"/><polygon fill="#000000" points="253.83,338.21,263.6142,337.0837,258.1369,335.6701,259.5504,330.1927,253.83,338.21" style="stroke:#000000;stroke-width:1;"/><text fill="#000000" font-family="Verdana" font-size="13" lengthAdjust="spacing" textLength="29.7832" x="428.39" y="272.1369">uses</text></g><!--link metadata_cache_fs to block_cache_fs--><g class="link" data-entity-1="metadata_cache_fs" data-entity-2="block_cache_fs" data-source-line="66" data-uid="lnk28" id="link_metadata_cache_fs_block_cache_fs"><path d="M245.15,382.86 C282.26,413.67 345.7442,466.3867 382.9042,497.2467" fill="none" id="metadata_cache_fs-to-block_cache_fs" style="stroke:#000000;stroke-width:1;"/><polygon fill="#000000" points="387.52,501.08,383.1518,492.2529,383.6735,497.8856,378.0407,498.4073,387.52,501.08" style="stroke:#000000;stroke-width:1;"/><text fill="#000000" font-family="Verdana" font-size="13" lengthAdjust="spacing" textLength="29.7832" x="341.39" y="457.9269">uses</text></g><!--link local_fs_d to block_cache_fs--><g class="link" data-entity-1="local_fs_d" data-entity-2="block_cache_fs" data-source-line="67" data-uid="lnk29" id="link_local_fs_d_block_cache_fs"><path d="M663.17,204.47 C663.68,248.33 659.12,350.18 610.39,414.86 C591.04,440.55 520.2716,475.398 468.5116,498.688" fill="none" id="local_fs_d-to-block_cache_fs" style="stroke:#000000;stroke-width:1;"/><polygon fill="#000000" points="463.04,501.15,472.8888,501.1047,467.5997,499.0983,469.6061,493.8092,463.04,501.15" style="stroke:#000000;stroke-width:1;"/><text fill="#000000" font-family="Verdana" font-size="13" lengthAdjust="spacing" textLength="29.7832" x="655.39" y="365.0369">uses</text></g><!--link local_fs_d to union_fs--><g class="link" data-entity-1="local_fs_d" data-entity-2="union_fs" data-source-line="68" data-uid="lnk30" id="link_local_fs_d_union_fs"><path d="M672.59,204.57 C700.12,265.63 768.89,443.84 691.39,555.26 C638.34,631.54 528.9796,653.1964 464.7896,659.6864" fill="none" id="local_fs_d-to-union_fs" style="stroke:#000000;stroke-width:1;"/><polygon fill="#000000" points="458.82,660.29,468.1767,663.3644,463.7946,659.787,467.372,655.405,458.82,660.29" style="stroke:#000000;stroke-width:1;"/><text fill="#000000" font-family="Verdana" font-size="13" lengthAdjust="spacing" textLength="29.7832" x="727.39" y="457.9269">uses</text></g><!--link local_fs_z to union_fs--><g class="link" data-entity-1="local_fs_z" data-entity-2="union_fs" data-source-line="69" data-uid="lnk31" id="link_local_fs_z_union_fs"><path d="M87.43,204.63 C86.39,247.07 88.42,343.91 123.39,414.86 C177.5,524.67 299.2837,602.325 365.8137,638.645" fill="none" id="local_fs_z-to-union_fs" style="stroke:#000000;stroke-width:1;"/><polygon fill="#000000" points="371.08,641.52,365.0971,633.6966,366.6914,639.1242,361.2638,640.7184,371.08,641.52" style="stroke:#000000;stroke-width:1;"/><text fill="#000000" font-family="Verdana" font-size="13" lengthAdjust="spacing" textLength="29.7832" x="151.39" y="457.9269">uses</text></g><!--link metadata_cache_fs to union_fs--><g class="link" data-entity-1="metadata_cache_fs" data-entity-2="union_fs" data-source-line="70" data-uid="lnk32" id="link_metadata_cache_fs_union_fs"><path d="M225.1,382.67 C235.79,419.91 261.33,498.48 300.39,555.26 C324.05,589.65 355.4575,617.8884 380.4575,637.9184" fill="none" id="metadata_cache_fs-to-union_fs" style="stroke:#000000;stroke-width:1;"/><polygon fill="#000000" points="385.14,641.67,380.6174,632.921,381.2379,638.5437,375.6152,639.1643,385.14,641.67" style="stroke:#000000;stroke-width:1;"/><text fill="#000000" font-family="Verdana" font-size="13" lengthAdjust="spacing" textLength="29.7832" x="301.39" y="528.1269">uses</text></g><!--link block_cache_fs to union_fs--><g class="link" data-entity-1="block_cache_fs" data-entity-2="union_fs" data-source-line="71" data-uid="lnk33" id="link_block_cache_fs_union_fs"><path d="M413.39,545.89 C413.39,571.97 413.39,609.85 413.39,635.84" fill="none" id="block_cache_fs-to-union_fs" style="stroke:#000000;stroke-width:1;"/><polygon fill="#000000" points="413.39,641.84,417.39,632.84,413.39,636.84,409.39,632.84,413.39,641.84" style="stroke:#000000;stroke-width:1;"/><text fill="#000000" font-family="Verdana" font-size="13" lengthAdjust="spacing" textLength="29.7832" x="414.39" y="598.3269">uses</text></g><!--link union_fs to http_server--><g class="link" data-entity-1="union_fs" data-entity-2="http_server" data-source-line="72" data-uid="lnk34" id="link_union_fs_http_server"><path d="M392.42,686.21 C368.89,710.05 335.1557,744.2406 311.6057,768.0906" fill="none" id="union_fs-to-http_server" style="stroke:#000000;stroke-width:1;"/><polygon fill="#000000" points="307.39,772.36,316.5598,768.7664,310.9031,768.8022,310.8673,763.1454,307.39,772.36" style="stroke:#000000;stroke-width:1;"/><text fill="#000000" font-family="Verdana" font-size="13" lengthAdjust="spacing" textLength="29.7832" x="351.39" y="738.7269">uses</text></g><!--SRC=[fPFBIiD058RtUOhJbL3GUkd6B0JRg0ZUK46mb30c9ytGP2PCfe9P-Im-ca_YP6hRcMHIAkvopl_bpF_FfHTZGXd2-FxsuVxkukuv3AxFhnxFRxsUJ357A392cUULSyeA8aWERoIQpmHVi7ZCCoxW9QKI3JtYUS4PCZbgW3TqbifHjd33NCGebc10nBoBk-HCFj4AuUZO9J_9ZmnXaMV7dhTkmYJZ4Sd2f0pZAP0IDgN7k4IGl02Uc6s0Vl_vey1-tzU1aSK7MbRA_hwMnvmbTAO0LNr_VYcin80A7m9_u2aUwj5k5vNjedAxgFxbuhNBHOwIn4IIC29HYceXRQRLjJorLPSrc-hso0MTKJPQ_kNRWMjT_zwMOrFM6GUD5PrvtzI0kHtMRbb96v8hfe7idD6rWN-BQg-gZxhkr6_1X-7HwV3aSEZUW0MZdAsYhmehzBhfYgl5xg3gyUUb3vFXyclgzf1AMOGbYdSKsePHMqxClcac4UhTrsvgODlj_zt9TQADcpq8i50bieXYwMrkdHfsrZuWK4DAauktSssXnkthr35p9sYLg2LNJjbjfqarLdOXwxeMZUFvrNy0]--></g></svg>