<svg xmlns="http://www.w3.org/2000/svg" xmlns:xlink="http://www.w3.org/1999/xlink" contentStyleType="text/css" data-diagram-type="DESCRIPTION" height="1034px" preserveAspectRatio="none" style="width:1483px;height:1034px;background:#FFFFFF;" version="1.1" viewBox="0 0 1483 1034" width="1483px" zoomAndPan="magnify"><defs/><g><!--entity local_fs_d--><g class="entity" data-entity="local_fs_d" data-source-line="10" data-uid="ent0002" id="entity_local_fs_d"><rect fill="#ADD8E6" height="43.9688" rx="2.5" ry="2.5" style="stroke:#00008B;stroke-width:1;" width="98.0547" x="313.09" y="220.77"/><rect fill="#ADD8E6" height="10" style="stroke:#00008B;stroke-width:1;" width="15" x="391.1447" y="225.77"/><rect fill="#ADD8E6" height="2" style="stroke:#00008B;stroke-width:1;" width="4" x="389.1447" y="227.77"/><rect fill="#ADD8E6" height="2" style="stroke:#00008B;stroke-width:1;" width="4" x="389.1447" y="231.77"/><text fill="#000000" font-family="Verdana" font-size="12" lengthAdjust="spacing" textLength="58.0547" x="328.09" y="251.9087">local_fs_d</text></g><g class="entity" data-entity="GMN3" data-source-line="12" data-uid="ent0004" id="entity_GMN3"><path d="M284.72,33.69 L284.72,97.0884 A0,0 0 0 0 284.72,97.0884 L358.12,97.0884 L362.12,220.49 L366.12,97.0884 L439.5032,97.0884 A0,0 0 0 0 439.5032,97.0884 L439.5032,43.69 L429.5032,33.69 L284.72,33.69 A0,0 0 0 0 284.72,33.69" fill="#FFFFFF" style="stroke:#000000;stroke-width:1;"/><path d="M429.5032,33.69 L429.5032,43.69 L439.5032,43.69 L429.5032,33.69" fill="#FFFFFF" style="stroke:#000000;stroke-width:1;"/><text fill="#000000" font-family="Verdana" font-size="13" font-weight="bold" lengthAdjust="spacing" textLength="35.4644" x="290.72" y="50.7569">Type</text><text fill="#000000" font-family="Verdana" font-size="13" lengthAdjust="spacing" textLength="98.3188" x="326.1844" y="50.7569">: backend.local</text><line style="stroke:#000000;stroke-width:1;" x1="285.72" x2="438.5032" y1="53.8228" y2="53.8228"/><text fill="#000000" font-family="Verdana" font-size="13" font-weight="bold" lengthAdjust="spacing" textLength="47.144" x="290.72" y="69.8897">Config</text><text fill="#000000" font-family="Verdana" font-size="13" lengthAdjust="spacing" textLength="4.3799" x="337.864" y="69.8897">:</text><text fill="#000000" font-family="Verdana" font-size="13" lengthAdjust="spacing" textLength="89.0386" x="290.72" y="85.0225">&#8226; baseDir: D:/</text></g><!--entity webdav_fs--><g class="entity" data-entity="webdav_fs" data-source-line="18" data-uid="ent0006" id="entity_webdav_fs"><rect fill="#ADD8E6" height="43.9688" rx="2.5" ry="2.5" style="stroke:#00008B;stroke-width:1;" width="103.3633" x="713.43" y="220.77"/><rect fill="#ADD8E6" height="10" style="stroke:#00008B;stroke-width:1;" width="15" x="796.7933" y="225.77"/><rect fill="#ADD8E6" height="2" style="stroke:#00008B;stroke-width:1;" width="4" x="794.7933" y="227.77"/><rect fill="#ADD8E6" height="2" style="stroke:#00008B;stroke-width:1;" width="4" x="794.7933" y="231.77"/><text fill="#000000" font-family="Verdana" font-size="12" lengthAdjust="spacing" textLength="63.3633" x="728.43" y="251.9087">webdav_fs</text></g><g class="entity" data-entity="GMN7" data-source-line="20" data-uid="ent0008" id="entity_GMN7"><path d="M633.53,11 L633.53,119.7969 A0,0 0 0 0 633.53,119.7969 L761.12,119.7969 L765.12,220.47 L769.12,119.7969 L896.6994,119.7969 A0,0 0 0 0 896.6994,119.7969 L896.6994,21 L886.6994,11 L633.53,11 A0,0 0 0 0 633.53,11" fill="#FFFFFF" style="stroke:#000000;stroke-width:1;"/><path d="M886.6994,11 L886.6994,21 L896.6994,21 L886.6994,11" fill="#FFFFFF" style="stroke:#000000;stroke-width:1;"/><text fill="#000000" font-family="Verdana" font-size="13" font-weight="bold" lengthAdjust="spacing" textLength="35.4644" x="639.53" y="28.0669">Type</text><text fill="#000000" font-family="Verdana" font-size="13" lengthAdjust="spacing" textLength="118.8218" x="674.9944" y="28.0669">: backend.webdav</text><line style="stroke:#000000;stroke-width:1;" x1="634.53" x2="895.6994" y1="31.1328" y2="31.1328"/><text fill="#000000" font-family="Verdana" font-size="13" font-weight="bold" lengthAdjust="spacing" textLength="47.144" x="639.53" y="47.1997">Config</text><text fill="#000000" font-family="Verdana" font-size="13" lengthAdjust="spacing" textLength="4.3799" x="686.674" y="47.1997">:</text><text fill="#000000" font-family="Verdana" font-size="13" lengthAdjust="spacing" textLength="242.1694" x="639.53" y="62.3325">&#8226; baseUrl: http://192.168.242.2:8093</text><text fill="#000000" font-family="Verdana" font-size="13" lengthAdjust="spacing" textLength="107.4341" x="639.53" y="77.4653">&#8226; username: zzq</text><text fill="#000000" font-family="Verdana" font-size="13" lengthAdjust="spacing" textLength="163.7949" x="639.53" y="92.5981">&#8226; password: [REDACTED]</text><text fill="#000000" font-family="Verdana" font-size="13" lengthAdjust="spacing" textLength="156.0952" x="639.53" y="107.731">&#8226; httpOptions: {3 keys}</text></g><!--entity metadata_cache_fs--><g class="entity" data-entity="metadata_cache_fs" data-source-line="29" data-uid="ent0010" id="entity_metadata_cache_fs"><rect fill="#ADD8E6" height="43.9688" rx="2.5" ry="2.5" style="stroke:#00008B;stroke-width:1;" width="156.1738" x="492.03" y="429.27"/><rect fill="#ADD8E6" height="10" style="stroke:#00008B;stroke-width:1;" width="15" x="628.2038" y="434.27"/><rect fill="#ADD8E6" height="2" style="stroke:#00008B;stroke-width:1;" width="4" x="626.2038" y="436.27"/><rect fill="#ADD8E6" height="2" style="stroke:#00008B;stroke-width:1;" width="4" x="626.2038" y="440.27"/><text fill="#000000" font-family="Verdana" font-size="12" lengthAdjust="spacing" textLength="116.1738" x="507.03" y="460.4087">metadata_cache_fs</text></g><g class="entity" data-entity="GMN11" data-source-line="31" data-uid="ent0012" id="entity_GMN11"><path d="M445.87,180.79 L445.87,304.7197 A0,0 0 0 0 445.87,304.7197 L560.49,304.7197 L569.29,428.86 L568.49,304.7197 L678.3676,304.7197 A0,0 0 0 0 678.3676,304.7197 L678.3676,190.79 L668.3676,180.79 L445.87,180.79 A0,0 0 0 0 445.87,180.79" fill="#FFFFFF" style="stroke:#000000;stroke-width:1;"/><path d="M668.3676,180.79 L668.3676,190.79 L678.3676,190.79 L668.3676,180.79" fill="#FFFFFF" style="stroke:#000000;stroke-width:1;"/><text fill="#000000" font-family="Verdana" font-size="13" font-weight="bold" lengthAdjust="spacing" textLength="35.4644" x="451.87" y="197.8569">Type</text><text fill="#000000" font-family="Verdana" font-size="13" lengthAdjust="spacing" textLength="176.0332" x="487.3344" y="197.8569">: backend.metadata_cache</text><line style="stroke:#000000;stroke-width:1;" x1="446.87" x2="677.3676" y1="200.9228" y2="200.9228"/><text fill="#000000" font-family="Verdana" font-size="13" font-weight="bold" lengthAdjust="spacing" textLength="47.144" x="451.87" y="216.9897">Config</text><text fill="#000000" font-family="Verdana" font-size="13" lengthAdjust="spacing" textLength="4.3799" x="499.014" y="216.9897">:</text><text fill="#000000" font-family="Verdana" font-size="13" lengthAdjust="spacing" textLength="182.019" x="451.87" y="232.1225">&#8226; originBackend: webdav_fs</text><text fill="#000000" font-family="Verdana" font-size="13" lengthAdjust="spacing" textLength="177.7534" x="451.87" y="247.2553">&#8226; cacheBackend: local_fs_d</text><text fill="#000000" font-family="Verdana" font-size="13" lengthAdjust="spacing" textLength="190.1631" x="451.87" y="262.3881">&#8226; cacheDir: /metadata_cache</text><text fill="#000000" font-family="Verdana" font-size="13" lengthAdjust="spacing" textLength="155.5303" x="451.87" y="277.521">&#8226; maxCacheAge: 2400h</text><text fill="#000000" font-family="Verdana" font-size="13" lengthAdjust="spacing" textLength="211.123" x="451.87" y="292.6538">&#8226; largeDirectoryThreshold: 1000</text></g><!--entity block_cache_fs--><g class="entity" data-entity="block_cache_fs" data-source-line="41" data-uid="ent0014" id="entity_block_cache_fs"><rect fill="#ADD8E6" height="43.9688" rx="2.5" ry="2.5" style="stroke:#00008B;stroke-width:1;" width="129.8535" x="92.19" y="630.2"/><rect fill="#ADD8E6" height="10" style="stroke:#00008B;stroke-width:1;" width="15" x="202.0435" y="635.2"/><rect fill="#ADD8E6" height="2" style="stroke:#00008B;stroke-width:1;" width="4" x="200.0435" y="637.2"/><rect fill="#ADD8E6" height="2" style="stroke:#00008B;stroke-width:1;" width="4" x="200.0435" y="641.2"/><text fill="#000000" font-family="Verdana" font-size="12" lengthAdjust="spacing" textLength="89.8535" x="107.19" y="661.3387">block_cache_fs</text></g><g class="entity" data-entity="GMN15" data-source-line="43" data-uid="ent0016" id="entity_GMN15"><path d="M11,381.72 L11,520.7825 A0,0 0 0 0 11,520.7825 L142.67,520.7825 L155.41,629.97 L150.67,520.7825 L271.2305,520.7825 A0,0 0 0 0 271.2305,520.7825 L271.2305,391.72 L261.2305,381.72 L11,381.72 A0,0 0 0 0 11,381.72" fill="#FFFFFF" style="stroke:#000000;stroke-width:1;"/><path d="M261.2305,381.72 L261.2305,391.72 L271.2305,391.72 L261.2305,381.72" fill="#FFFFFF" style="stroke:#000000;stroke-width:1;"/><text fill="#000000" font-family="Verdana" font-size="13" font-weight="bold" lengthAdjust="spacing" textLength="35.4644" x="17" y="398.7869">Type</text><text fill="#000000" font-family="Verdana" font-size="13" lengthAdjust="spacing" textLength="147.5195" x="52.4644" y="398.7869">: backend.block_cache</text><line style="stroke:#000000;stroke-width:1;" x1="12" x2="270.2305" y1="401.8528" y2="401.8528"/><text fill="#000000" font-family="Verdana" font-size="13" font-weight="bold" lengthAdjust="spacing" textLength="47.144" x="17" y="417.9197">Config</text><text fill="#000000" font-family="Verdana" font-size="13" lengthAdjust="spacing" textLength="4.3799" x="64.144" y="417.9197">:</text><text fill="#000000" font-family="Verdana" font-size="13" lengthAdjust="spacing" textLength="239.2305" x="17" y="433.0525">&#8226; originBackend: metadata_cache_fs</text><text fill="#000000" font-family="Verdana" font-size="13" lengthAdjust="spacing" textLength="177.7534" x="17" y="448.1853">&#8226; cacheBackend: local_fs_d</text><text fill="#000000" font-family="Verdana" font-size="13" lengthAdjust="spacing" textLength="161.6494" x="17" y="463.3181">&#8226; cacheDir: /block_cache</text><text fill="#000000" font-family="Verdana" font-size="13" lengthAdjust="spacing" textLength="139.3882" x="17" y="478.451">&#8226; blockSize: 4194304</text><text fill="#000000" font-family="Verdana" font-size="13" lengthAdjust="spacing" textLength="141.4258" x="17" y="493.5838">&#8226; readAheadBlocks: 2</text><text fill="#000000" font-family="Verdana" font-size="13" lengthAdjust="spacing" textLength="103.2827" x="17" y="508.7166">&#8226; ... and 1 more</text></g><!--entity union_fs--><g class="entity" data-entity="union_fs" data-source-line="54" data-uid="ent0018" id="entity_union_fs"><rect fill="#ADD8E6" height="43.9688" rx="2.5" ry="2.5" style="stroke:#00008B;stroke-width:1;" width="89.9688" x="425.13" y="823.56"/><rect fill="#ADD8E6" height="10" style="stroke:#00008B;stroke-width:1;" width="15" x="495.0988" y="828.56"/><rect fill="#ADD8E6" height="2" style="stroke:#00008B;stroke-width:1;" width="4" x="493.0988" y="830.56"/><rect fill="#ADD8E6" height="2" style="stroke:#00008B;stroke-width:1;" width="4" x="493.0988" y="834.56"/><text fill="#000000" font-family="Verdana" font-size="12" lengthAdjust="spacing" textLength="49.9688" x="440.13" y="854.6987">union_fs</text></g><g class="entity" data-entity="GMN19" data-source-line="56" data-uid="ent0020" id="entity_GMN19"><path d="M256.73,620.48 L256.73,683.8784 A0,0 0 0 0 256.73,683.8784 L354.78,683.8784 L455.27,823.18 L362.78,683.8784 L417.5054,683.8784 A0,0 0 0 0 417.5054,683.8784 L417.5054,630.48 L407.5054,620.48 L256.73,620.48 A0,0 0 0 0 256.73,620.48" fill="#FFFFFF" style="stroke:#000000;stroke-width:1;"/><path d="M407.5054,620.48 L407.5054,630.48 L417.5054,630.48 L407.5054,620.48" fill="#FFFFFF" style="stroke:#000000;stroke-width:1;"/><text fill="#000000" font-family="Verdana" font-size="13" font-weight="bold" lengthAdjust="spacing" textLength="35.4644" x="262.73" y="637.5469">Type</text><text fill="#000000" font-family="Verdana" font-size="13" lengthAdjust="spacing" textLength="104.311" x="298.1944" y="637.5469">: backend.union</text><line style="stroke:#000000;stroke-width:1;" x1="257.73" x2="416.5054" y1="640.6128" y2="640.6128"/><text fill="#000000" font-family="Verdana" font-size="13" font-weight="bold" lengthAdjust="spacing" textLength="47.144" x="262.73" y="656.6797">Config</text><text fill="#000000" font-family="Verdana" font-size="13" lengthAdjust="spacing" textLength="4.3799" x="309.874" y="656.6797">:</text><text fill="#000000" font-family="Verdana" font-size="13" lengthAdjust="spacing" textLength="115.1465" x="262.73" y="671.8125">&#8226; items: [4 items]</text></g><!--entity http_server--><g class="entity" data-entity="http_server" data-source-line="62" data-uid="ent0022" id="entity_http_server"><rect fill="#ADD8E6" height="43.9688" rx="2.5" ry="2.5" style="stroke:#00008B;stroke-width:1;" width="108.6191" x="298.81" y="984.51"/><rect fill="#ADD8E6" height="10" style="stroke:#00008B;stroke-width:1;" width="15" x="387.4291" y="989.51"/><rect fill="#ADD8E6" height="2" style="stroke:#00008B;stroke-width:1;" width="4" x="385.4291" y="991.51"/><rect fill="#ADD8E6" height="2" style="stroke:#00008B;stroke-width:1;" width="4" x="385.4291" y="995.51"/><text fill="#000000" font-family="Verdana" font-size="12" lengthAdjust="spacing" textLength="68.6191" x="313.81" y="1015.6487">http_server</text></g><g class="entity" data-entity="GMN23" data-source-line="64" data-uid="ent0024" id="entity_GMN23"><path d="M238.37,798.71 L238.37,892.3741 A0,0 0 0 0 238.37,892.3741 L321.4,892.3741 L347.91,984.29 L329.4,892.3741 L389.8651,892.3741 A0,0 0 0 0 389.8651,892.3741 L389.8651,808.71 L379.8651,798.71 L238.37,798.71 A0,0 0 0 0 238.37,798.71" fill="#FFFFFF" style="stroke:#000000;stroke-width:1;"/><path d="M379.8651,798.71 L379.8651,808.71 L389.8651,808.71 L379.8651,798.71" fill="#FFFFFF" style="stroke:#000000;stroke-width:1;"/><text fill="#000000" font-family="Verdana" font-size="13" font-weight="bold" lengthAdjust="spacing" textLength="35.4644" x="244.37" y="815.7769">Type</text><text fill="#000000" font-family="Verdana" font-size="13" lengthAdjust="spacing" textLength="95.0308" x="279.8344" y="815.7769">: frontend.http</text><line style="stroke:#000000;stroke-width:1;" x1="239.37" x2="388.8651" y1="818.8428" y2="818.8428"/><text fill="#000000" font-family="Verdana" font-size="13" font-weight="bold" lengthAdjust="spacing" textLength="47.144" x="244.37" y="834.9097">Config</text><text fill="#000000" font-family="Verdana" font-size="13" lengthAdjust="spacing" textLength="4.3799" x="291.514" y="834.9097">:</text><text fill="#000000" font-family="Verdana" font-size="13" lengthAdjust="spacing" textLength="129.8286" x="244.37" y="850.0425">&#8226; backend: union_fs</text><text fill="#000000" font-family="Verdana" font-size="13" lengthAdjust="spacing" textLength="130.0254" x="244.37" y="865.1753">&#8226; address: localhost</text><text fill="#000000" font-family="Verdana" font-size="13" lengthAdjust="spacing" textLength="80.0439" x="244.37" y="880.3081">&#8226; port: 8051</text></g><!--entity request_logger--><g class="entity" data-entity="request_logger" data-source-line="72" data-uid="ent0026" id="entity_request_logger"><rect fill="#ADD8E6" height="43.9688" rx="2.5" ry="2.5" style="stroke:#00008B;stroke-width:1;" width="130.1055" x="819.06" y="823.56"/><rect fill="#ADD8E6" height="10" style="stroke:#00008B;stroke-width:1;" width="15" x="929.1655" y="828.56"/><rect fill="#ADD8E6" height="2" style="stroke:#00008B;stroke-width:1;" width="4" x="927.1655" y="830.56"/><rect fill="#ADD8E6" height="2" style="stroke:#00008B;stroke-width:1;" width="4" x="927.1655" y="834.56"/><text fill="#000000" font-family="Verdana" font-size="12" lengthAdjust="spacing" textLength="90.1055" x="834.06" y="854.6987">request_logger</text></g><g class="entity" data-entity="GMN27" data-source-line="74" data-uid="ent0028" id="entity_GMN27"><path d="M773.27,597.78 L773.27,706.5769 A0,0 0 0 0 773.27,706.5769 L877.96,706.5769 L883.78,823.09 L885.96,706.5769 L988.959,706.5769 A0,0 0 0 0 988.959,706.5769 L988.959,607.78 L978.959,597.78 L773.27,597.78 A0,0 0 0 0 773.27,597.78" fill="#FFFFFF" style="stroke:#000000;stroke-width:1;"/><path d="M978.959,597.78 L978.959,607.78 L988.959,607.78 L978.959,597.78" fill="#FFFFFF" style="stroke:#000000;stroke-width:1;"/><text fill="#000000" font-family="Verdana" font-size="13" font-weight="bold" lengthAdjust="spacing" textLength="35.4644" x="779.27" y="614.8469">Type</text><text fill="#000000" font-family="Verdana" font-size="13" lengthAdjust="spacing" textLength="95.4688" x="814.7344" y="614.8469">: logger.logger</text><line style="stroke:#000000;stroke-width:1;" x1="774.27" x2="987.959" y1="617.9128" y2="617.9128"/><text fill="#000000" font-family="Verdana" font-size="13" font-weight="bold" lengthAdjust="spacing" textLength="47.144" x="779.27" y="633.9797">Config</text><text fill="#000000" font-family="Verdana" font-size="13" lengthAdjust="spacing" textLength="4.3799" x="826.414" y="633.9797">:</text><text fill="#000000" font-family="Verdana" font-size="13" lengthAdjust="spacing" textLength="75.6069" x="779.27" y="649.1125">&#8226; level: info</text><text fill="#000000" font-family="Verdana" font-size="13" lengthAdjust="spacing" textLength="90.4922" x="779.27" y="664.2453">&#8226; format: json</text><text fill="#000000" font-family="Verdana" font-size="13" lengthAdjust="spacing" textLength="194.689" x="779.27" y="679.3781">&#8226; codeFilenameEnabled: false</text><text fill="#000000" font-family="Verdana" font-size="13" lengthAdjust="spacing" textLength="155.689" x="779.27" y="694.511">&#8226; localLogFile: {3 keys}</text></g><!--entity app_logger--><g class="entity" data-entity="app_logger" data-source-line="83" data-uid="ent0030" id="entity_app_logger"><rect fill="#ADD8E6" height="43.9688" rx="2.5" ry="2.5" style="stroke:#00008B;stroke-width:1;" width="106.8145" x="1021.71" y="823.56"/><rect fill="#ADD8E6" height="10" style="stroke:#00008B;stroke-width:1;" width="15" x="1108.5245" y="828.56"/><rect fill="#ADD8E6" height="2" style="stroke:#00008B;stroke-width:1;" width="4" x="1106.5245" y="830.56"/><rect fill="#ADD8E6" height="2" style="stroke:#00008B;stroke-width:1;" width="4" x="1106.5245" y="834.56"/><text fill="#000000" font-family="Verdana" font-size="12" lengthAdjust="spacing" textLength="66.8145" x="1036.71" y="854.6987">app_logger</text></g><g class="entity" data-entity="GMN31" data-source-line="85" data-uid="ent0032" id="entity_GMN31"><path d="M1023.77,605.35 L1023.77,699.0141 A0,0 0 0 0 1023.77,699.0141 L1099.16,699.0141 L1079.27,823.07 L1107.16,699.0141 L1200.459,699.0141 A0,0 0 0 0 1200.459,699.0141 L1200.459,615.35 L1190.459,605.35 L1023.77,605.35 A0,0 0 0 0 1023.77,605.35" fill="#FFFFFF" style="stroke:#000000;stroke-width:1;"/><path d="M1190.459,605.35 L1190.459,615.35 L1200.459,615.35 L1190.459,605.35" fill="#FFFFFF" style="stroke:#000000;stroke-width:1;"/><text fill="#000000" font-family="Verdana" font-size="13" font-weight="bold" lengthAdjust="spacing" textLength="35.4644" x="1029.77" y="622.4169">Type</text><text fill="#000000" font-family="Verdana" font-size="13" lengthAdjust="spacing" textLength="95.4688" x="1065.2344" y="622.4169">: logger.logger</text><line style="stroke:#000000;stroke-width:1;" x1="1024.77" x2="1199.459" y1="625.4828" y2="625.4828"/><text fill="#000000" font-family="Verdana" font-size="13" font-weight="bold" lengthAdjust="spacing" textLength="47.144" x="1029.77" y="641.5497">Config</text><text fill="#000000" font-family="Verdana" font-size="13" lengthAdjust="spacing" textLength="4.3799" x="1076.914" y="641.5497">:</text><text fill="#000000" font-family="Verdana" font-size="13" lengthAdjust="spacing" textLength="92.2188" x="1029.77" y="656.6825">&#8226; level: debug</text><text fill="#000000" font-family="Verdana" font-size="13" lengthAdjust="spacing" textLength="90.4922" x="1029.77" y="671.8153">&#8226; format: json</text><text fill="#000000" font-family="Verdana" font-size="13" lengthAdjust="spacing" textLength="155.689" x="1029.77" y="686.9481">&#8226; localLogFile: {3 keys}</text></g><!--entity webdav_server--><g class="entity" data-entity="webdav_server" data-source-line="93" data-uid="ent0034" id="entity_webdav_server"><rect fill="#ADD8E6" height="43.9688" rx="2.5" ry="2.5" style="stroke:#00008B;stroke-width:1;" width="130.873" x="670.68" y="984.51"/><rect fill="#ADD8E6" height="10" style="stroke:#00008B;stroke-width:1;" width="15" x="781.553" y="989.51"/><rect fill="#ADD8E6" height="2" style="stroke:#00008B;stroke-width:1;" width="4" x="779.553" y="991.51"/><rect fill="#ADD8E6" height="2" style="stroke:#00008B;stroke-width:1;" width="4" x="779.553" y="995.51"/><text fill="#000000" font-family="Verdana" font-size="12" lengthAdjust="spacing" textLength="90.873" x="685.68" y="1015.6487">webdav_server</text></g><g class="entity" data-entity="GMN35" data-source-line="95" data-uid="ent0036" id="entity_GMN35"><path d="M550.28,783.58 L550.28,907.5097 A0,0 0 0 0 550.28,907.5097 L689.79,907.5097 L726.88,984.21 L697.79,907.5097 L783.9519,907.5097 A0,0 0 0 0 783.9519,907.5097 L783.9519,793.58 L773.9519,783.58 L550.28,783.58 A0,0 0 0 0 550.28,783.58" fill="#FFFFFF" style="stroke:#000000;stroke-width:1;"/><path d="M773.9519,783.58 L773.9519,793.58 L783.9519,793.58 L773.9519,783.58" fill="#FFFFFF" style="stroke:#000000;stroke-width:1;"/><text fill="#000000" font-family="Verdana" font-size="13" font-weight="bold" lengthAdjust="spacing" textLength="35.4644" x="556.28" y="800.6469">Type</text><text fill="#000000" font-family="Verdana" font-size="13" lengthAdjust="spacing" textLength="119.1392" x="591.7444" y="800.6469">: frontend.webdav</text><line style="stroke:#000000;stroke-width:1;" x1="551.28" x2="782.9519" y1="803.7128" y2="803.7128"/><text fill="#000000" font-family="Verdana" font-size="13" font-weight="bold" lengthAdjust="spacing" textLength="47.144" x="556.28" y="819.7797">Config</text><text fill="#000000" font-family="Verdana" font-size="13" lengthAdjust="spacing" textLength="4.3799" x="603.424" y="819.7797">:</text><text fill="#000000" font-family="Verdana" font-size="13" lengthAdjust="spacing" textLength="129.8286" x="556.28" y="834.9125">&#8226; backend: union_fs</text><text fill="#000000" font-family="Verdana" font-size="13" lengthAdjust="spacing" textLength="134.1069" x="556.28" y="850.0453">&#8226; logger: app_logger</text><text fill="#000000" font-family="Verdana" font-size="13" lengthAdjust="spacing" textLength="212.6719" x="556.28" y="865.1781">&#8226; requestLogger: request_logger</text><text fill="#000000" font-family="Verdana" font-size="13" lengthAdjust="spacing" textLength="117.1523" x="556.28" y="880.311">&#8226; address: 0.0.0.0</text><text fill="#000000" font-family="Verdana" font-size="13" lengthAdjust="spacing" textLength="80.0439" x="556.28" y="895.4438">&#8226; port: 8052</text></g><!--entity component_diagram--><g class="entity" data-entity="component_diagram" data-source-line="105" data-uid="ent0038" id="entity_component_diagram"><rect fill="#ADD8E6" height="43.9688" rx="2.5" ry="2.5" style="stroke:#00008B;stroke-width:1;" width="163.7852" x="1153.22" y="984.51"/><rect fill="#ADD8E6" height="10" style="stroke:#00008B;stroke-width:1;" width="15" x="1297.0052" y="989.51"/><rect fill="#ADD8E6" height="2" style="stroke:#00008B;stroke-width:1;" width="4" x="1295.0052" y="991.51"/><rect fill="#ADD8E6" height="2" style="stroke:#00008B;stroke-width:1;" width="4" x="1295.0052" y="995.51"/><text fill="#000000" font-family="Verdana" font-size="12" lengthAdjust="spacing" textLength="123.7852" x="1168.22" y="1015.6487">component_diagram</text></g><g class="entity" data-entity="GMN39" data-source-line="107" data-uid="ent0040" id="entity_GMN39"><path d="M1163.26,798.71 L1163.26,892.3741 A0,0 0 0 0 1163.26,892.3741 L1291.53,892.3741 L1246.46,984.29 L1299.53,892.3741 L1476.9631,892.3741 A0,0 0 0 0 1476.9631,892.3741 L1476.9631,808.71 L1466.9631,798.71 L1163.26,798.71 A0,0 0 0 0 1163.26,798.71" fill="#FFFFFF" style="stroke:#000000;stroke-width:1;"/><path d="M1466.9631,798.71 L1466.9631,808.71 L1476.9631,808.71 L1466.9631,798.71" fill="#FFFFFF" style="stroke:#000000;stroke-width:1;"/><text fill="#000000" font-family="Verdana" font-size="13" font-weight="bold" lengthAdjust="spacing" textLength="35.4644" x="1169.26" y="815.7769">Type</text><text fill="#000000" font-family="Verdana" font-size="13" lengthAdjust="spacing" textLength="249.5898" x="1204.7244" y="815.7769">: builtin.component_diagram_exporter</text><line style="stroke:#000000;stroke-width:1;" x1="1164.26" x2="1475.9631" y1="818.8428" y2="818.8428"/><text fill="#000000" font-family="Verdana" font-size="13" font-weight="bold" lengthAdjust="spacing" textLength="47.144" x="1169.26" y="834.9097">Config</text><text fill="#000000" font-family="Verdana" font-size="13" lengthAdjust="spacing" textLength="4.3799" x="1216.404" y="834.9097">:</text><text fill="#000000" font-family="Verdana" font-size="13" lengthAdjust="spacing" textLength="134.1069" x="1169.26" y="850.0425">&#8226; logger: app_logger</text><text fill="#000000" font-family="Verdana" font-size="13" lengthAdjust="spacing" textLength="274.0601" x="1169.26" y="865.1753">&#8226; outputSVGFile: component_diagram.svg</text><text fill="#000000" font-family="Verdana" font-size="13" lengthAdjust="spacing" textLength="292.7031" x="1169.26" y="880.3081">&#8226; outputPUMLFile: component_diagram.puml</text></g><!--link webdav_fs to metadata_cache_fs--><g class="link" data-entity-1="webdav_fs" data-entity-2="metadata_cache_fs" data-source-line="116" data-uid="lnk42" id="link_webdav_fs_metadata_cache_fs"><path d="M741.24,265.01 C727.99,276.76 711.19,291.6 696.12,304.72 C680.66,318.17 675.3,319.94 661.12,334.72 C631.77,365.31 605.7084,399.9183 588.5584,423.9183" fill="none" id="webdav_fs-to-metadata_cache_fs" style="stroke:#000000;stroke-width:1;"/><polygon fill="#000000" points="585.07,428.8,593.5571,423.803,587.977,424.7319,587.0481,419.1518,585.07,428.8" style="stroke:#000000;stroke-width:1;"/><text fill="#000000" font-family="Verdana" font-size="13" lengthAdjust="spacing" textLength="29.7832" x="662.12" y="347.7869">uses</text></g><!--link local_fs_d to metadata_cache_fs--><g class="link" data-entity-1="local_fs_d" data-entity-2="metadata_cache_fs" data-source-line="117" data-uid="lnk43" id="link_local_fs_d_metadata_cache_fs"><path d="M384.76,265.21 C397.38,277.02 413.46,291.86 428.12,304.72 C443.77,318.46 449.04,320.35 464.12,334.72 C496.82,365.9 527.7675,400.6711 548.2375,424.4711" fill="none" id="local_fs_d-to-metadata_cache_fs" style="stroke:#000000;stroke-width:1;"/><polygon fill="#000000" points="552.15,429.02,549.3139,419.5883,548.8896,425.2292,543.2487,424.8049,552.15,429.02" style="stroke:#000000;stroke-width:1;"/><text fill="#000000" font-family="Verdana" font-size="13" lengthAdjust="spacing" textLength="29.7832" x="481.12" y="347.7869">uses</text></g><!--link metadata_cache_fs to block_cache_fs--><g class="link" data-entity-1="metadata_cache_fs" data-entity-2="block_cache_fs" data-source-line="118" data-uid="lnk44" id="link_metadata_cache_fs_block_cache_fs"><path d="M532.5,473.64 C476.99,505.1 377.8,560.87 360.12,567.78 C308.52,587.97 289.93,575.69 239.12,597.78 C219.8,606.18 204.8298,615.479 189.5098,626.439" fill="none" id="metadata_cache_fs-to-block_cache_fs" style="stroke:#000000;stroke-width:1;"/><polygon fill="#000000" points="184.63,629.93,194.2771,627.9466,188.6965,627.0208,189.6224,621.4402,184.63,629.93" style="stroke:#000000;stroke-width:1;"/><text fill="#000000" font-family="Verdana" font-size="13" lengthAdjust="spacing" textLength="29.7832" x="393.12" y="563.8469">uses</text></g><!--link local_fs_d to block_cache_fs--><g class="link" data-entity-1="local_fs_d" data-entity-2="block_cache_fs" data-source-line="119" data-uid="lnk45" id="link_local_fs_d_block_cache_fs"><path d="M360.35,265 C355.55,313.43 339.06,434.47 289.12,520.78 C262.9,566.09 221.5208,602.7423 191.3308,626.1623" fill="none" id="local_fs_d-to-block_cache_fs" style="stroke:#000000;stroke-width:1;"/><polygon fill="#000000" points="186.59,629.84,196.1529,627.484,190.5406,626.7753,191.2494,621.163,186.59,629.84" style="stroke:#000000;stroke-width:1;"/><text fill="#000000" font-family="Verdana" font-size="13" lengthAdjust="spacing" textLength="29.7832" x="342.12" y="455.8169">uses</text></g><!--link local_fs_d to union_fs--><g class="link" data-entity-1="local_fs_d" data-entity-2="union_fs" data-source-line="120" data-uid="lnk46" id="link_local_fs_d_union_fs"><path d="M367.63,265.21 C380.29,315.06 411.83,442.68 431.12,550.78 C449.18,652.08 462.1935,768.4328 467.3035,817.1028" fill="none" id="local_fs_d-to-union_fs" style="stroke:#000000;stroke-width:1;"/><polygon fill="#000000" points="467.93,823.07,470.9684,813.7015,467.4079,818.0973,463.0121,814.5369,467.93,823.07" style="stroke:#000000;stroke-width:1;"/><text fill="#000000" font-family="Verdana" font-size="13" lengthAdjust="spacing" textLength="29.7832" x="435.12" y="563.8469">uses</text></g><!--link metadata_cache_fs to union_fs--><g class="link" data-entity-1="metadata_cache_fs" data-entity-2="union_fs" data-source-line="121" data-uid="lnk47" id="link_metadata_cache_fs_union_fs"><path d="M565.18,473.51 C553.68,522.86 523.91,648.93 496.12,753.58 C489.75,777.55 483.5425,799.1337 478.1325,817.5337" fill="none" id="metadata_cache_fs-to-union_fs" style="stroke:#000000;stroke-width:1;"/><polygon fill="#000000" points="476.44,823.29,482.8163,815.7838,477.8504,818.493,475.1412,813.5272,476.44,823.29" style="stroke:#000000;stroke-width:1;"/><text fill="#000000" font-family="Verdana" font-size="13" lengthAdjust="spacing" textLength="29.7832" x="536.12" y="656.7469">uses</text></g><!--link block_cache_fs to union_fs--><g class="link" data-entity-1="block_cache_fs" data-entity-2="union_fs" data-source-line="122" data-uid="lnk48" id="link_block_cache_fs_union_fs"><path d="M187.6,674.57 C202.76,684.81 221.56,696.91 239.12,706.58 C311.06,746.21 339.3,737.25 407.12,783.58 C423.58,794.83 435.5955,806.1442 447.4055,818.7942" fill="none" id="block_cache_fs-to-union_fs" style="stroke:#000000;stroke-width:1;"/><polygon fill="#000000" points="451.5,823.18,448.282,813.8717,448.0879,819.5252,442.4344,819.3311,451.5,823.18" style="stroke:#000000;stroke-width:1;"/><text fill="#000000" font-family="Verdana" font-size="13" lengthAdjust="spacing" textLength="29.7832" x="353.12" y="749.6469">uses</text></g><!--link webdav_fs to union_fs--><g class="link" data-entity-1="webdav_fs" data-entity-2="union_fs" data-source-line="123" data-uid="lnk49" id="link_webdav_fs_union_fs"><path d="M758.99,265.21 C739,333.25 671.34,549.01 574.12,706.58 C547.18,750.23 513.6614,792.5126 491.8214,818.8326" fill="none" id="webdav_fs-to-union_fs" style="stroke:#000000;stroke-width:1;"/><polygon fill="#000000" points="487.99,823.45,496.8154,819.0782,491.1829,819.6022,490.6589,813.9697,487.99,823.45" style="stroke:#000000;stroke-width:1;"/><text fill="#000000" font-family="Verdana" font-size="13" lengthAdjust="spacing" textLength="29.7832" x="655.12" y="563.8469">uses</text></g><!--link union_fs to http_server--><g class="link" data-entity-1="union_fs" data-entity-2="http_server" data-source-line="124" data-uid="lnk50" id="link_union_fs_http_server"><path d="M454.34,867.98 C431.94,898.4 394.7466,948.9377 372.3866,979.3177" fill="none" id="union_fs-to-http_server" style="stroke:#000000;stroke-width:1;"/><polygon fill="#000000" points="368.83,984.15,377.3864,979.2727,371.7938,980.1231,370.9434,974.5306,368.83,984.15" style="stroke:#000000;stroke-width:1;"/><text fill="#000000" font-family="Verdana" font-size="13" lengthAdjust="spacing" textLength="29.7832" x="403.12" y="950.5769">uses</text></g><!--link union_fs to webdav_server--><g class="link" data-entity-1="union_fs" data-entity-2="webdav_server" data-source-line="125" data-uid="lnk51" id="link_union_fs_webdav_server"><path d="M488.81,867.8 C500.65,880.4 516.77,896.1 533.12,907.51 C579.33,939.76 632.2325,964.4441 674.5325,981.8741" fill="none" id="union_fs-to-webdav_server" style="stroke:#000000;stroke-width:1;"/><polygon fill="#000000" points="680.08,984.16,673.2827,977.0328,675.4571,982.2551,670.2348,984.4295,680.08,984.16" style="stroke:#000000;stroke-width:1;"/><text fill="#000000" font-family="Verdana" font-size="13" lengthAdjust="spacing" textLength="29.7832" x="614.12" y="950.5769">uses</text></g><!--link app_logger to webdav_server--><g class="link" data-entity-1="app_logger" data-entity-2="webdav_server" data-source-line="126" data-uid="lnk52" id="link_app_logger_webdav_server"><path d="M1039.66,867.9 C1018.84,880.1 991.84,895.34 967.12,907.51 C908.3,936.47 844.376,963.0345 797.086,981.8245" fill="none" id="app_logger-to-webdav_server" style="stroke:#000000;stroke-width:1;"/><polygon fill="#000000" points="791.51,984.04,801.351,984.434,796.1566,982.1937,798.3969,976.9994,791.51,984.04" style="stroke:#000000;stroke-width:1;"/><text fill="#000000" font-family="Verdana" font-size="13" lengthAdjust="spacing" textLength="29.7832" x="899.12" y="950.5769">uses</text></g><!--link request_logger to webdav_server--><g class="link" data-entity-1="request_logger" data-entity-2="webdav_server" data-source-line="127" data-uid="lnk53" id="link_request_logger_webdav_server"><path d="M864.16,867.98 C835.83,898.4 788.3689,949.379 760.0789,979.759" fill="none" id="request_logger-to-webdav_server" style="stroke:#000000;stroke-width:1;"/><polygon fill="#000000" points="755.99,984.15,765.0507,980.2895,759.3974,980.4908,759.196,974.8376,755.99,984.15" style="stroke:#000000;stroke-width:1;"/><text fill="#000000" font-family="Verdana" font-size="13" lengthAdjust="spacing" textLength="29.7832" x="797.12" y="950.5769">uses</text></g><!--link app_logger to component_diagram--><g class="link" data-entity-1="app_logger" data-entity-2="component_diagram" data-source-line="128" data-uid="lnk54" id="link_app_logger_component_diagram"><path d="M1096.69,867.98 C1127.32,898.4 1178.7942,949.5406 1209.3642,979.9206" fill="none" id="app_logger-to-component_diagram" style="stroke:#000000;stroke-width:1;"/><polygon fill="#000000" points="1213.62,984.15,1210.0558,974.9687,1210.0735,980.6255,1204.4166,980.6431,1213.62,984.15" style="stroke:#000000;stroke-width:1;"/><text fill="#000000" font-family="Verdana" font-size="13" lengthAdjust="spacing" textLength="29.7832" x="1184.12" y="950.5769">uses</text></g><!--SRC=[dLPTJzim57tFhp1Fav18qz1Da8T9fGKqgGp4n_Q0KEKsjudNn0wsKoZJfFsM_RJzajbfciQDKs12GhttdDhd7bzVTo-46Q601fSNLvTVJx_UZeTV-kVN_GjdJyQG0ieIJAZZY3cX6UOuHHCydKUSvJGSi8Hnz3qc4chubAKPeq3boHPnHA9OdYIvdSnu27n5768-R-ETCIflo0kWhc-3R-Go0PIdYUyuLHBT9soAa_5CZCC7X0NQX0vb4f1a6MApUXgX_VtRPGRx-q5HCD3GBM2571mKy83H6OaKGKL_V_zHD053mWCq33gEuYEzjA7Y2IOXNgWD2X5LP6ZOP6qILkXk3NSy2L0iPHPqEjrZt-r-EdBzdk_wmP5tV5WISm6SuXG2zFBoMEOoBCIJEeO0tL-V3lk3szFXGmdfvIupIHWL0VfvYEQm5B_iHQOWSOWb7a_nD8PriOsiKNGJjHLlijfDO9n4X9wilXKOZcgu-7Q56cTUmSKvTXeRQZp5pmCTzYDbdj_plBW44imZ_KMOIiQNjp474RD4RT7rFC_krKJjFZUDCbE6IrkGpQ8QvSt-sCn_dq_chaKVweo-fW7gTOzxXrwl13ZWi1-hVoUQePh9Bm7NTH5M7dLHoZZOxSgfQi2rKUl0iAXAsimfm7PRr1HBbQ3xtkhJWrs3lWbZTNaMm0iPjTXGKi_NnSou6c1QZIRikiYbxxMAT1w7eUehKPv7p8HSNrx6PO2El8zTksuEZpa8EKvO59NIpPIXVWkg5x1AkHNIKa022r1pYD0PApCpnbEiDFuGnIaKFSH2E2C9w4bqIl4a0LNn32TYtKT5bICMQT9hWmTdMRswJMXKLal_VrKXJFAelQptg2wdKwsZZ8pjRTZLLQy_4FQ-MXKUcFQiBcpH2QCIRpI6qPIUM_njjwHlBxtwE0u9ZjGpNfJVo1eMD57ZfkSaaOIw3TOOdhMQdKVRvW3BPPRBcs_dg-DihEsAHMHGh-ukHctSJFqqgRdn0GqXKo7GAG7XL4-L4lcvEPXHeDzjuMncyMvU4z1qynbfMVDDf7KFxTvlcxMrj8rY-h2DLh46QtFMYXjtPitOd74xn-pqDw_LEFAIzmy0]--></g></svg>