<svg xmlns="http://www.w3.org/2000/svg" xmlns:xlink="http://www.w3.org/1999/xlink" contentStyleType="text/css" data-diagram-type="DESCRIPTION" height="466px" preserveAspectRatio="none" style="width:675px;height:466px;background:#FFFFFF;" version="1.1" viewBox="0 0 675 466" width="675px" zoomAndPan="magnify"><defs/><g><!--entity local_fs_c--><g class="entity" data-entity="local_fs_c" data-source-line="10" data-uid="ent0002" id="entity_local_fs_c"><rect fill="#ADD8E6" height="43.9688" rx="2.5" ry="2.5" style="stroke:#00008B;stroke-width:1;" width="97.0352" x="542.87" y="145.11"/><rect fill="#ADD8E6" height="10" style="stroke:#00008B;stroke-width:1;" width="15" x="619.9052" y="150.11"/><rect fill="#ADD8E6" height="2" style="stroke:#00008B;stroke-width:1;" width="4" x="617.9052" y="152.11"/><rect fill="#ADD8E6" height="2" style="stroke:#00008B;stroke-width:1;" width="4" x="617.9052" y="156.11"/><text fill="#000000" font-family="Verdana" font-size="12" lengthAdjust="spacing" textLength="57.0352" x="557.87" y="176.2487">local_fs_c</text></g><g class="entity" data-entity="GMN3" data-source-line="12" data-uid="ent0004" id="entity_GMN3"><path d="M514,11 L514,74.3984 A0,0 0 0 0 514,74.3984 L587.39,74.3984 L591.39,144.85 L595.39,74.3984 L668.7832,74.3984 A0,0 0 0 0 668.7832,74.3984 L668.7832,21 L658.7832,11 L514,11 A0,0 0 0 0 514,11" fill="#FFFFFF" style="stroke:#000000;stroke-width:1;"/><path d="M658.7832,11 L658.7832,21 L668.7832,21 L658.7832,11" fill="#FFFFFF" style="stroke:#000000;stroke-width:1;"/><text fill="#000000" font-family="Verdana" font-size="13" font-weight="bold" lengthAdjust="spacing" textLength="35.4644" x="520" y="28.0669">Type</text><text fill="#000000" font-family="Verdana" font-size="13" lengthAdjust="spacing" textLength="98.3188" x="555.4644" y="28.0669">: backend.local</text><line style="stroke:#000000;stroke-width:1;" x1="515" x2="667.7832" y1="31.1328" y2="31.1328"/><text fill="#000000" font-family="Verdana" font-size="13" font-weight="bold" lengthAdjust="spacing" textLength="47.144" x="520" y="47.1997">Config</text><text fill="#000000" font-family="Verdana" font-size="13" lengthAdjust="spacing" textLength="4.3799" x="567.144" y="47.1997">:</text><text fill="#000000" font-family="Verdana" font-size="13" lengthAdjust="spacing" textLength="88.1055" x="520" y="62.3325">&#8226; baseDir: C:/</text></g><!--entity local_fs_d--><g class="entity" data-entity="local_fs_d" data-source-line="18" data-uid="ent0006" id="entity_local_fs_d"><rect fill="#ADD8E6" height="43.9688" rx="2.5" ry="2.5" style="stroke:#00008B;stroke-width:1;" width="98.0547" x="68.36" y="145.11"/><rect fill="#ADD8E6" height="10" style="stroke:#00008B;stroke-width:1;" width="15" x="146.4147" y="150.11"/><rect fill="#ADD8E6" height="2" style="stroke:#00008B;stroke-width:1;" width="4" x="144.4147" y="152.11"/><rect fill="#ADD8E6" height="2" style="stroke:#00008B;stroke-width:1;" width="4" x="144.4147" y="156.11"/><text fill="#000000" font-family="Verdana" font-size="12" lengthAdjust="spacing" textLength="58.0547" x="83.36" y="176.2487">local_fs_d</text></g><g class="entity" data-entity="GMN7" data-source-line="20" data-uid="ent0008" id="entity_GMN7"><path d="M11,11 L11,74.3984 A0,0 0 0 0 11,74.3984 L91.71,74.3984 L112.36,144.85 L99.71,74.3984 L165.7832,74.3984 A0,0 0 0 0 165.7832,74.3984 L165.7832,21 L155.7832,11 L11,11 A0,0 0 0 0 11,11" fill="#FFFFFF" style="stroke:#000000;stroke-width:1;"/><path d="M155.7832,11 L155.7832,21 L165.7832,21 L155.7832,11" fill="#FFFFFF" style="stroke:#000000;stroke-width:1;"/><text fill="#000000" font-family="Verdana" font-size="13" font-weight="bold" lengthAdjust="spacing" textLength="35.4644" x="17" y="28.0669">Type</text><text fill="#000000" font-family="Verdana" font-size="13" lengthAdjust="spacing" textLength="98.3188" x="52.4644" y="28.0669">: backend.local</text><line style="stroke:#000000;stroke-width:1;" x1="12" x2="164.7832" y1="31.1328" y2="31.1328"/><text fill="#000000" font-family="Verdana" font-size="13" font-weight="bold" lengthAdjust="spacing" textLength="47.144" x="17" y="47.1997">Config</text><text fill="#000000" font-family="Verdana" font-size="13" lengthAdjust="spacing" textLength="4.3799" x="64.144" y="47.1997">:</text><text fill="#000000" font-family="Verdana" font-size="13" lengthAdjust="spacing" textLength="89.0386" x="17" y="62.3325">&#8226; baseDir: D:/</text></g><!--entity local_fs_z--><g class="entity" data-entity="local_fs_z" data-source-line="26" data-uid="ent0010" id="entity_local_fs_z"><rect fill="#ADD8E6" height="43.9688" rx="2.5" ry="2.5" style="stroke:#00008B;stroke-width:1;" width="96.7363" x="215.02" y="145.11"/><rect fill="#ADD8E6" height="10" style="stroke:#00008B;stroke-width:1;" width="15" x="291.7563" y="150.11"/><rect fill="#ADD8E6" height="2" style="stroke:#00008B;stroke-width:1;" width="4" x="289.7563" y="152.11"/><rect fill="#ADD8E6" height="2" style="stroke:#00008B;stroke-width:1;" width="4" x="289.7563" y="156.11"/><text fill="#000000" font-family="Verdana" font-size="12" lengthAdjust="spacing" textLength="56.7363" x="230.02" y="176.2487">local_fs_z</text></g><g class="entity" data-entity="GMN11" data-source-line="28" data-uid="ent0012" id="entity_GMN11"><path d="M201,11 L201,74.3984 A0,0 0 0 0 201,74.3984 L270.61,74.3984 L265.99,144.85 L278.61,74.3984 L355.7832,74.3984 A0,0 0 0 0 355.7832,74.3984 L355.7832,21 L345.7832,11 L201,11 A0,0 0 0 0 201,11" fill="#FFFFFF" style="stroke:#000000;stroke-width:1;"/><path d="M345.7832,11 L345.7832,21 L355.7832,21 L345.7832,11" fill="#FFFFFF" style="stroke:#000000;stroke-width:1;"/><text fill="#000000" font-family="Verdana" font-size="13" font-weight="bold" lengthAdjust="spacing" textLength="35.4644" x="207" y="28.0669">Type</text><text fill="#000000" font-family="Verdana" font-size="13" lengthAdjust="spacing" textLength="98.3188" x="242.4644" y="28.0669">: backend.local</text><line style="stroke:#000000;stroke-width:1;" x1="202" x2="354.7832" y1="31.1328" y2="31.1328"/><text fill="#000000" font-family="Verdana" font-size="13" font-weight="bold" lengthAdjust="spacing" textLength="47.144" x="207" y="47.1997">Config</text><text fill="#000000" font-family="Verdana" font-size="13" lengthAdjust="spacing" textLength="4.3799" x="254.144" y="47.1997">:</text><text fill="#000000" font-family="Verdana" font-size="13" lengthAdjust="spacing" textLength="87.9341" x="207" y="62.3325">&#8226; baseDir: Z:/</text></g><!--entity union_fs_c_d--><g class="entity" data-entity="union_fs_c_d" data-source-line="34" data-uid="ent0014" id="entity_union_fs_c_d"><rect fill="#ADD8E6" height="43.9688" rx="2.5" ry="2.5" style="stroke:#00008B;stroke-width:1;" width="116.1836" x="315.3" y="285.51"/><rect fill="#ADD8E6" height="10" style="stroke:#00008B;stroke-width:1;" width="15" x="411.4836" y="290.51"/><rect fill="#ADD8E6" height="2" style="stroke:#00008B;stroke-width:1;" width="4" x="409.4836" y="292.51"/><rect fill="#ADD8E6" height="2" style="stroke:#00008B;stroke-width:1;" width="4" x="409.4836" y="296.51"/><text fill="#000000" font-family="Verdana" font-size="12" lengthAdjust="spacing" textLength="76.1836" x="330.3" y="316.6487">union_fs_c_d</text></g><g class="entity" data-entity="GMN15" data-source-line="36" data-uid="ent0016" id="entity_GMN15"><path d="M347,135.39 L347,198.7884 A0,0 0 0 0 347,198.7884 L411.27,198.7884 L381.62,285.41 L419.27,198.7884 L507.7754,198.7884 A0,0 0 0 0 507.7754,198.7884 L507.7754,145.39 L497.7754,135.39 L347,135.39 A0,0 0 0 0 347,135.39" fill="#FFFFFF" style="stroke:#000000;stroke-width:1;"/><path d="M497.7754,135.39 L497.7754,145.39 L507.7754,145.39 L497.7754,135.39" fill="#FFFFFF" style="stroke:#000000;stroke-width:1;"/><text fill="#000000" font-family="Verdana" font-size="13" font-weight="bold" lengthAdjust="spacing" textLength="35.4644" x="353" y="152.4569">Type</text><text fill="#000000" font-family="Verdana" font-size="13" lengthAdjust="spacing" textLength="104.311" x="388.4644" y="152.4569">: backend.union</text><line style="stroke:#000000;stroke-width:1;" x1="348" x2="506.7754" y1="155.5228" y2="155.5228"/><text fill="#000000" font-family="Verdana" font-size="13" font-weight="bold" lengthAdjust="spacing" textLength="47.144" x="353" y="171.5897">Config</text><text fill="#000000" font-family="Verdana" font-size="13" lengthAdjust="spacing" textLength="4.3799" x="400.144" y="171.5897">:</text><text fill="#000000" font-family="Verdana" font-size="13" lengthAdjust="spacing" textLength="115.1465" x="353" y="186.7225">&#8226; items: [3 items]</text></g><!--entity http_server--><g class="entity" data-entity="http_server" data-source-line="42" data-uid="ent0018" id="entity_http_server"><rect fill="#ADD8E6" height="43.9688" rx="2.5" ry="2.5" style="stroke:#00008B;stroke-width:1;" width="108.6191" x="165.08" y="416.19"/><rect fill="#ADD8E6" height="10" style="stroke:#00008B;stroke-width:1;" width="15" x="253.6991" y="421.19"/><rect fill="#ADD8E6" height="2" style="stroke:#00008B;stroke-width:1;" width="4" x="251.6991" y="423.19"/><rect fill="#ADD8E6" height="2" style="stroke:#00008B;stroke-width:1;" width="4" x="251.6991" y="427.19"/><text fill="#000000" font-family="Verdana" font-size="12" lengthAdjust="spacing" textLength="68.6191" x="180.08" y="447.3287">http_server</text></g><g class="entity" data-entity="GMN19" data-source-line="44" data-uid="ent0020" id="entity_GMN19"><path d="M100.78,275.79 L100.78,339.1884 A0,0 0 0 0 100.78,339.1884 L193.41,339.1884 L214.61,415.97 L201.41,339.1884 L280.008,339.1884 A0,0 0 0 0 280.008,339.1884 L280.008,285.79 L270.008,275.79 L100.78,275.79 A0,0 0 0 0 100.78,275.79" fill="#FFFFFF" style="stroke:#000000;stroke-width:1;"/><path d="M270.008,275.79 L270.008,285.79 L280.008,285.79 L270.008,275.79" fill="#FFFFFF" style="stroke:#000000;stroke-width:1;"/><text fill="#000000" font-family="Verdana" font-size="13" font-weight="bold" lengthAdjust="spacing" textLength="35.4644" x="106.78" y="292.8569">Type</text><text fill="#000000" font-family="Verdana" font-size="13" lengthAdjust="spacing" textLength="95.0308" x="142.2444" y="292.8569">: frontend.http</text><line style="stroke:#000000;stroke-width:1;" x1="101.78" x2="279.008" y1="295.9228" y2="295.9228"/><text fill="#000000" font-family="Verdana" font-size="13" font-weight="bold" lengthAdjust="spacing" textLength="47.144" x="106.78" y="311.9897">Config</text><text fill="#000000" font-family="Verdana" font-size="13" lengthAdjust="spacing" textLength="4.3799" x="153.924" y="311.9897">:</text><text fill="#000000" font-family="Verdana" font-size="13" lengthAdjust="spacing" textLength="158.228" x="106.78" y="327.1225">&#8226; backend: union_fs_c_d</text></g><!--link local_fs_c to union_fs_c_d--><g class="link" data-entity-1="local_fs_c" data-entity-2="union_fs_c_d" data-source-line="51" data-uid="lnk22" id="link_local_fs_c_union_fs_c_d"><path d="M557.81,189.42 C516.84,215.42 453.0656,255.9144 412.0756,281.9344" fill="none" id="local_fs_c-to-union_fs_c_d" style="stroke:#000000;stroke-width:1;"/><polygon fill="#000000" points="407.01,285.15,416.7521,283.7037,411.2313,282.4704,412.4647,276.9496,407.01,285.15" style="stroke:#000000;stroke-width:1;"/><text fill="#000000" font-family="Verdana" font-size="13" lengthAdjust="spacing" textLength="29.7832" x="497.39" y="241.8569">uses</text></g><!--link local_fs_d to union_fs_c_d--><g class="link" data-entity-1="local_fs_d" data-entity-2="union_fs_c_d" data-source-line="52" data-uid="lnk23" id="link_local_fs_d_union_fs_c_d"><path d="M157.11,189.57 C205.28,215.61 280.7024,256.3758 328.7224,282.3458" fill="none" id="local_fs_d-to-union_fs_c_d" style="stroke:#000000;stroke-width:1;"/><polygon fill="#000000" points="334,285.2,327.9864,277.4002,329.602,282.8215,324.1807,284.4371,334,285.2" style="stroke:#000000;stroke-width:1;"/><text fill="#000000" font-family="Verdana" font-size="13" lengthAdjust="spacing" textLength="29.7832" x="262.39" y="241.8569">uses</text></g><!--link local_fs_z to union_fs_c_d--><g class="link" data-entity-1="local_fs_z" data-entity-2="union_fs_c_d" data-source-line="53" data-uid="lnk24" id="link_local_fs_z_union_fs_c_d"><path d="M280.34,189.42 C301.07,215.5 332.2164,254.6832 352.8764,280.6732" fill="none" id="local_fs_z-to-union_fs_c_d" style="stroke:#000000;stroke-width:1;"/><polygon fill="#000000" points="356.61,285.37,354.1408,275.8357,353.4987,281.456,347.8784,280.8138,356.61,285.37" style="stroke:#000000;stroke-width:1;"/><text fill="#000000" font-family="Verdana" font-size="13" lengthAdjust="spacing" textLength="29.7832" x="326.39" y="241.8569">uses</text></g><!--link union_fs_c_d to http_server--><g class="link" data-entity-1="union_fs_c_d" data-entity-2="http_server" data-source-line="54" data-uid="lnk25" id="link_union_fs_c_d_http_server"><path d="M347.96,329.74 C319.43,353.58 278.0147,388.1933 249.4647,412.0433" fill="none" id="union_fs_c_d-to-http_server" style="stroke:#000000;stroke-width:1;"/><polygon fill="#000000" points="244.86,415.89,254.3315,413.1898,248.6972,412.6845,249.2026,407.0502,244.86,415.89" style="stroke:#000000;stroke-width:1;"/><text fill="#000000" font-family="Verdana" font-size="13" lengthAdjust="spacing" textLength="29.7832" x="297.39" y="382.2569">uses</text></g><!--SRC=[fPB1IiD048Rl-nJJan2eOhtb8BI9Yc1RiGN1KaBCJfgboMxOtGZDoMVnqNmIDscnkvBOGs-P-Ryitmmpe9WoZX3Cfy_psTri6OMFuuUNyPGCT8O5Gfd7Z1EYjeoNiOmBU8-JxKQAYjD0v4B2QyOqMdaYYb9mv7ho1tnYcqnFygeR5fAYt8DXBBTztBtWUi5gXEjHLxpGknoXAl8H8RzDMEKYYVCeLL6oXbZ1iIHSQ0GjIX2ftGRmlEMkHC_psu6HqyisDibmsCQ1u2dR6C1KtvzV1bCOCkb3u5yHmqFpTBS5TIrejmKzoo8yQL6x5dMtHNsMnLkVHSMPuEsk3zkm6uw94tIvj42_YxdEGlcmkjb_hRjzCgtBIA7yGDdgMBLZO_TjcLIQmsni6k2_nRJElZlLqUW2GYnDYJnXgCZn8is3jyvFODvGDa9F8tKlulGQo9hpmFm0]--></g></svg>