<svg xmlns="http://www.w3.org/2000/svg" xmlns:xlink="http://www.w3.org/1999/xlink" contentStyleType="text/css" data-diagram-type="DESCRIPTION" height="807px" preserveAspectRatio="none" style="width:747px;height:807px;background:#FFFFFF;" version="1.1" viewBox="0 0 747 807" width="747px" zoomAndPan="magnify"><defs/><g><!--entity local_fs_d--><g class="entity" data-entity="local_fs_d" data-source-line="10" data-uid="ent0002" id="entity_local_fs_d"><rect fill="#ADD8E6" height="43.9688" rx="2.5" ry="2.5" style="stroke:#00008B;stroke-width:1;" width="98.0547" x="614.36" y="152.68"/><rect fill="#ADD8E6" height="10" style="stroke:#00008B;stroke-width:1;" width="15" x="692.4147" y="157.68"/><rect fill="#ADD8E6" height="2" style="stroke:#00008B;stroke-width:1;" width="4" x="690.4147" y="159.68"/><rect fill="#ADD8E6" height="2" style="stroke:#00008B;stroke-width:1;" width="4" x="690.4147" y="163.68"/><text fill="#000000" font-family="Verdana" font-size="12" lengthAdjust="spacing" textLength="58.0547" x="629.36" y="183.8187">local_fs_d</text></g><g class="entity" data-entity="GMN3" data-source-line="12" data-uid="ent0004" id="entity_GMN3"><path d="M586,11 L586,74.3984 A0,0 0 0 0 586,74.3984 L659.39,74.3984 L663.39,152.53 L667.39,74.3984 L740.7832,74.3984 A0,0 0 0 0 740.7832,74.3984 L740.7832,21 L730.7832,11 L586,11 A0,0 0 0 0 586,11" fill="#FFFFFF" style="stroke:#000000;stroke-width:1;"/><path d="M730.7832,11 L730.7832,21 L740.7832,21 L730.7832,11" fill="#FFFFFF" style="stroke:#000000;stroke-width:1;"/><text fill="#000000" font-family="Verdana" font-size="13" font-weight="bold" lengthAdjust="spacing" textLength="35.4644" x="592" y="28.0669">Type</text><text fill="#000000" font-family="Verdana" font-size="13" lengthAdjust="spacing" textLength="98.3188" x="627.4644" y="28.0669">: backend.local</text><line style="stroke:#000000;stroke-width:1;" x1="587" x2="739.7832" y1="31.1328" y2="31.1328"/><text fill="#000000" font-family="Verdana" font-size="13" font-weight="bold" lengthAdjust="spacing" textLength="47.144" x="592" y="47.1997">Config</text><text fill="#000000" font-family="Verdana" font-size="13" lengthAdjust="spacing" textLength="4.3799" x="639.144" y="47.1997">:</text><text fill="#000000" font-family="Verdana" font-size="13" lengthAdjust="spacing" textLength="89.0386" x="592" y="62.3325">&#8226; baseDir: D:/</text></g><!--entity cache_fs_backend--><g class="entity" data-entity="cache_fs_backend" data-source-line="18" data-uid="ent0006" id="entity_cache_fs_backend"><rect fill="#ADD8E6" height="43.9688" rx="2.5" ry="2.5" style="stroke:#00008B;stroke-width:1;" width="149.1367" x="460.82" y="323.34"/><rect fill="#ADD8E6" height="10" style="stroke:#00008B;stroke-width:1;" width="15" x="589.9567" y="328.34"/><rect fill="#ADD8E6" height="2" style="stroke:#00008B;stroke-width:1;" width="4" x="587.9567" y="330.34"/><rect fill="#ADD8E6" height="2" style="stroke:#00008B;stroke-width:1;" width="4" x="587.9567" y="334.34"/><text fill="#000000" font-family="Verdana" font-size="12" lengthAdjust="spacing" textLength="109.1367" x="475.82" y="354.4787">cache_fs_backend</text></g><g class="entity" data-entity="GMN7" data-source-line="20" data-uid="ent0008" id="entity_GMN7"><path d="M411.56,135.4 L411.56,213.9312 A0,0 0 0 0 411.56,213.9312 L500.57,213.9312 L530.4,323.28 L508.57,213.9312 L579.2163,213.9312 A0,0 0 0 0 579.2163,213.9312 L579.2163,145.4 L569.2163,135.4 L411.56,135.4 A0,0 0 0 0 411.56,135.4" fill="#FFFFFF" style="stroke:#000000;stroke-width:1;"/><path d="M569.2163,135.4 L569.2163,145.4 L579.2163,145.4 L569.2163,135.4" fill="#FFFFFF" style="stroke:#000000;stroke-width:1;"/><text fill="#000000" font-family="Verdana" font-size="13" font-weight="bold" lengthAdjust="spacing" textLength="35.4644" x="417.56" y="152.4669">Type</text><text fill="#000000" font-family="Verdana" font-size="13" lengthAdjust="spacing" textLength="97.957" x="453.0244" y="152.4669">: backend.alias</text><line style="stroke:#000000;stroke-width:1;" x1="412.56" x2="578.2163" y1="155.5328" y2="155.5328"/><text fill="#000000" font-family="Verdana" font-size="13" font-weight="bold" lengthAdjust="spacing" textLength="47.144" x="417.56" y="171.5997">Config</text><text fill="#000000" font-family="Verdana" font-size="13" lengthAdjust="spacing" textLength="4.3799" x="464.704" y="171.5997">:</text><text fill="#000000" font-family="Verdana" font-size="13" lengthAdjust="spacing" textLength="138.5884" x="417.56" y="186.7325">&#8226; backend: local_fs_d</text><text fill="#000000" font-family="Verdana" font-size="13" lengthAdjust="spacing" textLength="146.6563" x="417.56" y="201.8653">&#8226; subDirectory: /cache</text></g><!--entity local_fs_z--><g class="entity" data-entity="local_fs_z" data-source-line="27" data-uid="ent0010" id="entity_local_fs_z"><rect fill="#ADD8E6" height="43.9688" rx="2.5" ry="2.5" style="stroke:#00008B;stroke-width:1;" width="96.7363" x="40.02" y="323.34"/><rect fill="#ADD8E6" height="10" style="stroke:#00008B;stroke-width:1;" width="15" x="116.7563" y="328.34"/><rect fill="#ADD8E6" height="2" style="stroke:#00008B;stroke-width:1;" width="4" x="114.7563" y="330.34"/><rect fill="#ADD8E6" height="2" style="stroke:#00008B;stroke-width:1;" width="4" x="114.7563" y="334.34"/><text fill="#000000" font-family="Verdana" font-size="12" lengthAdjust="spacing" textLength="56.7363" x="55.02" y="354.4787">local_fs_z</text></g><g class="entity" data-entity="GMN11" data-source-line="29" data-uid="ent0012" id="entity_GMN11"><path d="M11,142.96 L11,206.3584 A0,0 0 0 0 11,206.3584 L84.39,206.3584 L88.39,323.19 L92.39,206.3584 L165.7832,206.3584 A0,0 0 0 0 165.7832,206.3584 L165.7832,152.96 L155.7832,142.96 L11,142.96 A0,0 0 0 0 11,142.96" fill="#FFFFFF" style="stroke:#000000;stroke-width:1;"/><path d="M155.7832,142.96 L155.7832,152.96 L165.7832,152.96 L155.7832,142.96" fill="#FFFFFF" style="stroke:#000000;stroke-width:1;"/><text fill="#000000" font-family="Verdana" font-size="13" font-weight="bold" lengthAdjust="spacing" textLength="35.4644" x="17" y="160.0269">Type</text><text fill="#000000" font-family="Verdana" font-size="13" lengthAdjust="spacing" textLength="98.3188" x="52.4644" y="160.0269">: backend.local</text><line style="stroke:#000000;stroke-width:1;" x1="12" x2="164.7832" y1="163.0928" y2="163.0928"/><text fill="#000000" font-family="Verdana" font-size="13" font-weight="bold" lengthAdjust="spacing" textLength="47.144" x="17" y="179.1597">Config</text><text fill="#000000" font-family="Verdana" font-size="13" lengthAdjust="spacing" textLength="4.3799" x="64.144" y="179.1597">:</text><text fill="#000000" font-family="Verdana" font-size="13" lengthAdjust="spacing" textLength="87.9341" x="17" y="194.2925">&#8226; baseDir: Z:/</text></g><!--entity cache_fs--><g class="entity" data-entity="cache_fs" data-source-line="35" data-uid="ent0014" id="entity_cache_fs"><rect fill="#ADD8E6" height="43.9688" rx="2.5" ry="2.5" style="stroke:#00008B;stroke-width:1;" width="92.0137" x="188.38" y="486.44"/><rect fill="#ADD8E6" height="10" style="stroke:#00008B;stroke-width:1;" width="15" x="260.3937" y="491.44"/><rect fill="#ADD8E6" height="2" style="stroke:#00008B;stroke-width:1;" width="4" x="258.3937" y="493.44"/><rect fill="#ADD8E6" height="2" style="stroke:#00008B;stroke-width:1;" width="4" x="258.3937" y="497.44"/><text fill="#000000" font-family="Verdana" font-size="12" lengthAdjust="spacing" textLength="52.0137" x="203.38" y="517.5787">cache_fs</text></g><g class="entity" data-entity="GMN15" data-source-line="37" data-uid="ent0016" id="entity_GMN15"><path d="M171.35,290.93 L171.35,399.7269 A0,0 0 0 0 171.35,399.7269 L273.08,399.7269 L242.83,486.19 L281.08,399.7269 L425.4423,399.7269 A0,0 0 0 0 425.4423,399.7269 L425.4423,300.93 L415.4423,290.93 L171.35,290.93 A0,0 0 0 0 171.35,290.93" fill="#FFFFFF" style="stroke:#000000;stroke-width:1;"/><path d="M415.4423,290.93 L415.4423,300.93 L425.4423,300.93 L415.4423,290.93" fill="#FFFFFF" style="stroke:#000000;stroke-width:1;"/><text fill="#000000" font-family="Verdana" font-size="13" font-weight="bold" lengthAdjust="spacing" textLength="35.4644" x="177.35" y="307.9969">Type</text><text fill="#000000" font-family="Verdana" font-size="13" lengthAdjust="spacing" textLength="147.5195" x="212.8144" y="307.9969">: backend.block_cache</text><line style="stroke:#000000;stroke-width:1;" x1="172.35" x2="424.4423" y1="311.0628" y2="311.0628"/><text fill="#000000" font-family="Verdana" font-size="13" font-weight="bold" lengthAdjust="spacing" textLength="47.144" x="177.35" y="327.1297">Config</text><text fill="#000000" font-family="Verdana" font-size="13" lengthAdjust="spacing" textLength="4.3799" x="224.494" y="327.1297">:</text><text fill="#000000" font-family="Verdana" font-size="13" lengthAdjust="spacing" textLength="174.8398" x="177.35" y="342.2625">&#8226; originBackend: local_fs_z</text><text fill="#000000" font-family="Verdana" font-size="13" lengthAdjust="spacing" textLength="233.0923" x="177.35" y="357.3953">&#8226; cacheBackend: cache_fs_backend</text><text fill="#000000" font-family="Verdana" font-size="13" lengthAdjust="spacing" textLength="82.1577" x="177.35" y="372.5281">&#8226; cacheDir: /</text><text fill="#000000" font-family="Verdana" font-size="13" lengthAdjust="spacing" textLength="139.3882" x="177.35" y="387.661">&#8226; blockSize: 4194304</text></g><!--entity union_fs--><g class="entity" data-entity="union_fs" data-source-line="46" data-uid="ent0018" id="entity_union_fs"><rect fill="#ADD8E6" height="43.9688" rx="2.5" ry="2.5" style="stroke:#00008B;stroke-width:1;" width="89.9688" x="350.41" y="626.84"/><rect fill="#ADD8E6" height="10" style="stroke:#00008B;stroke-width:1;" width="15" x="420.3788" y="631.84"/><rect fill="#ADD8E6" height="2" style="stroke:#00008B;stroke-width:1;" width="4" x="418.3788" y="633.84"/><rect fill="#ADD8E6" height="2" style="stroke:#00008B;stroke-width:1;" width="4" x="418.3788" y="637.84"/><text fill="#000000" font-family="Verdana" font-size="12" lengthAdjust="spacing" textLength="49.9688" x="365.41" y="657.9787">union_fs</text></g><g class="entity" data-entity="GMN19" data-source-line="48" data-uid="ent0020" id="entity_GMN19"><path d="M315,476.72 L315,540.1184 A0,0 0 0 0 315,540.1184 L391.39,540.1184 L395.39,626.74 L399.39,540.1184 L475.7754,540.1184 A0,0 0 0 0 475.7754,540.1184 L475.7754,486.72 L465.7754,476.72 L315,476.72 A0,0 0 0 0 315,476.72" fill="#FFFFFF" style="stroke:#000000;stroke-width:1;"/><path d="M465.7754,476.72 L465.7754,486.72 L475.7754,486.72 L465.7754,476.72" fill="#FFFFFF" style="stroke:#000000;stroke-width:1;"/><text fill="#000000" font-family="Verdana" font-size="13" font-weight="bold" lengthAdjust="spacing" textLength="35.4644" x="321" y="493.7869">Type</text><text fill="#000000" font-family="Verdana" font-size="13" lengthAdjust="spacing" textLength="104.311" x="356.4644" y="493.7869">: backend.union</text><line style="stroke:#000000;stroke-width:1;" x1="316" x2="474.7754" y1="496.8528" y2="496.8528"/><text fill="#000000" font-family="Verdana" font-size="13" font-weight="bold" lengthAdjust="spacing" textLength="47.144" x="321" y="512.9197">Config</text><text fill="#000000" font-family="Verdana" font-size="13" lengthAdjust="spacing" textLength="4.3799" x="368.144" y="512.9197">:</text><text fill="#000000" font-family="Verdana" font-size="13" lengthAdjust="spacing" textLength="115.1465" x="321" y="528.0525">&#8226; items: [4 items]</text></g><!--entity http_server--><g class="entity" data-entity="http_server" data-source-line="54" data-uid="ent0022" id="entity_http_server"><rect fill="#ADD8E6" height="43.9688" rx="2.5" ry="2.5" style="stroke:#00008B;stroke-width:1;" width="108.6191" x="214.08" y="757.52"/><rect fill="#ADD8E6" height="10" style="stroke:#00008B;stroke-width:1;" width="15" x="302.6991" y="762.52"/><rect fill="#ADD8E6" height="2" style="stroke:#00008B;stroke-width:1;" width="4" x="300.6991" y="764.52"/><rect fill="#ADD8E6" height="2" style="stroke:#00008B;stroke-width:1;" width="4" x="300.6991" y="768.52"/><text fill="#000000" font-family="Verdana" font-size="12" lengthAdjust="spacing" textLength="68.6191" x="229.08" y="788.6587">http_server</text></g><g class="entity" data-entity="GMN23" data-source-line="56" data-uid="ent0024" id="entity_GMN23"><path d="M163.64,617.12 L163.64,680.5184 A0,0 0 0 0 163.64,680.5184 L242.41,680.5184 L263.61,757.3 L250.41,680.5184 L315.1351,680.5184 A0,0 0 0 0 315.1351,680.5184 L315.1351,627.12 L305.1351,617.12 L163.64,617.12 A0,0 0 0 0 163.64,617.12" fill="#FFFFFF" style="stroke:#000000;stroke-width:1;"/><path d="M305.1351,617.12 L305.1351,627.12 L315.1351,627.12 L305.1351,617.12" fill="#FFFFFF" style="stroke:#000000;stroke-width:1;"/><text fill="#000000" font-family="Verdana" font-size="13" font-weight="bold" lengthAdjust="spacing" textLength="35.4644" x="169.64" y="634.1869">Type</text><text fill="#000000" font-family="Verdana" font-size="13" lengthAdjust="spacing" textLength="95.0308" x="205.1044" y="634.1869">: frontend.http</text><line style="stroke:#000000;stroke-width:1;" x1="164.64" x2="314.1351" y1="637.2528" y2="637.2528"/><text fill="#000000" font-family="Verdana" font-size="13" font-weight="bold" lengthAdjust="spacing" textLength="47.144" x="169.64" y="653.3197">Config</text><text fill="#000000" font-family="Verdana" font-size="13" lengthAdjust="spacing" textLength="4.3799" x="216.784" y="653.3197">:</text><text fill="#000000" font-family="Verdana" font-size="13" lengthAdjust="spacing" textLength="129.8286" x="169.64" y="668.4525">&#8226; backend: union_fs</text></g><!--link local_fs_d to cache_fs_backend--><g class="link" data-entity-1="local_fs_d" data-entity-2="cache_fs_backend" data-source-line="63" data-uid="lnk26" id="link_local_fs_d_cache_fs_backend"><path d="M644.71,197.13 C633.36,210.39 618.72,227.89 606.39,243.93 C585.83,270.66 566.9759,297.6798 552.9759,318.2498" fill="none" id="local_fs_d-to-cache_fs_backend" style="stroke:#000000;stroke-width:1;"/><polygon fill="#000000" points="549.6,323.21,557.9706,318.0204,552.4133,319.0765,551.3571,313.5191,549.6,323.21" style="stroke:#000000;stroke-width:1;"/><text fill="#000000" font-family="Verdana" font-size="13" lengthAdjust="spacing" textLength="29.7832" x="607.39" y="256.9969">uses</text></g><!--link local_fs_z to cache_fs--><g class="link" data-entity-1="local_fs_z" data-entity-2="cache_fs" data-source-line="64" data-uid="lnk27" id="link_local_fs_z_cache_fs"><path d="M107.78,367.72 C135.7,398.53 182.9206,450.6343 210.8906,481.4943" fill="none" id="local_fs_z-to-cache_fs" style="stroke:#000000;stroke-width:1;"/><polygon fill="#000000" points="214.92,485.94,211.8398,476.5852,211.5622,482.2353,205.9122,481.9577,214.92,485.94" style="stroke:#000000;stroke-width:1;"/><text fill="#000000" font-family="Verdana" font-size="13" lengthAdjust="spacing" textLength="29.7832" x="180.39" y="442.7869">uses</text></g><!--link cache_fs_backend to cache_fs--><g class="link" data-entity-1="cache_fs_backend" data-entity-2="cache_fs" data-source-line="65" data-uid="lnk28" id="link_cache_fs_backend_cache_fs"><path d="M499.36,367.8 C482.48,377.72 462.02,389.53 443.39,399.72 C386.64,430.79 325.4135,461.9807 282.9135,483.2907" fill="none" id="cache_fs_backend-to-cache_fs" style="stroke:#000000;stroke-width:1;"/><polygon fill="#000000" points="277.55,485.98,287.3882,485.5217,282.0196,483.7389,283.8024,478.3703,277.55,485.98" style="stroke:#000000;stroke-width:1;"/><text fill="#000000" font-family="Verdana" font-size="13" lengthAdjust="spacing" textLength="29.7832" x="387.39" y="442.7869">uses</text></g><!--link local_fs_d to union_fs--><g class="link" data-entity-1="local_fs_d" data-entity-2="union_fs" data-source-line="66" data-uid="lnk29" id="link_local_fs_d_union_fs"><path d="M662.83,196.92 C660.15,257.68 644.65,434.54 555.39,540.12 C523.5,577.84 480.5505,605.0385 445.3705,623.6985" fill="none" id="local_fs_d-to-union_fs" style="stroke:#000000;stroke-width:1;"/><polygon fill="#000000" points="440.07,626.51,449.8951,625.8265,444.4871,624.1671,446.1465,618.7591,440.07,626.51" style="stroke:#000000;stroke-width:1;"/><text fill="#000000" font-family="Verdana" font-size="13" lengthAdjust="spacing" textLength="29.7832" x="618.39" y="442.7869">uses</text></g><!--link local_fs_z to union_fs--><g class="link" data-entity-1="local_fs_z" data-entity-2="union_fs" data-source-line="67" data-uid="lnk30" id="link_local_fs_z_union_fs"><path d="M88.07,367.53 C88.61,406.53 95.25,490.22 139.39,540.12 C200.58,609.29 247.94,579.76 332.39,617.12 C338.96,620.03 340.4243,620.6373 347.1343,623.8373" fill="none" id="local_fs_z-to-union_fs" style="stroke:#000000;stroke-width:1;"/><polygon fill="#000000" points="352.55,626.42,346.1483,618.9355,348.0369,624.2677,342.7047,626.1563,352.55,626.42" style="stroke:#000000;stroke-width:1;"/><text fill="#000000" font-family="Verdana" font-size="13" lengthAdjust="spacing" textLength="29.7832" x="140.39" y="512.9869">uses</text></g><!--link cache_fs_backend to union_fs--><g class="link" data-entity-1="cache_fs_backend" data-entity-2="union_fs" data-source-line="68" data-uid="lnk31" id="link_cache_fs_backend_union_fs"><path d="M534.37,367.61 C531.84,404.63 523.12,482.44 493.39,540.12 C475.56,574.73 448.2118,602.6921 425.6618,622.6621" fill="none" id="cache_fs_backend-to-union_fs" style="stroke:#000000;stroke-width:1;"/><polygon fill="#000000" points="421.17,626.64,430.5596,623.6677,424.9132,623.3251,425.2558,617.6786,421.17,626.64" style="stroke:#000000;stroke-width:1;"/><text fill="#000000" font-family="Verdana" font-size="13" lengthAdjust="spacing" textLength="29.7832" x="517.39" y="512.9869">uses</text></g><!--link cache_fs to union_fs--><g class="link" data-entity-1="cache_fs" data-entity-2="union_fs" data-source-line="69" data-uid="lnk32" id="link_cache_fs_union_fs"><path d="M259.2,530.75 C289.45,556.75 335.74,596.5488 366.01,622.5688" fill="none" id="cache_fs-to-union_fs" style="stroke:#000000;stroke-width:1;"/><polygon fill="#000000" points="370.56,626.48,366.3424,617.5799,366.7683,623.2207,361.1275,623.6466,370.56,626.48" style="stroke:#000000;stroke-width:1;"/><text fill="#000000" font-family="Verdana" font-size="13" lengthAdjust="spacing" textLength="29.7832" x="326.39" y="583.1869">uses</text></g><!--link union_fs to http_server--><g class="link" data-entity-1="union_fs" data-entity-2="http_server" data-source-line="70" data-uid="lnk33" id="link_union_fs_http_server"><path d="M374.42,671.07 C350.89,694.91 317.1557,729.1006 293.6057,752.9506" fill="none" id="union_fs-to-http_server" style="stroke:#000000;stroke-width:1;"/><polygon fill="#000000" points="289.39,757.22,298.5598,753.6264,292.9031,753.6622,292.8673,748.0054,289.39,757.22" style="stroke:#000000;stroke-width:1;"/><text fill="#000000" font-family="Verdana" font-size="13" lengthAdjust="spacing" textLength="29.7832" x="333.39" y="723.5869">uses</text></g><!--SRC=[fLDTIyCm57tlhxXx4WPpVkp5FWXkLH6SYXC4HKhMtgvXRLAIL5YV_2t-D7-9QRPsxPQgu5llFIVtddEQz4ACA4EOt4yVxkykxvvyx-RY-l5YwlHKZ2b2bX3A74SkASk882dCIR1S29wpSC8JBk0vfWeRUC3JZ3DaQhn3lAMBM8sJt4xc8aIn9df4BBjuLvof6IqGZaziy4oj4eGyJKuSfsx2Qy83alYHzCCt81AsfSEuGb0y0nursm3z_jCgmtxVDOQHXOS6riXWOE09Pn5TQ8AklZu-DKsYHuKBdZjqD1_AqIqL0GbYBETl9XejkysMeZtGfeiabCYVT1cQsxPN8ZAVQy4OA2vMBWpDChlo-cZHpg-mvrVyAx-Nt_9hvMRDoxf_hWKi_RNBJXLSq0LbuxtCYWrkZjUmvV_K9EDbM9ahTvVtreNHyTdez6XajvWpobbbiIfQ5kkcpQ81kytfXvfA5rv7wwytkuPOgSoNADvH61cDkgMasM-AYOH-ewMQal27Uraxsgev00ypNI8BA4fdUtFriFEzr47Fa4rQqQ9LyDun6sbdLQMjOyKkR5tHHRA2TLs2ZOGt-3S0]--></g></svg>