<svg xmlns="http://www.w3.org/2000/svg" xmlns:xlink="http://www.w3.org/1999/xlink" contentStyleType="text/css" data-diagram-type="DESCRIPTION" height="883px" preserveAspectRatio="none" style="width:789px;height:883px;background:#FFFFFF;" version="1.1" viewBox="0 0 789 883" width="789px" zoomAndPan="magnify"><defs/><g><!--entity local_fs_d--><g class="entity" data-entity="local_fs_d" data-source-line="10" data-uid="ent0002" id="entity_local_fs_d"><rect fill="#ADD8E6" height="43.9688" rx="2.5" ry="2.5" style="stroke:#00008B;stroke-width:1;" width="98.0547" x="613.36" y="175.38"/><rect fill="#ADD8E6" height="10" style="stroke:#00008B;stroke-width:1;" width="15" x="691.4147" y="180.38"/><rect fill="#ADD8E6" height="2" style="stroke:#00008B;stroke-width:1;" width="4" x="689.4147" y="182.38"/><rect fill="#ADD8E6" height="2" style="stroke:#00008B;stroke-width:1;" width="4" x="689.4147" y="186.38"/><text fill="#000000" font-family="Verdana" font-size="12" lengthAdjust="spacing" textLength="58.0547" x="628.36" y="206.5187">local_fs_d</text></g><g class="entity" data-entity="GMN3" data-source-line="12" data-uid="ent0004" id="entity_GMN3"><path d="M585,11 L585,74.3984 A0,0 0 0 0 585,74.3984 L658.39,74.3984 L662.39,175.32 L666.39,74.3984 L739.7832,74.3984 A0,0 0 0 0 739.7832,74.3984 L739.7832,21 L729.7832,11 L585,11 A0,0 0 0 0 585,11" fill="#FFFFFF" style="stroke:#000000;stroke-width:1;"/><path d="M729.7832,11 L729.7832,21 L739.7832,21 L729.7832,11" fill="#FFFFFF" style="stroke:#000000;stroke-width:1;"/><text fill="#000000" font-family="Verdana" font-size="13" font-weight="bold" lengthAdjust="spacing" textLength="35.4644" x="591" y="28.0669">Type</text><text fill="#000000" font-family="Verdana" font-size="13" lengthAdjust="spacing" textLength="98.3188" x="626.4644" y="28.0669">: backend.local</text><line style="stroke:#000000;stroke-width:1;" x1="586" x2="738.7832" y1="31.1328" y2="31.1328"/><text fill="#000000" font-family="Verdana" font-size="13" font-weight="bold" lengthAdjust="spacing" textLength="47.144" x="591" y="47.1997">Config</text><text fill="#000000" font-family="Verdana" font-size="13" lengthAdjust="spacing" textLength="4.3799" x="638.144" y="47.1997">:</text><text fill="#000000" font-family="Verdana" font-size="13" lengthAdjust="spacing" textLength="89.0386" x="591" y="62.3325">&#8226; baseDir: D:/</text></g><!--entity local_fs_z--><g class="entity" data-entity="local_fs_z" data-source-line="18" data-uid="ent0006" id="entity_local_fs_z"><rect fill="#ADD8E6" height="43.9688" rx="2.5" ry="2.5" style="stroke:#00008B;stroke-width:1;" width="96.7363" x="40.02" y="175.38"/><rect fill="#ADD8E6" height="10" style="stroke:#00008B;stroke-width:1;" width="15" x="116.7563" y="180.38"/><rect fill="#ADD8E6" height="2" style="stroke:#00008B;stroke-width:1;" width="4" x="114.7563" y="182.38"/><rect fill="#ADD8E6" height="2" style="stroke:#00008B;stroke-width:1;" width="4" x="114.7563" y="186.38"/><text fill="#000000" font-family="Verdana" font-size="12" lengthAdjust="spacing" textLength="56.7363" x="55.02" y="206.5187">local_fs_z</text></g><g class="entity" data-entity="GMN7" data-source-line="20" data-uid="ent0008" id="entity_GMN7"><path d="M11,11 L11,74.3984 A0,0 0 0 0 11,74.3984 L84.39,74.3984 L88.39,175.32 L92.39,74.3984 L165.7832,74.3984 A0,0 0 0 0 165.7832,74.3984 L165.7832,21 L155.7832,11 L11,11 A0,0 0 0 0 11,11" fill="#FFFFFF" style="stroke:#000000;stroke-width:1;"/><path d="M155.7832,11 L155.7832,21 L165.7832,21 L155.7832,11" fill="#FFFFFF" style="stroke:#000000;stroke-width:1;"/><text fill="#000000" font-family="Verdana" font-size="13" font-weight="bold" lengthAdjust="spacing" textLength="35.4644" x="17" y="28.0669">Type</text><text fill="#000000" font-family="Verdana" font-size="13" lengthAdjust="spacing" textLength="98.3188" x="52.4644" y="28.0669">: backend.local</text><line style="stroke:#000000;stroke-width:1;" x1="12" x2="164.7832" y1="31.1328" y2="31.1328"/><text fill="#000000" font-family="Verdana" font-size="13" font-weight="bold" lengthAdjust="spacing" textLength="47.144" x="17" y="47.1997">Config</text><text fill="#000000" font-family="Verdana" font-size="13" lengthAdjust="spacing" textLength="4.3799" x="64.144" y="47.1997">:</text><text fill="#000000" font-family="Verdana" font-size="13" lengthAdjust="spacing" textLength="87.9341" x="17" y="62.3325">&#8226; baseDir: Z:/</text></g><!--entity metadata_cache_fs--><g class="entity" data-entity="metadata_cache_fs" data-source-line="26" data-uid="ent0010" id="entity_metadata_cache_fs"><rect fill="#ADD8E6" height="43.9688" rx="2.5" ry="2.5" style="stroke:#00008B;stroke-width:1;" width="156.1738" x="141.3" y="383.88"/><rect fill="#ADD8E6" height="10" style="stroke:#00008B;stroke-width:1;" width="15" x="277.4738" y="388.88"/><rect fill="#ADD8E6" height="2" style="stroke:#00008B;stroke-width:1;" width="4" x="275.4738" y="390.88"/><rect fill="#ADD8E6" height="2" style="stroke:#00008B;stroke-width:1;" width="4" x="275.4738" y="394.88"/><text fill="#000000" font-family="Verdana" font-size="12" lengthAdjust="spacing" textLength="116.1738" x="156.3" y="415.0187">metadata_cache_fs</text></g><g class="entity" data-entity="GMN11" data-source-line="28" data-uid="ent0012" id="entity_GMN11"><path d="M172.14,135.4 L172.14,259.3297 A0,0 0 0 0 172.14,259.3297 L263.88,259.3297 L226.54,383.47 L271.88,259.3297 L404.6376,259.3297 A0,0 0 0 0 404.6376,259.3297 L404.6376,145.4 L394.6376,135.4 L172.14,135.4 A0,0 0 0 0 172.14,135.4" fill="#FFFFFF" style="stroke:#000000;stroke-width:1;"/><path d="M394.6376,135.4 L394.6376,145.4 L404.6376,145.4 L394.6376,135.4" fill="#FFFFFF" style="stroke:#000000;stroke-width:1;"/><text fill="#000000" font-family="Verdana" font-size="13" font-weight="bold" lengthAdjust="spacing" textLength="35.4644" x="178.14" y="152.4669">Type</text><text fill="#000000" font-family="Verdana" font-size="13" lengthAdjust="spacing" textLength="176.0332" x="213.6044" y="152.4669">: backend.metadata_cache</text><line style="stroke:#000000;stroke-width:1;" x1="173.14" x2="403.6376" y1="155.5328" y2="155.5328"/><text fill="#000000" font-family="Verdana" font-size="13" font-weight="bold" lengthAdjust="spacing" textLength="47.144" x="178.14" y="171.5997">Config</text><text fill="#000000" font-family="Verdana" font-size="13" lengthAdjust="spacing" textLength="4.3799" x="225.284" y="171.5997">:</text><text fill="#000000" font-family="Verdana" font-size="13" lengthAdjust="spacing" textLength="174.8398" x="178.14" y="186.7325">&#8226; originBackend: local_fs_z</text><text fill="#000000" font-family="Verdana" font-size="13" lengthAdjust="spacing" textLength="177.7534" x="178.14" y="201.8653">&#8226; cacheBackend: local_fs_d</text><text fill="#000000" font-family="Verdana" font-size="13" lengthAdjust="spacing" textLength="190.1631" x="178.14" y="216.9981">&#8226; cacheDir: /metadata_cache</text><text fill="#000000" font-family="Verdana" font-size="13" lengthAdjust="spacing" textLength="155.5303" x="178.14" y="232.131">&#8226; maxCacheAge: 2400h</text><text fill="#000000" font-family="Verdana" font-size="13" lengthAdjust="spacing" textLength="211.123" x="178.14" y="247.2638">&#8226; largeDirectoryThreshold: 1000</text></g><!--entity block_cache_fs--><g class="entity" data-entity="block_cache_fs" data-source-line="38" data-uid="ent0014" id="entity_block_cache_fs"><rect fill="#ADD8E6" height="43.9688" rx="2.5" ry="2.5" style="stroke:#00008B;stroke-width:1;" width="129.8535" x="348.46" y="562.11"/><rect fill="#ADD8E6" height="10" style="stroke:#00008B;stroke-width:1;" width="15" x="458.3135" y="567.11"/><rect fill="#ADD8E6" height="2" style="stroke:#00008B;stroke-width:1;" width="4" x="456.3135" y="569.11"/><rect fill="#ADD8E6" height="2" style="stroke:#00008B;stroke-width:1;" width="4" x="456.3135" y="573.11"/><text fill="#000000" font-family="Verdana" font-size="12" lengthAdjust="spacing" textLength="89.8535" x="363.46" y="593.2487">block_cache_fs</text></g><g class="entity" data-entity="GMN15" data-source-line="40" data-uid="ent0016" id="entity_GMN15"><path d="M332.28,336.33 L332.28,475.3925 L592.5105,475.3925 L592.5105,346.33 L582.5105,336.33 L332.28,336.33" fill="#FFFFFF" style="stroke:#000000;stroke-width:1;"/><path d="M582.5105,336.33 L582.5105,346.33 L592.5105,346.33 L582.5105,336.33" fill="#FFFFFF" style="stroke:#000000;stroke-width:1;"/><text fill="#000000" font-family="Verdana" font-size="13" font-weight="bold" lengthAdjust="spacing" textLength="35.4644" x="338.28" y="353.3969">Type</text><text fill="#000000" font-family="Verdana" font-size="13" lengthAdjust="spacing" textLength="147.5195" x="373.7444" y="353.3969">: backend.block_cache</text><line style="stroke:#000000;stroke-width:1;" x1="333.28" x2="591.5105" y1="356.4628" y2="356.4628"/><text fill="#000000" font-family="Verdana" font-size="13" font-weight="bold" lengthAdjust="spacing" textLength="47.144" x="338.28" y="372.5297">Config</text><text fill="#000000" font-family="Verdana" font-size="13" lengthAdjust="spacing" textLength="4.3799" x="385.424" y="372.5297">:</text><text fill="#000000" font-family="Verdana" font-size="13" lengthAdjust="spacing" textLength="239.2305" x="338.28" y="387.6625">&#8226; originBackend: metadata_cache_fs</text><text fill="#000000" font-family="Verdana" font-size="13" lengthAdjust="spacing" textLength="177.7534" x="338.28" y="402.7953">&#8226; cacheBackend: local_fs_d</text><text fill="#000000" font-family="Verdana" font-size="13" lengthAdjust="spacing" textLength="161.6494" x="338.28" y="417.9281">&#8226; cacheDir: /block_cache</text><text fill="#000000" font-family="Verdana" font-size="13" lengthAdjust="spacing" textLength="139.3882" x="338.28" y="433.061">&#8226; blockSize: 4194304</text><text fill="#000000" font-family="Verdana" font-size="13" lengthAdjust="spacing" textLength="141.4258" x="338.28" y="448.1938">&#8226; readAheadBlocks: 2</text><text fill="#000000" font-family="Verdana" font-size="13" lengthAdjust="spacing" textLength="103.2827" x="338.28" y="463.3266">&#8226; ... and 1 more</text></g><!--entity union_fs--><g class="entity" data-entity="union_fs" data-source-line="51" data-uid="ent0018" id="entity_union_fs"><rect fill="#ADD8E6" height="43.9688" rx="2.5" ry="2.5" style="stroke:#00008B;stroke-width:1;" width="89.9688" x="368.41" y="702.51"/><rect fill="#ADD8E6" height="10" style="stroke:#00008B;stroke-width:1;" width="15" x="438.3788" y="707.51"/><rect fill="#ADD8E6" height="2" style="stroke:#00008B;stroke-width:1;" width="4" x="436.3788" y="709.51"/><rect fill="#ADD8E6" height="2" style="stroke:#00008B;stroke-width:1;" width="4" x="436.3788" y="713.51"/><text fill="#000000" font-family="Verdana" font-size="12" lengthAdjust="spacing" textLength="49.9688" x="383.41" y="733.6487">union_fs</text></g><g class="entity" data-entity="GMN19" data-source-line="53" data-uid="ent0020" id="entity_GMN19"><path d="M513,552.39 L513,615.7884 A0,0 0 0 0 513,615.7884 L549,615.7884 L441.08,702.21 L557,615.7884 L673.7754,615.7884 A0,0 0 0 0 673.7754,615.7884 L673.7754,562.39 L663.7754,552.39 L513,552.39 A0,0 0 0 0 513,552.39" fill="#FFFFFF" style="stroke:#000000;stroke-width:1;"/><path d="M663.7754,552.39 L663.7754,562.39 L673.7754,562.39 L663.7754,552.39" fill="#FFFFFF" style="stroke:#000000;stroke-width:1;"/><text fill="#000000" font-family="Verdana" font-size="13" font-weight="bold" lengthAdjust="spacing" textLength="35.4644" x="519" y="569.4569">Type</text><text fill="#000000" font-family="Verdana" font-size="13" lengthAdjust="spacing" textLength="104.311" x="554.4644" y="569.4569">: backend.union</text><line style="stroke:#000000;stroke-width:1;" x1="514" x2="672.7754" y1="572.5228" y2="572.5228"/><text fill="#000000" font-family="Verdana" font-size="13" font-weight="bold" lengthAdjust="spacing" textLength="47.144" x="519" y="588.5897">Config</text><text fill="#000000" font-family="Verdana" font-size="13" lengthAdjust="spacing" textLength="4.3799" x="566.144" y="588.5897">:</text><text fill="#000000" font-family="Verdana" font-size="13" lengthAdjust="spacing" textLength="115.1465" x="519" y="603.7225">&#8226; items: [4 items]</text></g><!--entity http_server--><g class="entity" data-entity="http_server" data-source-line="59" data-uid="ent0022" id="entity_http_server"><rect fill="#ADD8E6" height="43.9688" rx="2.5" ry="2.5" style="stroke:#00008B;stroke-width:1;" width="108.6191" x="232.08" y="833.19"/><rect fill="#ADD8E6" height="10" style="stroke:#00008B;stroke-width:1;" width="15" x="320.6991" y="838.19"/><rect fill="#ADD8E6" height="2" style="stroke:#00008B;stroke-width:1;" width="4" x="318.6991" y="840.19"/><rect fill="#ADD8E6" height="2" style="stroke:#00008B;stroke-width:1;" width="4" x="318.6991" y="844.19"/><text fill="#000000" font-family="Verdana" font-size="12" lengthAdjust="spacing" textLength="68.6191" x="247.08" y="864.3287">http_server</text></g><g class="entity" data-entity="GMN23" data-source-line="61" data-uid="ent0024" id="entity_GMN23"><path d="M181.64,692.79 L181.64,756.1884 A0,0 0 0 0 181.64,756.1884 L260.41,756.1884 L281.61,832.97 L268.41,756.1884 L333.1351,756.1884 A0,0 0 0 0 333.1351,756.1884 L333.1351,702.79 L323.1351,692.79 L181.64,692.79 A0,0 0 0 0 181.64,692.79" fill="#FFFFFF" style="stroke:#000000;stroke-width:1;"/><path d="M323.1351,692.79 L323.1351,702.79 L333.1351,702.79 L323.1351,692.79" fill="#FFFFFF" style="stroke:#000000;stroke-width:1;"/><text fill="#000000" font-family="Verdana" font-size="13" font-weight="bold" lengthAdjust="spacing" textLength="35.4644" x="187.64" y="709.8569">Type</text><text fill="#000000" font-family="Verdana" font-size="13" lengthAdjust="spacing" textLength="95.0308" x="223.1044" y="709.8569">: frontend.http</text><line style="stroke:#000000;stroke-width:1;" x1="182.64" x2="332.1351" y1="712.9228" y2="712.9228"/><text fill="#000000" font-family="Verdana" font-size="13" font-weight="bold" lengthAdjust="spacing" textLength="47.144" x="187.64" y="728.9897">Config</text><text fill="#000000" font-family="Verdana" font-size="13" lengthAdjust="spacing" textLength="4.3799" x="234.784" y="728.9897">:</text><text fill="#000000" font-family="Verdana" font-size="13" lengthAdjust="spacing" textLength="129.8286" x="187.64" y="744.1225">&#8226; backend: union_fs</text></g><!--link GMN15 to block_cache_fs--><g class="link" data-entity-1="GMN15" data-entity-2="block_cache_fs" data-source-line="40" data-uid="lnk17" id="link_GMN15_block_cache_fs"><path d="M445.95,475.81 C442.04,491.2 437.74,507.4 433.39,522.39 C429.56,535.61 424.75,550.26 420.81,561.86" fill="none" id="GMN15-block_cache_fs" style="stroke:#000000;stroke-width:1;stroke-dasharray:7,7;"/></g><!--link local_fs_z to metadata_cache_fs--><g class="link" data-entity-1="local_fs_z" data-entity-2="metadata_cache_fs" data-source-line="68" data-uid="lnk26" id="link_local_fs_z_metadata_cache_fs"><path d="M101.92,219.69 C127.09,259.36 177.6164,339.0032 202.7264,378.5932" fill="none" id="local_fs_z-to-metadata_cache_fs" style="stroke:#000000;stroke-width:1;"/><polygon fill="#000000" points="205.94,383.66,204.4974,373.9174,203.262,379.4377,197.7417,378.2022,205.94,383.66" style="stroke:#000000;stroke-width:1;"/><text fill="#000000" font-family="Verdana" font-size="13" lengthAdjust="spacing" textLength="29.7832" x="155.39" y="302.3969">uses</text></g><!--link local_fs_d to metadata_cache_fs--><g class="link" data-entity-1="local_fs_d" data-entity-2="metadata_cache_fs" data-source-line="69" data-uid="lnk27" id="link_local_fs_d_metadata_cache_fs"><path d="M613.12,213.6 C544.1,235.89 415.71,280.83 314.39,336.33 C289.6,349.91 268.432,365.2355 249.962,379.7955" fill="none" id="local_fs_d-to-metadata_cache_fs" style="stroke:#000000;stroke-width:1;"/><polygon fill="#000000" points="245.25,383.51,254.7943,381.0796,249.1766,380.4146,249.8416,374.797,245.25,383.51" style="stroke:#000000;stroke-width:1;"/><text fill="#000000" font-family="Verdana" font-size="13" lengthAdjust="spacing" textLength="29.7832" x="408.39" y="302.3969">uses</text></g><!--link metadata_cache_fs to block_cache_fs--><g class="link" data-entity-1="metadata_cache_fs" data-entity-2="block_cache_fs" data-source-line="70" data-uid="lnk28" id="link_metadata_cache_fs_block_cache_fs"><path d="M242.79,428.12 C280.08,461.99 348.1289,523.8056 385.4689,557.7256" fill="none" id="metadata_cache_fs-to-block_cache_fs" style="stroke:#000000;stroke-width:1;"/><polygon fill="#000000" points="389.91,561.76,385.9379,552.7477,386.209,558.398,380.5587,558.6692,389.91,561.76" style="stroke:#000000;stroke-width:1;"/><text fill="#000000" font-family="Verdana" font-size="13" lengthAdjust="spacing" textLength="29.7832" x="346.39" y="518.4569">uses</text></g><!--link local_fs_d to block_cache_fs--><g class="link" data-entity-1="local_fs_d" data-entity-2="block_cache_fs" data-source-line="71" data-uid="lnk29" id="link_local_fs_d_block_cache_fs"><path d="M664.2,219.84 C667.28,269.79 668.33,395.6 610.39,475.39 C591.5,501.42 520.5986,536.1836 468.6886,559.3636" fill="none" id="local_fs_d-to-block_cache_fs" style="stroke:#000000;stroke-width:1;"/><polygon fill="#000000" points="463.21,561.81,473.0588,561.7928,467.7755,559.7713,469.7969,554.488,463.21,561.81" style="stroke:#000000;stroke-width:1;"/><text fill="#000000" font-family="Verdana" font-size="13" lengthAdjust="spacing" textLength="29.7832" x="661.39" y="410.4269">uses</text></g><!--link local_fs_d to union_fs--><g class="link" data-entity-1="local_fs_d" data-entity-2="union_fs" data-source-line="72" data-uid="lnk30" id="link_local_fs_d_union_fs"><path d="M672.49,219.62 C702.28,285.75 782.22,490.97 691.39,615.79 C636.8,690.81 528.3251,712.934 464.6151,719.834" fill="none" id="local_fs_d-to-union_fs" style="stroke:#000000;stroke-width:1;"/><polygon fill="#000000" points="458.65,720.48,468.0284,723.4877,463.6209,719.9416,467.167,715.5342,458.65,720.48" style="stroke:#000000;stroke-width:1;"/><text fill="#000000" font-family="Verdana" font-size="13" lengthAdjust="spacing" textLength="29.7832" x="732.39" y="518.4569">uses</text></g><!--link local_fs_z to union_fs--><g class="link" data-entity-1="local_fs_z" data-entity-2="union_fs" data-source-line="73" data-uid="lnk31" id="link_local_fs_z_union_fs"><path d="M86.66,219.79 C83.67,268.07 81.43,387.99 123.39,475.39 C176.3,585.6 298.2921,662.9663 365.2621,699.1763" fill="none" id="local_fs_z-to-union_fs" style="stroke:#000000;stroke-width:1;"/><polygon fill="#000000" points="370.54,702.03,364.5256,694.2308,366.1417,699.6519,360.7207,701.268,370.54,702.03" style="stroke:#000000;stroke-width:1;"/><text fill="#000000" font-family="Verdana" font-size="13" lengthAdjust="spacing" textLength="29.7832" x="150.39" y="518.4569">uses</text></g><!--link metadata_cache_fs to union_fs--><g class="link" data-entity-1="metadata_cache_fs" data-entity-2="union_fs" data-source-line="74" data-uid="lnk32" id="link_metadata_cache_fs_union_fs"><path d="M224.34,428.18 C234.19,467.68 258.97,553.87 300.39,615.79 C323.6,650.48 355.0782,678.6826 380.2182,698.6126" fill="none" id="metadata_cache_fs-to-union_fs" style="stroke:#000000;stroke-width:1;"/><polygon fill="#000000" points="384.92,702.34,380.3523,693.6144,381.0019,699.2339,375.3824,699.8834,384.92,702.34" style="stroke:#000000;stroke-width:1;"/><text fill="#000000" font-family="Verdana" font-size="13" lengthAdjust="spacing" textLength="29.7832" x="301.39" y="588.6569">uses</text></g><!--link block_cache_fs to union_fs--><g class="link" data-entity-1="block_cache_fs" data-entity-2="union_fs" data-source-line="75" data-uid="lnk33" id="link_block_cache_fs_union_fs"><path d="M413.39,606.42 C413.39,632.5 413.39,670.38 413.39,696.37" fill="none" id="block_cache_fs-to-union_fs" style="stroke:#000000;stroke-width:1;"/><polygon fill="#000000" points="413.39,702.37,417.39,693.37,413.39,697.37,409.39,693.37,413.39,702.37" style="stroke:#000000;stroke-width:1;"/><text fill="#000000" font-family="Verdana" font-size="13" lengthAdjust="spacing" textLength="29.7832" x="414.39" y="658.8569">uses</text></g><!--link union_fs to http_server--><g class="link" data-entity-1="union_fs" data-entity-2="http_server" data-source-line="76" data-uid="lnk34" id="link_union_fs_http_server"><path d="M392.42,746.74 C368.89,770.58 335.1557,804.7706 311.6057,828.6206" fill="none" id="union_fs-to-http_server" style="stroke:#000000;stroke-width:1;"/><polygon fill="#000000" points="307.39,832.89,316.5598,829.2964,310.9031,829.3322,310.8673,823.6754,307.39,832.89" style="stroke:#000000;stroke-width:1;"/><text fill="#000000" font-family="Verdana" font-size="13" lengthAdjust="spacing" textLength="29.7832" x="351.39" y="799.2569">uses</text></g><!--SRC=[fPJHQjim58Rl_HIdLuD0KoVppNmnIE9j3DPsh871IZ6gTMoBs9AHbR7uQi-oHzkJL7ASn8hbqjARa7E-Npg_Vik-e9WoZh2wlVv-U_FfPXr7NnTVVYoklGkLOubG5OHnpwitZ5T4aX8UIRB9fDXokXA5aF0pPmfxF15b9JXojJmJVcDPhfR5rYqMagBS2oCYDsEwpuAhEzOWpEOkVATs1SAsBEQUTsp2VI4IKiHf7TC783MSIeyBXQ141IBjjm4ca_MkmiaaR0-Cd4vRhCdbPOjNWgSiqm9T_V_xJyjgZ9WC8GglFAq7ixNRHMExQDmkcZUv-3NceaH5A54aJaYIenxKcXbqBKz3wh9cgyOz2iaonfVxLQ5zOCFRvKDC-xWzuzLWek4b-RCovIB34EQ1x-STA8ZCp49Cb92xTIwnpaMXHynyttU7zQYdR-oax9OLqnboPTIJl3WWL_gloycUsjuJqp4lKWZ1x4FmtWyw897GHQv_baPHwmGxC9rEWUYCPb0AYUwujfm9VWZgK5WH7PkkS5eu7el-pfJQq7sm__VWzf0hLSKrojyeMnkzsdBIx_VDf59_OemR8tZkHUjoFvxevEOTH5Zf4dd2iFPE5rnlzd7uE45lKlTrz7dT41YvVVb6zdoHw72Y0MwSs6tdN7KssIKvrWRs7a_7dm00]--></g></svg>