<svg xmlns="http://www.w3.org/2000/svg" xmlns:xlink="http://www.w3.org/1999/xlink" contentStyleType="text/css" data-diagram-type="DESCRIPTION" height="958px" preserveAspectRatio="none" style="width:845px;height:958px;background:#FFFFFF;" version="1.1" viewBox="0 0 845 958" width="845px" zoomAndPan="magnify"><defs/><g><!--entity local_fs_d--><g class="entity" data-entity="local_fs_d" data-source-line="10" data-uid="ent0002" id="entity_local_fs_d"><rect fill="#ADD8E6" height="43.9688" rx="2.5" ry="2.5" style="stroke:#00008B;stroke-width:1;" width="98.0547" x="667.56" y="220.78"/><rect fill="#ADD8E6" height="10" style="stroke:#00008B;stroke-width:1;" width="15" x="745.6147" y="225.78"/><rect fill="#ADD8E6" height="2" style="stroke:#00008B;stroke-width:1;" width="4" x="743.6147" y="227.78"/><rect fill="#ADD8E6" height="2" style="stroke:#00008B;stroke-width:1;" width="4" x="743.6147" y="231.78"/><text fill="#000000" font-family="Verdana" font-size="12" lengthAdjust="spacing" textLength="58.0547" x="682.56" y="251.9187">local_fs_d</text></g><g class="entity" data-entity="GMN3" data-source-line="12" data-uid="ent0004" id="entity_GMN3"><path d="M639.19,33.7 L639.19,97.0984 A0,0 0 0 0 639.19,97.0984 L712.58,97.0984 L716.58,220.49 L720.58,97.0984 L793.9732,97.0984 A0,0 0 0 0 793.9732,97.0984 L793.9732,43.7 L783.9732,33.7 L639.19,33.7 A0,0 0 0 0 639.19,33.7" fill="#FFFFFF" style="stroke:#000000;stroke-width:1;"/><path d="M783.9732,33.7 L783.9732,43.7 L793.9732,43.7 L783.9732,33.7" fill="#FFFFFF" style="stroke:#000000;stroke-width:1;"/><text fill="#000000" font-family="Verdana" font-size="13" font-weight="bold" lengthAdjust="spacing" textLength="35.4644" x="645.19" y="50.7669">Type</text><text fill="#000000" font-family="Verdana" font-size="13" lengthAdjust="spacing" textLength="98.3188" x="680.6544" y="50.7669">: backend.local</text><line style="stroke:#000000;stroke-width:1;" x1="640.19" x2="792.9732" y1="53.8328" y2="53.8328"/><text fill="#000000" font-family="Verdana" font-size="13" font-weight="bold" lengthAdjust="spacing" textLength="47.144" x="645.19" y="69.8997">Config</text><text fill="#000000" font-family="Verdana" font-size="13" lengthAdjust="spacing" textLength="4.3799" x="692.334" y="69.8997">:</text><text fill="#000000" font-family="Verdana" font-size="13" lengthAdjust="spacing" textLength="89.0386" x="645.19" y="85.0325">&#8226; baseDir: D:/</text></g><!--entity webdav_fs--><g class="entity" data-entity="webdav_fs" data-source-line="18" data-uid="ent0006" id="entity_webdav_fs"><rect fill="#ADD8E6" height="43.9688" rx="2.5" ry="2.5" style="stroke:#00008B;stroke-width:1;" width="103.3633" x="90.9" y="220.78"/><rect fill="#ADD8E6" height="10" style="stroke:#00008B;stroke-width:1;" width="15" x="174.2633" y="225.78"/><rect fill="#ADD8E6" height="2" style="stroke:#00008B;stroke-width:1;" width="4" x="172.2633" y="227.78"/><rect fill="#ADD8E6" height="2" style="stroke:#00008B;stroke-width:1;" width="4" x="172.2633" y="231.78"/><text fill="#000000" font-family="Verdana" font-size="12" lengthAdjust="spacing" textLength="63.3633" x="105.9" y="251.9187">webdav_fs</text></g><g class="entity" data-entity="GMN7" data-source-line="20" data-uid="ent0008" id="entity_GMN7"><path d="M11,11 L11,119.7969 A0,0 0 0 0 11,119.7969 L138.58,119.7969 L142.58,220.48 L146.58,119.7969 L274.1694,119.7969 A0,0 0 0 0 274.1694,119.7969 L274.1694,21 L264.1694,11 L11,11 A0,0 0 0 0 11,11" fill="#FFFFFF" style="stroke:#000000;stroke-width:1;"/><path d="M264.1694,11 L264.1694,21 L274.1694,21 L264.1694,11" fill="#FFFFFF" style="stroke:#000000;stroke-width:1;"/><text fill="#000000" font-family="Verdana" font-size="13" font-weight="bold" lengthAdjust="spacing" textLength="35.4644" x="17" y="28.0669">Type</text><text fill="#000000" font-family="Verdana" font-size="13" lengthAdjust="spacing" textLength="118.8218" x="52.4644" y="28.0669">: backend.webdav</text><line style="stroke:#000000;stroke-width:1;" x1="12" x2="273.1694" y1="31.1328" y2="31.1328"/><text fill="#000000" font-family="Verdana" font-size="13" font-weight="bold" lengthAdjust="spacing" textLength="47.144" x="17" y="47.1997">Config</text><text fill="#000000" font-family="Verdana" font-size="13" lengthAdjust="spacing" textLength="4.3799" x="64.144" y="47.1997">:</text><text fill="#000000" font-family="Verdana" font-size="13" lengthAdjust="spacing" textLength="242.1694" x="17" y="62.3325">&#8226; baseUrl: http://192.168.242.2:8093</text><text fill="#000000" font-family="Verdana" font-size="13" lengthAdjust="spacing" textLength="126.2676" x="17" y="77.4653">&#8226; username: admin</text><text fill="#000000" font-family="Verdana" font-size="13" lengthAdjust="spacing" textLength="107.2246" x="17" y="92.5981">&#8226; password: test</text><text fill="#000000" font-family="Verdana" font-size="13" lengthAdjust="spacing" textLength="156.0952" x="17" y="107.731">&#8226; httpOptions: {3 keys}</text></g><!--entity metadata_cache_fs--><g class="entity" data-entity="metadata_cache_fs" data-source-line="29" data-uid="ent0010" id="entity_metadata_cache_fs"><rect fill="#ADD8E6" height="43.9688" rx="2.5" ry="2.5" style="stroke:#00008B;stroke-width:1;" width="156.1738" x="195.5" y="429.27"/><rect fill="#ADD8E6" height="10" style="stroke:#00008B;stroke-width:1;" width="15" x="331.6738" y="434.27"/><rect fill="#ADD8E6" height="2" style="stroke:#00008B;stroke-width:1;" width="4" x="329.6738" y="436.27"/><rect fill="#ADD8E6" height="2" style="stroke:#00008B;stroke-width:1;" width="4" x="329.6738" y="440.27"/><text fill="#000000" font-family="Verdana" font-size="12" lengthAdjust="spacing" textLength="116.1738" x="210.5" y="460.4087">metadata_cache_fs</text></g><g class="entity" data-entity="GMN11" data-source-line="31" data-uid="ent0012" id="entity_GMN11"><path d="M229.34,180.8 L229.34,304.7297 A0,0 0 0 0 229.34,304.7297 L320.18,304.7297 L281.04,428.86 L328.18,304.7297 L461.8376,304.7297 A0,0 0 0 0 461.8376,304.7297 L461.8376,190.8 L451.8376,180.8 L229.34,180.8 A0,0 0 0 0 229.34,180.8" fill="#FFFFFF" style="stroke:#000000;stroke-width:1;"/><path d="M451.8376,180.8 L451.8376,190.8 L461.8376,190.8 L451.8376,180.8" fill="#FFFFFF" style="stroke:#000000;stroke-width:1;"/><text fill="#000000" font-family="Verdana" font-size="13" font-weight="bold" lengthAdjust="spacing" textLength="35.4644" x="235.34" y="197.8669">Type</text><text fill="#000000" font-family="Verdana" font-size="13" lengthAdjust="spacing" textLength="176.0332" x="270.8044" y="197.8669">: backend.metadata_cache</text><line style="stroke:#000000;stroke-width:1;" x1="230.34" x2="460.8376" y1="200.9328" y2="200.9328"/><text fill="#000000" font-family="Verdana" font-size="13" font-weight="bold" lengthAdjust="spacing" textLength="47.144" x="235.34" y="216.9997">Config</text><text fill="#000000" font-family="Verdana" font-size="13" lengthAdjust="spacing" textLength="4.3799" x="282.484" y="216.9997">:</text><text fill="#000000" font-family="Verdana" font-size="13" lengthAdjust="spacing" textLength="182.019" x="235.34" y="232.1325">&#8226; originBackend: webdav_fs</text><text fill="#000000" font-family="Verdana" font-size="13" lengthAdjust="spacing" textLength="177.7534" x="235.34" y="247.2653">&#8226; cacheBackend: local_fs_d</text><text fill="#000000" font-family="Verdana" font-size="13" lengthAdjust="spacing" textLength="190.1631" x="235.34" y="262.3981">&#8226; cacheDir: /metadata_cache</text><text fill="#000000" font-family="Verdana" font-size="13" lengthAdjust="spacing" textLength="155.5303" x="235.34" y="277.531">&#8226; maxCacheAge: 2400h</text><text fill="#000000" font-family="Verdana" font-size="13" lengthAdjust="spacing" textLength="211.123" x="235.34" y="292.6638">&#8226; largeDirectoryThreshold: 1000</text></g><!--entity block_cache_fs--><g class="entity" data-entity="block_cache_fs" data-source-line="41" data-uid="ent0014" id="entity_block_cache_fs"><rect fill="#ADD8E6" height="43.9688" rx="2.5" ry="2.5" style="stroke:#00008B;stroke-width:1;" width="129.8535" x="402.66" y="607.5"/><rect fill="#ADD8E6" height="10" style="stroke:#00008B;stroke-width:1;" width="15" x="512.5135" y="612.5"/><rect fill="#ADD8E6" height="2" style="stroke:#00008B;stroke-width:1;" width="4" x="510.5135" y="614.5"/><rect fill="#ADD8E6" height="2" style="stroke:#00008B;stroke-width:1;" width="4" x="510.5135" y="618.5"/><text fill="#000000" font-family="Verdana" font-size="12" lengthAdjust="spacing" textLength="89.8535" x="417.66" y="638.6387">block_cache_fs</text></g><g class="entity" data-entity="GMN15" data-source-line="43" data-uid="ent0016" id="entity_GMN15"><path d="M386.47,381.73 L386.47,520.7925 L646.7005,520.7925 L646.7005,391.73 L636.7005,381.73 L386.47,381.73" fill="#FFFFFF" style="stroke:#000000;stroke-width:1;"/><path d="M636.7005,381.73 L636.7005,391.73 L646.7005,391.73 L636.7005,381.73" fill="#FFFFFF" style="stroke:#000000;stroke-width:1;"/><text fill="#000000" font-family="Verdana" font-size="13" font-weight="bold" lengthAdjust="spacing" textLength="35.4644" x="392.47" y="398.7969">Type</text><text fill="#000000" font-family="Verdana" font-size="13" lengthAdjust="spacing" textLength="147.5195" x="427.9344" y="398.7969">: backend.block_cache</text><line style="stroke:#000000;stroke-width:1;" x1="387.47" x2="645.7005" y1="401.8628" y2="401.8628"/><text fill="#000000" font-family="Verdana" font-size="13" font-weight="bold" lengthAdjust="spacing" textLength="47.144" x="392.47" y="417.9297">Config</text><text fill="#000000" font-family="Verdana" font-size="13" lengthAdjust="spacing" textLength="4.3799" x="439.614" y="417.9297">:</text><text fill="#000000" font-family="Verdana" font-size="13" lengthAdjust="spacing" textLength="239.2305" x="392.47" y="433.0625">&#8226; originBackend: metadata_cache_fs</text><text fill="#000000" font-family="Verdana" font-size="13" lengthAdjust="spacing" textLength="177.7534" x="392.47" y="448.1953">&#8226; cacheBackend: local_fs_d</text><text fill="#000000" font-family="Verdana" font-size="13" lengthAdjust="spacing" textLength="161.6494" x="392.47" y="463.3281">&#8226; cacheDir: /block_cache</text><text fill="#000000" font-family="Verdana" font-size="13" lengthAdjust="spacing" textLength="139.3882" x="392.47" y="478.461">&#8226; blockSize: 4194304</text><text fill="#000000" font-family="Verdana" font-size="13" lengthAdjust="spacing" textLength="141.4258" x="392.47" y="493.5938">&#8226; readAheadBlocks: 2</text><text fill="#000000" font-family="Verdana" font-size="13" lengthAdjust="spacing" textLength="103.2827" x="392.47" y="508.7266">&#8226; ... and 1 more</text></g><!--entity union_fs--><g class="entity" data-entity="union_fs" data-source-line="54" data-uid="ent0018" id="entity_union_fs"><rect fill="#ADD8E6" height="43.9688" rx="2.5" ry="2.5" style="stroke:#00008B;stroke-width:1;" width="89.9688" x="422.6" y="763.03"/><rect fill="#ADD8E6" height="10" style="stroke:#00008B;stroke-width:1;" width="15" x="492.5688" y="768.03"/><rect fill="#ADD8E6" height="2" style="stroke:#00008B;stroke-width:1;" width="4" x="490.5688" y="770.03"/><rect fill="#ADD8E6" height="2" style="stroke:#00008B;stroke-width:1;" width="4" x="490.5688" y="774.03"/><text fill="#000000" font-family="Verdana" font-size="12" lengthAdjust="spacing" textLength="49.9688" x="437.6" y="794.1687">union_fs</text></g><g class="entity" data-entity="GMN19" data-source-line="56" data-uid="ent0020" id="entity_GMN19"><path d="M567.2,597.79 L567.2,661.1884 A0,0 0 0 0 567.2,661.1884 L607.16,661.1884 L492.67,762.62 L615.16,661.1884 L727.9754,661.1884 A0,0 0 0 0 727.9754,661.1884 L727.9754,607.79 L717.9754,597.79 L567.2,597.79 A0,0 0 0 0 567.2,597.79" fill="#FFFFFF" style="stroke:#000000;stroke-width:1;"/><path d="M717.9754,597.79 L717.9754,607.79 L727.9754,607.79 L717.9754,597.79" fill="#FFFFFF" style="stroke:#000000;stroke-width:1;"/><text fill="#000000" font-family="Verdana" font-size="13" font-weight="bold" lengthAdjust="spacing" textLength="35.4644" x="573.2" y="614.8569">Type</text><text fill="#000000" font-family="Verdana" font-size="13" lengthAdjust="spacing" textLength="104.311" x="608.6644" y="614.8569">: backend.union</text><line style="stroke:#000000;stroke-width:1;" x1="568.2" x2="726.9754" y1="617.9228" y2="617.9228"/><text fill="#000000" font-family="Verdana" font-size="13" font-weight="bold" lengthAdjust="spacing" textLength="47.144" x="573.2" y="633.9897">Config</text><text fill="#000000" font-family="Verdana" font-size="13" lengthAdjust="spacing" textLength="4.3799" x="620.344" y="633.9897">:</text><text fill="#000000" font-family="Verdana" font-size="13" lengthAdjust="spacing" textLength="115.1465" x="573.2" y="649.1225">&#8226; items: [4 items]</text></g><!--entity http_server--><g class="entity" data-entity="http_server" data-source-line="62" data-uid="ent0022" id="entity_http_server"><rect fill="#ADD8E6" height="43.9688" rx="2.5" ry="2.5" style="stroke:#00008B;stroke-width:1;" width="108.6191" x="342.28" y="908.85"/><rect fill="#ADD8E6" height="10" style="stroke:#00008B;stroke-width:1;" width="15" x="430.8991" y="913.85"/><rect fill="#ADD8E6" height="2" style="stroke:#00008B;stroke-width:1;" width="4" x="428.8991" y="915.85"/><rect fill="#ADD8E6" height="2" style="stroke:#00008B;stroke-width:1;" width="4" x="428.8991" y="919.85"/><text fill="#000000" font-family="Verdana" font-size="12" lengthAdjust="spacing" textLength="68.6191" x="357.28" y="939.9887">http_server</text></g><g class="entity" data-entity="GMN23" data-source-line="64" data-uid="ent0024" id="entity_GMN23"><path d="M235.84,738.19 L235.84,831.8541 A0,0 0 0 0 235.84,831.8541 L334.95,831.8541 L384,908.55 L342.95,831.8541 L387.3351,831.8541 A0,0 0 0 0 387.3351,831.8541 L387.3351,748.19 L377.3351,738.19 L235.84,738.19 A0,0 0 0 0 235.84,738.19" fill="#FFFFFF" style="stroke:#000000;stroke-width:1;"/><path d="M377.3351,738.19 L377.3351,748.19 L387.3351,748.19 L377.3351,738.19" fill="#FFFFFF" style="stroke:#000000;stroke-width:1;"/><text fill="#000000" font-family="Verdana" font-size="13" font-weight="bold" lengthAdjust="spacing" textLength="35.4644" x="241.84" y="755.2569">Type</text><text fill="#000000" font-family="Verdana" font-size="13" lengthAdjust="spacing" textLength="95.0308" x="277.3044" y="755.2569">: frontend.http</text><line style="stroke:#000000;stroke-width:1;" x1="236.84" x2="386.3351" y1="758.3228" y2="758.3228"/><text fill="#000000" font-family="Verdana" font-size="13" font-weight="bold" lengthAdjust="spacing" textLength="47.144" x="241.84" y="774.3897">Config</text><text fill="#000000" font-family="Verdana" font-size="13" lengthAdjust="spacing" textLength="4.3799" x="288.984" y="774.3897">:</text><text fill="#000000" font-family="Verdana" font-size="13" lengthAdjust="spacing" textLength="129.8286" x="241.84" y="789.5225">&#8226; backend: union_fs</text><text fill="#000000" font-family="Verdana" font-size="13" lengthAdjust="spacing" textLength="130.0254" x="241.84" y="804.6553">&#8226; address: localhost</text><text fill="#000000" font-family="Verdana" font-size="13" lengthAdjust="spacing" textLength="80.0439" x="241.84" y="819.7881">&#8226; port: 8051</text></g><!--entity webdav_server--><g class="entity" data-entity="webdav_server" data-source-line="72" data-uid="ent0026" id="entity_webdav_server"><rect fill="#ADD8E6" height="43.9688" rx="2.5" ry="2.5" style="stroke:#00008B;stroke-width:1;" width="130.873" x="486.15" y="908.85"/><rect fill="#ADD8E6" height="10" style="stroke:#00008B;stroke-width:1;" width="15" x="597.023" y="913.85"/><rect fill="#ADD8E6" height="2" style="stroke:#00008B;stroke-width:1;" width="4" x="595.023" y="915.85"/><rect fill="#ADD8E6" height="2" style="stroke:#00008B;stroke-width:1;" width="4" x="595.023" y="919.85"/><text fill="#000000" font-family="Verdana" font-size="12" lengthAdjust="spacing" textLength="90.873" x="501.15" y="939.9887">webdav_server</text></g><g class="entity" data-entity="GMN27" data-source-line="74" data-uid="ent0028" id="entity_GMN27"><path d="M547.78,738.19 L547.78,831.8541 A0,0 0 0 0 547.78,831.8541 L604.54,831.8541 L564.02,908.55 L612.54,831.8541 L723.3835,831.8541 A0,0 0 0 0 723.3835,831.8541 L723.3835,748.19 L713.3835,738.19 L547.78,738.19 A0,0 0 0 0 547.78,738.19" fill="#FFFFFF" style="stroke:#000000;stroke-width:1;"/><path d="M713.3835,738.19 L713.3835,748.19 L723.3835,748.19 L713.3835,738.19" fill="#FFFFFF" style="stroke:#000000;stroke-width:1;"/><text fill="#000000" font-family="Verdana" font-size="13" font-weight="bold" lengthAdjust="spacing" textLength="35.4644" x="553.78" y="755.2569">Type</text><text fill="#000000" font-family="Verdana" font-size="13" lengthAdjust="spacing" textLength="119.1392" x="589.2444" y="755.2569">: frontend.webdav</text><line style="stroke:#000000;stroke-width:1;" x1="548.78" x2="722.3835" y1="758.3228" y2="758.3228"/><text fill="#000000" font-family="Verdana" font-size="13" font-weight="bold" lengthAdjust="spacing" textLength="47.144" x="553.78" y="774.3897">Config</text><text fill="#000000" font-family="Verdana" font-size="13" lengthAdjust="spacing" textLength="4.3799" x="600.924" y="774.3897">:</text><text fill="#000000" font-family="Verdana" font-size="13" lengthAdjust="spacing" textLength="129.8286" x="553.78" y="789.5225">&#8226; backend: union_fs</text><text fill="#000000" font-family="Verdana" font-size="13" lengthAdjust="spacing" textLength="117.1523" x="553.78" y="804.6553">&#8226; address: 0.0.0.0</text><text fill="#000000" font-family="Verdana" font-size="13" lengthAdjust="spacing" textLength="80.0439" x="553.78" y="819.7881">&#8226; port: 8052</text></g><!--link GMN15 to block_cache_fs--><g class="link" data-entity-1="GMN15" data-entity-2="block_cache_fs" data-source-line="43" data-uid="lnk17" id="link_GMN15_block_cache_fs"><path d="M500.15,521.2 C496.24,536.59 491.93,552.79 487.58,567.79 C483.75,581 478.94,595.66 475,607.26" fill="none" id="GMN15-block_cache_fs" style="stroke:#000000;stroke-width:1;stroke-dasharray:7,7;"/></g><!--link webdav_fs to metadata_cache_fs--><g class="link" data-entity-1="webdav_fs" data-entity-2="metadata_cache_fs" data-source-line="83" data-uid="lnk30" id="link_webdav_fs_metadata_cache_fs"><path d="M156.11,265.08 C181.28,304.75 231.8058,384.4036 256.9158,423.9836" fill="none" id="webdav_fs-to-metadata_cache_fs" style="stroke:#000000;stroke-width:1;"/><polygon fill="#000000" points="260.13,429.05,258.6863,419.3075,257.4515,424.828,251.9311,423.5931,260.13,429.05" style="stroke:#000000;stroke-width:1;"/><text fill="#000000" font-family="Verdana" font-size="13" lengthAdjust="spacing" textLength="29.7832" x="209.58" y="347.7969">uses</text></g><!--link local_fs_d to metadata_cache_fs--><g class="link" data-entity-1="local_fs_d" data-entity-2="metadata_cache_fs" data-source-line="84" data-uid="lnk31" id="link_local_fs_d_metadata_cache_fs"><path d="M667.32,258.99 C598.29,281.28 469.9,326.22 368.58,381.73 C343.79,395.31 322.6317,410.6252 304.1517,425.1952" fill="none" id="local_fs_d-to-metadata_cache_fs" style="stroke:#000000;stroke-width:1;"/><polygon fill="#000000" points="299.44,428.91,308.9841,426.4789,303.3664,425.8143,304.031,420.1967,299.44,428.91" style="stroke:#000000;stroke-width:1;"/><text fill="#000000" font-family="Verdana" font-size="13" lengthAdjust="spacing" textLength="29.7832" x="462.58" y="347.7969">uses</text></g><!--link metadata_cache_fs to block_cache_fs--><g class="link" data-entity-1="metadata_cache_fs" data-entity-2="block_cache_fs" data-source-line="85" data-uid="lnk32" id="link_metadata_cache_fs_block_cache_fs"><path d="M296.99,473.51 C334.27,507.39 402.3189,569.2056 439.6589,603.1256" fill="none" id="metadata_cache_fs-to-block_cache_fs" style="stroke:#000000;stroke-width:1;"/><polygon fill="#000000" points="444.1,607.16,440.1279,598.1477,440.399,603.798,434.7487,604.0692,444.1,607.16" style="stroke:#000000;stroke-width:1;"/><text fill="#000000" font-family="Verdana" font-size="13" lengthAdjust="spacing" textLength="29.7832" x="400.58" y="563.8569">uses</text></g><!--link local_fs_d to block_cache_fs--><g class="link" data-entity-1="local_fs_d" data-entity-2="block_cache_fs" data-source-line="86" data-uid="lnk33" id="link_local_fs_d_block_cache_fs"><path d="M718.4,265.23 C721.47,315.19 722.52,441 664.58,520.79 C645.69,546.81 574.789,581.5845 522.879,604.7545" fill="none" id="local_fs_d-to-block_cache_fs" style="stroke:#000000;stroke-width:1;"/><polygon fill="#000000" points="517.4,607.2,527.2488,607.1843,521.9658,605.162,523.9881,599.879,517.4,607.2" style="stroke:#000000;stroke-width:1;"/><text fill="#000000" font-family="Verdana" font-size="13" lengthAdjust="spacing" textLength="29.7832" x="715.58" y="455.8269">uses</text></g><!--link local_fs_d to union_fs--><g class="link" data-entity-1="local_fs_d" data-entity-2="union_fs" data-source-line="87" data-uid="lnk34" id="link_local_fs_d_union_fs"><path d="M726.82,265.11 C757.01,331.55 838.01,537.54 745.58,661.19 C684.82,742.48 620.31,690.74 530.58,738.19 C517.67,745.02 509.2096,750.5998 498.2296,758.9798" fill="none" id="local_fs_d-to-union_fs" style="stroke:#000000;stroke-width:1;"/><polygon fill="#000000" points="493.46,762.62,503.0412,760.3395,497.4347,759.5865,498.1876,753.98,493.46,762.62" style="stroke:#000000;stroke-width:1;"/><text fill="#000000" font-family="Verdana" font-size="13" lengthAdjust="spacing" textLength="29.7832" x="786.58" y="563.8569">uses</text></g><!--link metadata_cache_fs to union_fs--><g class="link" data-entity-1="metadata_cache_fs" data-entity-2="union_fs" data-source-line="88" data-uid="lnk35" id="link_metadata_cache_fs_union_fs"><path d="M279,473.63 C289.56,512.85 315.32,598.11 354.58,661.19 C379.39,701.04 413.6286,735.584 438.6786,758.564" fill="none" id="metadata_cache_fs-to-union_fs" style="stroke:#000000;stroke-width:1;"/><polygon fill="#000000" points="443.1,762.62,439.1719,753.5884,439.4155,759.24,433.7639,759.4836,443.1,762.62" style="stroke:#000000;stroke-width:1;"/><text fill="#000000" font-family="Verdana" font-size="13" lengthAdjust="spacing" textLength="29.7832" x="355.58" y="634.0569">uses</text></g><!--link block_cache_fs to union_fs--><g class="link" data-entity-1="block_cache_fs" data-entity-2="union_fs" data-source-line="89" data-uid="lnk36" id="link_block_cache_fs_union_fs"><path d="M467.58,651.84 C467.58,681.17 467.58,727.62 467.58,756.85" fill="none" id="block_cache_fs-to-union_fs" style="stroke:#000000;stroke-width:1;"/><polygon fill="#000000" points="467.58,762.85,471.58,753.85,467.58,757.85,463.58,753.85,467.58,762.85" style="stroke:#000000;stroke-width:1;"/><text fill="#000000" font-family="Verdana" font-size="13" lengthAdjust="spacing" textLength="29.7832" x="468.58" y="704.2569">uses</text></g><!--link webdav_fs to union_fs--><g class="link" data-entity-1="webdav_fs" data-entity-2="union_fs" data-source-line="90" data-uid="lnk37" id="link_webdav_fs_union_fs"><path d="M140.81,265.21 C137.73,313.53 135.31,433.54 177.58,520.79 C229.44,627.81 276.83,632.53 368.58,708.19 C391.64,727.2 413.7911,744.162 433.7611,759.062" fill="none" id="webdav_fs-to-union_fs" style="stroke:#000000;stroke-width:1;"/><polygon fill="#000000" points="438.57,762.65,433.7486,754.062,434.5625,759.66,428.9646,760.4739,438.57,762.65" style="stroke:#000000;stroke-width:1;"/><text fill="#000000" font-family="Verdana" font-size="13" lengthAdjust="spacing" textLength="29.7832" x="205.58" y="563.8569">uses</text></g><!--link union_fs to http_server--><g class="link" data-entity-1="union_fs" data-entity-2="http_server" data-source-line="91" data-uid="lnk38" id="link_union_fs_http_server"><path d="M457.11,807.24 C443.68,834.43 423.2072,875.9205 409.7572,903.1505" fill="none" id="union_fs-to-http_server" style="stroke:#000000;stroke-width:1;"/><polygon fill="#000000" points="407.1,908.53,414.6721,902.2321,409.3143,904.0471,407.4994,898.6892,407.1,908.53" style="stroke:#000000;stroke-width:1;"/><text fill="#000000" font-family="Verdana" font-size="13" lengthAdjust="spacing" textLength="29.7832" x="431.58" y="874.9169">uses</text></g><!--link union_fs to webdav_server--><g class="link" data-entity-1="union_fs" data-entity-2="webdav_server" data-source-line="92" data-uid="lnk39" id="link_union_fs_webdav_server"><path d="M479.98,807.24 C495.86,834.43 520.2031,876.1195 536.1131,903.3495" fill="none" id="union_fs-to-webdav_server" style="stroke:#000000;stroke-width:1;"/><polygon fill="#000000" points="539.14,908.53,538.0534,898.7413,536.6176,904.2129,531.146,902.7771,539.14,908.53" style="stroke:#000000;stroke-width:1;"/><text fill="#000000" font-family="Verdana" font-size="13" lengthAdjust="spacing" textLength="29.7832" x="520.58" y="874.9169">uses</text></g><!--SRC=[bLHTQzim57tthxXz6WJgs6us4ZqCyh6DmTgEDMCFfGJLlebDRCb8Ihji3FPRzjFsIoOvZcivIjfH2Btt7EkUUtIlpX9SPWnXUdtv-VhgtTLyCViu_l1bVEcTgHGBX3Ad6VCykSvOIGKju9x6wvNW6vPCUSu5V4ipXIqyvaN96J8rwH0_PQjKJVADcyn5Wc97d56nFiPxpvcwoNuWX94Blb7R765Jv97dDKcupNbCyyLIBf8xe1AUGeznXQ1u2NpPJWFqUlDjYRqUgHf6blWLh97pymgUShRCLfgWex-__sYQn5ac2Cn8tzDyC4TRAXxnFg4Fka0beeai3KzPbuGTUbh3Lv4JI9KgIRyVZY8_V3Fqeq7aHsGOZ2vguaQYOBH00ZGfzFtkiYMLyb5V1065KjL9SzHrgJBE986V5x36hVpbRh10HHEgw2AcSOhxHW-oLiE7gAjnctNS02woLSOckw-8vQQ1gwyRrBhl1gxki7zGqE05_JuruNYbZOi6GP3MG4x5odo8iU9YEqy5ofJdkaGO187RgtjTVMqRPQSibpgGow8MvSN-kCp_Fv_igjKCcenPKGA3S3Iu20Or890curJ_J0n33rDK0xxl0zKUXL1mWMwxDamFuDweVM1Pr2HTvbJWSLlq2rPeGRU3tNztRWrc4nPwSHvGL39QiQMadM-BMGhzU1arXd1gYMlVMnsPF4qIFLUole-KDnjQSg4838FNuSbtfwNSohZUdrFgdt-4dj4V-DLVLttKKlyAPbZg45cSeVIQFTOrtnvEBH3pe4dlQL1Fymu1GxTtxCYPBoBj6pzThylg7EsYs3vqqIOsO6i8dRXrqJNZ7m00]--></g></svg>