<svg xmlns="http://www.w3.org/2000/svg" xmlns:xlink="http://www.w3.org/1999/xlink" contentStyleType="text/css" data-diagram-type="DESCRIPTION" height="1049px" preserveAspectRatio="none" style="width:1483px;height:1049px;background:#FFFFFF;" version="1.1" viewBox="0 0 1483 1049" width="1483px" zoomAndPan="magnify"><defs/><g><!--entity local_fs_d--><g class="entity" data-entity="local_fs_d" data-source-line="10" data-uid="ent0002" id="entity_local_fs_d"><rect fill="#ADD8E6" height="43.9688" rx="2.5" ry="2.5" style="stroke:#00008B;stroke-width:1;" width="98.0547" x="313.09" y="220.78"/><rect fill="#ADD8E6" height="10" style="stroke:#00008B;stroke-width:1;" width="15" x="391.1447" y="225.78"/><rect fill="#ADD8E6" height="2" style="stroke:#00008B;stroke-width:1;" width="4" x="389.1447" y="227.78"/><rect fill="#ADD8E6" height="2" style="stroke:#00008B;stroke-width:1;" width="4" x="389.1447" y="231.78"/><text fill="#000000" font-family="Verdana" font-size="12" lengthAdjust="spacing" textLength="58.0547" x="328.09" y="251.9187">local_fs_d</text></g><g class="entity" data-entity="GMN3" data-source-line="12" data-uid="ent0004" id="entity_GMN3"><path d="M284.72,33.7 L284.72,97.0984 A0,0 0 0 0 284.72,97.0984 L358.12,97.0984 L362.12,220.5 L366.12,97.0984 L439.5032,97.0984 A0,0 0 0 0 439.5032,97.0984 L439.5032,43.7 L429.5032,33.7 L284.72,33.7 A0,0 0 0 0 284.72,33.7" fill="#FFFFFF" style="stroke:#000000;stroke-width:1;"/><path d="M429.5032,33.7 L429.5032,43.7 L439.5032,43.7 L429.5032,33.7" fill="#FFFFFF" style="stroke:#000000;stroke-width:1;"/><text fill="#000000" font-family="Verdana" font-size="13" font-weight="bold" lengthAdjust="spacing" textLength="35.4644" x="290.72" y="50.7669">Type</text><text fill="#000000" font-family="Verdana" font-size="13" lengthAdjust="spacing" textLength="98.3188" x="326.1844" y="50.7669">: backend.local</text><line style="stroke:#000000;stroke-width:1;" x1="285.72" x2="438.5032" y1="53.8328" y2="53.8328"/><text fill="#000000" font-family="Verdana" font-size="13" font-weight="bold" lengthAdjust="spacing" textLength="47.144" x="290.72" y="69.8997">Config</text><text fill="#000000" font-family="Verdana" font-size="13" lengthAdjust="spacing" textLength="4.3799" x="337.864" y="69.8997">:</text><text fill="#000000" font-family="Verdana" font-size="13" lengthAdjust="spacing" textLength="89.0386" x="290.72" y="85.0325">&#8226; baseDir: D:/</text></g><!--entity webdav_fs--><g class="entity" data-entity="webdav_fs" data-source-line="18" data-uid="ent0006" id="entity_webdav_fs"><rect fill="#ADD8E6" height="43.9688" rx="2.5" ry="2.5" style="stroke:#00008B;stroke-width:1;" width="103.3633" x="713.43" y="220.78"/><rect fill="#ADD8E6" height="10" style="stroke:#00008B;stroke-width:1;" width="15" x="796.7933" y="225.78"/><rect fill="#ADD8E6" height="2" style="stroke:#00008B;stroke-width:1;" width="4" x="794.7933" y="227.78"/><rect fill="#ADD8E6" height="2" style="stroke:#00008B;stroke-width:1;" width="4" x="794.7933" y="231.78"/><text fill="#000000" font-family="Verdana" font-size="12" lengthAdjust="spacing" textLength="63.3633" x="728.43" y="251.9187">webdav_fs</text></g><g class="entity" data-entity="GMN7" data-source-line="20" data-uid="ent0008" id="entity_GMN7"><path d="M633.53,11 L633.53,119.7969 A0,0 0 0 0 633.53,119.7969 L761.12,119.7969 L765.12,220.48 L769.12,119.7969 L896.6994,119.7969 A0,0 0 0 0 896.6994,119.7969 L896.6994,21 L886.6994,11 L633.53,11 A0,0 0 0 0 633.53,11" fill="#FFFFFF" style="stroke:#000000;stroke-width:1;"/><path d="M886.6994,11 L886.6994,21 L896.6994,21 L886.6994,11" fill="#FFFFFF" style="stroke:#000000;stroke-width:1;"/><text fill="#000000" font-family="Verdana" font-size="13" font-weight="bold" lengthAdjust="spacing" textLength="35.4644" x="639.53" y="28.0669">Type</text><text fill="#000000" font-family="Verdana" font-size="13" lengthAdjust="spacing" textLength="118.8218" x="674.9944" y="28.0669">: backend.webdav</text><line style="stroke:#000000;stroke-width:1;" x1="634.53" x2="895.6994" y1="31.1328" y2="31.1328"/><text fill="#000000" font-family="Verdana" font-size="13" font-weight="bold" lengthAdjust="spacing" textLength="47.144" x="639.53" y="47.1997">Config</text><text fill="#000000" font-family="Verdana" font-size="13" lengthAdjust="spacing" textLength="4.3799" x="686.674" y="47.1997">:</text><text fill="#000000" font-family="Verdana" font-size="13" lengthAdjust="spacing" textLength="242.1694" x="639.53" y="62.3325">&#8226; baseUrl: http://192.168.242.2:8093</text><text fill="#000000" font-family="Verdana" font-size="13" lengthAdjust="spacing" textLength="107.4341" x="639.53" y="77.4653">&#8226; username: zzq</text><text fill="#000000" font-family="Verdana" font-size="13" lengthAdjust="spacing" textLength="163.7949" x="639.53" y="92.5981">&#8226; password: [REDACTED]</text><text fill="#000000" font-family="Verdana" font-size="13" lengthAdjust="spacing" textLength="156.0952" x="639.53" y="107.731">&#8226; httpOptions: {3 keys}</text></g><!--entity metadata_cache_fs--><g class="entity" data-entity="metadata_cache_fs" data-source-line="29" data-uid="ent0010" id="entity_metadata_cache_fs"><rect fill="#ADD8E6" height="43.9688" rx="2.5" ry="2.5" style="stroke:#00008B;stroke-width:1;" width="156.1738" x="492.03" y="429.28"/><rect fill="#ADD8E6" height="10" style="stroke:#00008B;stroke-width:1;" width="15" x="628.2038" y="434.28"/><rect fill="#ADD8E6" height="2" style="stroke:#00008B;stroke-width:1;" width="4" x="626.2038" y="436.28"/><rect fill="#ADD8E6" height="2" style="stroke:#00008B;stroke-width:1;" width="4" x="626.2038" y="440.28"/><text fill="#000000" font-family="Verdana" font-size="12" lengthAdjust="spacing" textLength="116.1738" x="507.03" y="460.4187">metadata_cache_fs</text></g><g class="entity" data-entity="GMN11" data-source-line="31" data-uid="ent0012" id="entity_GMN11"><path d="M445.87,180.8 L445.87,304.7297 A0,0 0 0 0 445.87,304.7297 L560.49,304.7297 L569.29,428.87 L568.49,304.7297 L678.3676,304.7297 A0,0 0 0 0 678.3676,304.7297 L678.3676,190.8 L668.3676,180.8 L445.87,180.8 A0,0 0 0 0 445.87,180.8" fill="#FFFFFF" style="stroke:#000000;stroke-width:1;"/><path d="M668.3676,180.8 L668.3676,190.8 L678.3676,190.8 L668.3676,180.8" fill="#FFFFFF" style="stroke:#000000;stroke-width:1;"/><text fill="#000000" font-family="Verdana" font-size="13" font-weight="bold" lengthAdjust="spacing" textLength="35.4644" x="451.87" y="197.8669">Type</text><text fill="#000000" font-family="Verdana" font-size="13" lengthAdjust="spacing" textLength="176.0332" x="487.3344" y="197.8669">: backend.metadata_cache</text><line style="stroke:#000000;stroke-width:1;" x1="446.87" x2="677.3676" y1="200.9328" y2="200.9328"/><text fill="#000000" font-family="Verdana" font-size="13" font-weight="bold" lengthAdjust="spacing" textLength="47.144" x="451.87" y="216.9997">Config</text><text fill="#000000" font-family="Verdana" font-size="13" lengthAdjust="spacing" textLength="4.3799" x="499.014" y="216.9997">:</text><text fill="#000000" font-family="Verdana" font-size="13" lengthAdjust="spacing" textLength="182.019" x="451.87" y="232.1325">&#8226; originBackend: webdav_fs</text><text fill="#000000" font-family="Verdana" font-size="13" lengthAdjust="spacing" textLength="177.7534" x="451.87" y="247.2653">&#8226; cacheBackend: local_fs_d</text><text fill="#000000" font-family="Verdana" font-size="13" lengthAdjust="spacing" textLength="190.1631" x="451.87" y="262.3981">&#8226; cacheDir: /metadata_cache</text><text fill="#000000" font-family="Verdana" font-size="13" lengthAdjust="spacing" textLength="155.5303" x="451.87" y="277.531">&#8226; maxCacheAge: 2400h</text><text fill="#000000" font-family="Verdana" font-size="13" lengthAdjust="spacing" textLength="211.123" x="451.87" y="292.6638">&#8226; largeDirectoryThreshold: 1000</text></g><!--entity block_cache_fs--><g class="entity" data-entity="block_cache_fs" data-source-line="41" data-uid="ent0014" id="entity_block_cache_fs"><rect fill="#ADD8E6" height="43.9688" rx="2.5" ry="2.5" style="stroke:#00008B;stroke-width:1;" width="129.8535" x="92.19" y="630.21"/><rect fill="#ADD8E6" height="10" style="stroke:#00008B;stroke-width:1;" width="15" x="202.0435" y="635.21"/><rect fill="#ADD8E6" height="2" style="stroke:#00008B;stroke-width:1;" width="4" x="200.0435" y="637.21"/><rect fill="#ADD8E6" height="2" style="stroke:#00008B;stroke-width:1;" width="4" x="200.0435" y="641.21"/><text fill="#000000" font-family="Verdana" font-size="12" lengthAdjust="spacing" textLength="89.8535" x="107.19" y="661.3487">block_cache_fs</text></g><g class="entity" data-entity="GMN15" data-source-line="43" data-uid="ent0016" id="entity_GMN15"><path d="M11,381.73 L11,520.7925 A0,0 0 0 0 11,520.7925 L142.67,520.7925 L155.41,629.97 L150.67,520.7925 L271.2305,520.7925 A0,0 0 0 0 271.2305,520.7925 L271.2305,391.73 L261.2305,381.73 L11,381.73 A0,0 0 0 0 11,381.73" fill="#FFFFFF" style="stroke:#000000;stroke-width:1;"/><path d="M261.2305,381.73 L261.2305,391.73 L271.2305,391.73 L261.2305,381.73" fill="#FFFFFF" style="stroke:#000000;stroke-width:1;"/><text fill="#000000" font-family="Verdana" font-size="13" font-weight="bold" lengthAdjust="spacing" textLength="35.4644" x="17" y="398.7969">Type</text><text fill="#000000" font-family="Verdana" font-size="13" lengthAdjust="spacing" textLength="147.5195" x="52.4644" y="398.7969">: backend.block_cache</text><line style="stroke:#000000;stroke-width:1;" x1="12" x2="270.2305" y1="401.8628" y2="401.8628"/><text fill="#000000" font-family="Verdana" font-size="13" font-weight="bold" lengthAdjust="spacing" textLength="47.144" x="17" y="417.9297">Config</text><text fill="#000000" font-family="Verdana" font-size="13" lengthAdjust="spacing" textLength="4.3799" x="64.144" y="417.9297">:</text><text fill="#000000" font-family="Verdana" font-size="13" lengthAdjust="spacing" textLength="239.2305" x="17" y="433.0625">&#8226; originBackend: metadata_cache_fs</text><text fill="#000000" font-family="Verdana" font-size="13" lengthAdjust="spacing" textLength="177.7534" x="17" y="448.1953">&#8226; cacheBackend: local_fs_d</text><text fill="#000000" font-family="Verdana" font-size="13" lengthAdjust="spacing" textLength="161.6494" x="17" y="463.3281">&#8226; cacheDir: /block_cache</text><text fill="#000000" font-family="Verdana" font-size="13" lengthAdjust="spacing" textLength="139.3882" x="17" y="478.461">&#8226; blockSize: 1048576</text><text fill="#000000" font-family="Verdana" font-size="13" lengthAdjust="spacing" textLength="141.4258" x="17" y="493.5938">&#8226; readAheadBlocks: 2</text><text fill="#000000" font-family="Verdana" font-size="13" lengthAdjust="spacing" textLength="103.2827" x="17" y="508.7266">&#8226; ... and 1 more</text></g><!--entity union_fs--><g class="entity" data-entity="union_fs" data-source-line="54" data-uid="ent0018" id="entity_union_fs"><rect fill="#ADD8E6" height="43.9688" rx="2.5" ry="2.5" style="stroke:#00008B;stroke-width:1;" width="89.9688" x="425.13" y="831.14"/><rect fill="#ADD8E6" height="10" style="stroke:#00008B;stroke-width:1;" width="15" x="495.0988" y="836.14"/><rect fill="#ADD8E6" height="2" style="stroke:#00008B;stroke-width:1;" width="4" x="493.0988" y="838.14"/><rect fill="#ADD8E6" height="2" style="stroke:#00008B;stroke-width:1;" width="4" x="493.0988" y="842.14"/><text fill="#000000" font-family="Verdana" font-size="12" lengthAdjust="spacing" textLength="49.9688" x="440.13" y="862.2787">union_fs</text></g><g class="entity" data-entity="GMN19" data-source-line="56" data-uid="ent0020" id="entity_GMN19"><path d="M256.73,620.49 L256.73,683.8884 A0,0 0 0 0 256.73,683.8884 L353.9,683.8884 L455.82,830.74 L361.9,683.8884 L417.5054,683.8884 A0,0 0 0 0 417.5054,683.8884 L417.5054,630.49 L407.5054,620.49 L256.73,620.49 A0,0 0 0 0 256.73,620.49" fill="#FFFFFF" style="stroke:#000000;stroke-width:1;"/><path d="M407.5054,620.49 L407.5054,630.49 L417.5054,630.49 L407.5054,620.49" fill="#FFFFFF" style="stroke:#000000;stroke-width:1;"/><text fill="#000000" font-family="Verdana" font-size="13" font-weight="bold" lengthAdjust="spacing" textLength="35.4644" x="262.73" y="637.5569">Type</text><text fill="#000000" font-family="Verdana" font-size="13" lengthAdjust="spacing" textLength="104.311" x="298.1944" y="637.5569">: backend.union</text><line style="stroke:#000000;stroke-width:1;" x1="257.73" x2="416.5054" y1="640.6228" y2="640.6228"/><text fill="#000000" font-family="Verdana" font-size="13" font-weight="bold" lengthAdjust="spacing" textLength="47.144" x="262.73" y="656.6897">Config</text><text fill="#000000" font-family="Verdana" font-size="13" lengthAdjust="spacing" textLength="4.3799" x="309.874" y="656.6897">:</text><text fill="#000000" font-family="Verdana" font-size="13" lengthAdjust="spacing" textLength="115.1465" x="262.73" y="671.8225">&#8226; items: [4 items]</text></g><!--entity http_server--><g class="entity" data-entity="http_server" data-source-line="62" data-uid="ent0022" id="entity_http_server"><rect fill="#ADD8E6" height="43.9688" rx="2.5" ry="2.5" style="stroke:#00008B;stroke-width:1;" width="108.6191" x="298.81" y="999.65"/><rect fill="#ADD8E6" height="10" style="stroke:#00008B;stroke-width:1;" width="15" x="387.4291" y="1004.65"/><rect fill="#ADD8E6" height="2" style="stroke:#00008B;stroke-width:1;" width="4" x="385.4291" y="1006.65"/><rect fill="#ADD8E6" height="2" style="stroke:#00008B;stroke-width:1;" width="4" x="385.4291" y="1010.65"/><text fill="#000000" font-family="Verdana" font-size="12" lengthAdjust="spacing" textLength="68.6191" x="313.81" y="1030.7887">http_server</text></g><g class="entity" data-entity="GMN23" data-source-line="64" data-uid="ent0024" id="entity_GMN23"><path d="M238.37,806.29 L238.37,899.9541 A0,0 0 0 0 238.37,899.9541 L320.88,899.9541 L348.08,999.15 L328.88,899.9541 L389.8651,899.9541 A0,0 0 0 0 389.8651,899.9541 L389.8651,816.29 L379.8651,806.29 L238.37,806.29 A0,0 0 0 0 238.37,806.29" fill="#FFFFFF" style="stroke:#000000;stroke-width:1;"/><path d="M379.8651,806.29 L379.8651,816.29 L389.8651,816.29 L379.8651,806.29" fill="#FFFFFF" style="stroke:#000000;stroke-width:1;"/><text fill="#000000" font-family="Verdana" font-size="13" font-weight="bold" lengthAdjust="spacing" textLength="35.4644" x="244.37" y="823.3569">Type</text><text fill="#000000" font-family="Verdana" font-size="13" lengthAdjust="spacing" textLength="95.0308" x="279.8344" y="823.3569">: frontend.http</text><line style="stroke:#000000;stroke-width:1;" x1="239.37" x2="388.8651" y1="826.4228" y2="826.4228"/><text fill="#000000" font-family="Verdana" font-size="13" font-weight="bold" lengthAdjust="spacing" textLength="47.144" x="244.37" y="842.4897">Config</text><text fill="#000000" font-family="Verdana" font-size="13" lengthAdjust="spacing" textLength="4.3799" x="291.514" y="842.4897">:</text><text fill="#000000" font-family="Verdana" font-size="13" lengthAdjust="spacing" textLength="129.8286" x="244.37" y="857.6225">&#8226; backend: union_fs</text><text fill="#000000" font-family="Verdana" font-size="13" lengthAdjust="spacing" textLength="130.0254" x="244.37" y="872.7553">&#8226; address: localhost</text><text fill="#000000" font-family="Verdana" font-size="13" lengthAdjust="spacing" textLength="80.0439" x="244.37" y="887.8881">&#8226; port: 8051</text></g><!--entity request_logger--><g class="entity" data-entity="request_logger" data-source-line="72" data-uid="ent0026" id="entity_request_logger"><rect fill="#ADD8E6" height="43.9688" rx="2.5" ry="2.5" style="stroke:#00008B;stroke-width:1;" width="130.1055" x="819.06" y="831.14"/><rect fill="#ADD8E6" height="10" style="stroke:#00008B;stroke-width:1;" width="15" x="929.1655" y="836.14"/><rect fill="#ADD8E6" height="2" style="stroke:#00008B;stroke-width:1;" width="4" x="927.1655" y="838.14"/><rect fill="#ADD8E6" height="2" style="stroke:#00008B;stroke-width:1;" width="4" x="927.1655" y="842.14"/><text fill="#000000" font-family="Verdana" font-size="12" lengthAdjust="spacing" textLength="90.1055" x="834.06" y="862.2787">request_logger</text></g><g class="entity" data-entity="GMN27" data-source-line="74" data-uid="ent0028" id="entity_GMN27"><path d="M773.27,597.79 L773.27,706.5869 A0,0 0 0 0 773.27,706.5869 L877.93,706.5869 L883.79,830.83 L885.93,706.5869 L988.959,706.5869 A0,0 0 0 0 988.959,706.5869 L988.959,607.79 L978.959,597.79 L773.27,597.79 A0,0 0 0 0 773.27,597.79" fill="#FFFFFF" style="stroke:#000000;stroke-width:1;"/><path d="M978.959,597.79 L978.959,607.79 L988.959,607.79 L978.959,597.79" fill="#FFFFFF" style="stroke:#000000;stroke-width:1;"/><text fill="#000000" font-family="Verdana" font-size="13" font-weight="bold" lengthAdjust="spacing" textLength="35.4644" x="779.27" y="614.8569">Type</text><text fill="#000000" font-family="Verdana" font-size="13" lengthAdjust="spacing" textLength="95.4688" x="814.7344" y="614.8569">: logger.logger</text><line style="stroke:#000000;stroke-width:1;" x1="774.27" x2="987.959" y1="617.9228" y2="617.9228"/><text fill="#000000" font-family="Verdana" font-size="13" font-weight="bold" lengthAdjust="spacing" textLength="47.144" x="779.27" y="633.9897">Config</text><text fill="#000000" font-family="Verdana" font-size="13" lengthAdjust="spacing" textLength="4.3799" x="826.414" y="633.9897">:</text><text fill="#000000" font-family="Verdana" font-size="13" lengthAdjust="spacing" textLength="75.6069" x="779.27" y="649.1225">&#8226; level: info</text><text fill="#000000" font-family="Verdana" font-size="13" lengthAdjust="spacing" textLength="90.4922" x="779.27" y="664.2553">&#8226; format: json</text><text fill="#000000" font-family="Verdana" font-size="13" lengthAdjust="spacing" textLength="194.689" x="779.27" y="679.3881">&#8226; codeFilenameEnabled: false</text><text fill="#000000" font-family="Verdana" font-size="13" lengthAdjust="spacing" textLength="155.689" x="779.27" y="694.521">&#8226; localLogFile: {3 keys}</text></g><!--entity app_logger--><g class="entity" data-entity="app_logger" data-source-line="83" data-uid="ent0030" id="entity_app_logger"><rect fill="#ADD8E6" height="43.9688" rx="2.5" ry="2.5" style="stroke:#00008B;stroke-width:1;" width="106.8145" x="1021.71" y="831.14"/><rect fill="#ADD8E6" height="10" style="stroke:#00008B;stroke-width:1;" width="15" x="1108.5245" y="836.14"/><rect fill="#ADD8E6" height="2" style="stroke:#00008B;stroke-width:1;" width="4" x="1106.5245" y="838.14"/><rect fill="#ADD8E6" height="2" style="stroke:#00008B;stroke-width:1;" width="4" x="1106.5245" y="842.14"/><text fill="#000000" font-family="Verdana" font-size="12" lengthAdjust="spacing" textLength="66.8145" x="1036.71" y="862.2787">app_logger</text></g><g class="entity" data-entity="GMN31" data-source-line="85" data-uid="ent0032" id="entity_GMN31"><path d="M1023.77,605.36 L1023.77,699.0241 A0,0 0 0 0 1023.77,699.0241 L1099.53,699.0241 L1079.11,830.64 L1107.53,699.0241 L1200.459,699.0241 A0,0 0 0 0 1200.459,699.0241 L1200.459,615.36 L1190.459,605.36 L1023.77,605.36 A0,0 0 0 0 1023.77,605.36" fill="#FFFFFF" style="stroke:#000000;stroke-width:1;"/><path d="M1190.459,605.36 L1190.459,615.36 L1200.459,615.36 L1190.459,605.36" fill="#FFFFFF" style="stroke:#000000;stroke-width:1;"/><text fill="#000000" font-family="Verdana" font-size="13" font-weight="bold" lengthAdjust="spacing" textLength="35.4644" x="1029.77" y="622.4269">Type</text><text fill="#000000" font-family="Verdana" font-size="13" lengthAdjust="spacing" textLength="95.4688" x="1065.2344" y="622.4269">: logger.logger</text><line style="stroke:#000000;stroke-width:1;" x1="1024.77" x2="1199.459" y1="625.4928" y2="625.4928"/><text fill="#000000" font-family="Verdana" font-size="13" font-weight="bold" lengthAdjust="spacing" textLength="47.144" x="1029.77" y="641.5597">Config</text><text fill="#000000" font-family="Verdana" font-size="13" lengthAdjust="spacing" textLength="4.3799" x="1076.914" y="641.5597">:</text><text fill="#000000" font-family="Verdana" font-size="13" lengthAdjust="spacing" textLength="75.6069" x="1029.77" y="656.6925">&#8226; level: info</text><text fill="#000000" font-family="Verdana" font-size="13" lengthAdjust="spacing" textLength="90.4922" x="1029.77" y="671.8253">&#8226; format: json</text><text fill="#000000" font-family="Verdana" font-size="13" lengthAdjust="spacing" textLength="155.689" x="1029.77" y="686.9581">&#8226; localLogFile: {3 keys}</text></g><!--entity webdav_server--><g class="entity" data-entity="webdav_server" data-source-line="93" data-uid="ent0034" id="entity_webdav_server"><rect fill="#ADD8E6" height="43.9688" rx="2.5" ry="2.5" style="stroke:#00008B;stroke-width:1;" width="130.873" x="670.68" y="999.65"/><rect fill="#ADD8E6" height="10" style="stroke:#00008B;stroke-width:1;" width="15" x="781.553" y="1004.65"/><rect fill="#ADD8E6" height="2" style="stroke:#00008B;stroke-width:1;" width="4" x="779.553" y="1006.65"/><rect fill="#ADD8E6" height="2" style="stroke:#00008B;stroke-width:1;" width="4" x="779.553" y="1010.65"/><text fill="#000000" font-family="Verdana" font-size="12" lengthAdjust="spacing" textLength="90.873" x="685.68" y="1030.7887">webdav_server</text></g><g class="entity" data-entity="GMN35" data-source-line="95" data-uid="ent0036" id="entity_GMN35"><path d="M550.28,783.59 L550.28,922.6525 A0,0 0 0 0 550.28,922.6525 L691.58,922.6525 L727.23,999.18 L699.58,922.6525 L783.9519,922.6525 A0,0 0 0 0 783.9519,922.6525 L783.9519,793.59 L773.9519,783.59 L550.28,783.59 A0,0 0 0 0 550.28,783.59" fill="#FFFFFF" style="stroke:#000000;stroke-width:1;"/><path d="M773.9519,783.59 L773.9519,793.59 L783.9519,793.59 L773.9519,783.59" fill="#FFFFFF" style="stroke:#000000;stroke-width:1;"/><text fill="#000000" font-family="Verdana" font-size="13" font-weight="bold" lengthAdjust="spacing" textLength="35.4644" x="556.28" y="800.6569">Type</text><text fill="#000000" font-family="Verdana" font-size="13" lengthAdjust="spacing" textLength="119.1392" x="591.7444" y="800.6569">: frontend.webdav</text><line style="stroke:#000000;stroke-width:1;" x1="551.28" x2="782.9519" y1="803.7228" y2="803.7228"/><text fill="#000000" font-family="Verdana" font-size="13" font-weight="bold" lengthAdjust="spacing" textLength="47.144" x="556.28" y="819.7897">Config</text><text fill="#000000" font-family="Verdana" font-size="13" lengthAdjust="spacing" textLength="4.3799" x="603.424" y="819.7897">:</text><text fill="#000000" font-family="Verdana" font-size="13" lengthAdjust="spacing" textLength="129.8286" x="556.28" y="834.9225">&#8226; backend: union_fs</text><text fill="#000000" font-family="Verdana" font-size="13" lengthAdjust="spacing" textLength="134.1069" x="556.28" y="850.0553">&#8226; logger: app_logger</text><text fill="#000000" font-family="Verdana" font-size="13" lengthAdjust="spacing" textLength="212.6719" x="556.28" y="865.1881">&#8226; requestLogger: request_logger</text><text fill="#000000" font-family="Verdana" font-size="13" lengthAdjust="spacing" textLength="117.1523" x="556.28" y="880.321">&#8226; address: 0.0.0.0</text><text fill="#000000" font-family="Verdana" font-size="13" lengthAdjust="spacing" textLength="80.0439" x="556.28" y="895.4538">&#8226; port: 8052</text><text fill="#000000" font-family="Verdana" font-size="13" lengthAdjust="spacing" textLength="103.2827" x="556.28" y="910.5866">&#8226; ... and 1 more</text></g><!--entity component_diagram--><g class="entity" data-entity="component_diagram" data-source-line="106" data-uid="ent0038" id="entity_component_diagram"><rect fill="#ADD8E6" height="43.9688" rx="2.5" ry="2.5" style="stroke:#00008B;stroke-width:1;" width="163.7852" x="1153.22" y="999.65"/><rect fill="#ADD8E6" height="10" style="stroke:#00008B;stroke-width:1;" width="15" x="1297.0052" y="1004.65"/><rect fill="#ADD8E6" height="2" style="stroke:#00008B;stroke-width:1;" width="4" x="1295.0052" y="1006.65"/><rect fill="#ADD8E6" height="2" style="stroke:#00008B;stroke-width:1;" width="4" x="1295.0052" y="1010.65"/><text fill="#000000" font-family="Verdana" font-size="12" lengthAdjust="spacing" textLength="123.7852" x="1168.22" y="1030.7887">component_diagram</text></g><g class="entity" data-entity="GMN39" data-source-line="108" data-uid="ent0040" id="entity_GMN39"><path d="M1163.26,806.29 L1163.26,899.9541 A0,0 0 0 0 1163.26,899.9541 L1292.66,899.9541 L1246.08,999.15 L1300.66,899.9541 L1476.9631,899.9541 A0,0 0 0 0 1476.9631,899.9541 L1476.9631,816.29 L1466.9631,806.29 L1163.26,806.29 A0,0 0 0 0 1163.26,806.29" fill="#FFFFFF" style="stroke:#000000;stroke-width:1;"/><path d="M1466.9631,806.29 L1466.9631,816.29 L1476.9631,816.29 L1466.9631,806.29" fill="#FFFFFF" style="stroke:#000000;stroke-width:1;"/><text fill="#000000" font-family="Verdana" font-size="13" font-weight="bold" lengthAdjust="spacing" textLength="35.4644" x="1169.26" y="823.3569">Type</text><text fill="#000000" font-family="Verdana" font-size="13" lengthAdjust="spacing" textLength="249.5898" x="1204.7244" y="823.3569">: builtin.component_diagram_exporter</text><line style="stroke:#000000;stroke-width:1;" x1="1164.26" x2="1475.9631" y1="826.4228" y2="826.4228"/><text fill="#000000" font-family="Verdana" font-size="13" font-weight="bold" lengthAdjust="spacing" textLength="47.144" x="1169.26" y="842.4897">Config</text><text fill="#000000" font-family="Verdana" font-size="13" lengthAdjust="spacing" textLength="4.3799" x="1216.404" y="842.4897">:</text><text fill="#000000" font-family="Verdana" font-size="13" lengthAdjust="spacing" textLength="134.1069" x="1169.26" y="857.6225">&#8226; logger: app_logger</text><text fill="#000000" font-family="Verdana" font-size="13" lengthAdjust="spacing" textLength="274.0601" x="1169.26" y="872.7553">&#8226; outputSVGFile: component_diagram.svg</text><text fill="#000000" font-family="Verdana" font-size="13" lengthAdjust="spacing" textLength="292.7031" x="1169.26" y="887.8881">&#8226; outputPUMLFile: component_diagram.puml</text></g><!--link webdav_fs to metadata_cache_fs--><g class="link" data-entity-1="webdav_fs" data-entity-2="metadata_cache_fs" data-source-line="117" data-uid="lnk42" id="link_webdav_fs_metadata_cache_fs"><path d="M741.24,265.01 C727.99,276.77 711.19,291.61 696.12,304.73 C680.66,318.18 675.3,319.95 661.12,334.73 C631.77,365.31 605.7094,399.929 588.5594,423.919" fill="none" id="webdav_fs-to-metadata_cache_fs" style="stroke:#000000;stroke-width:1;"/><polygon fill="#000000" points="585.07,428.8,593.558,423.8047,587.9778,424.7325,587.05,419.1522,585.07,428.8" style="stroke:#000000;stroke-width:1;"/><text fill="#000000" font-family="Verdana" font-size="13" lengthAdjust="spacing" textLength="29.7832" x="662.12" y="347.7969">uses</text></g><!--link local_fs_d to metadata_cache_fs--><g class="link" data-entity-1="local_fs_d" data-entity-2="metadata_cache_fs" data-source-line="118" data-uid="lnk43" id="link_local_fs_d_metadata_cache_fs"><path d="M384.76,265.22 C397.38,277.03 413.46,291.87 428.12,304.73 C443.77,318.47 449.04,320.36 464.12,334.73 C496.82,365.91 527.7666,400.6819 548.2366,424.4719" fill="none" id="local_fs_d-to-metadata_cache_fs" style="stroke:#000000;stroke-width:1;"/><polygon fill="#000000" points="552.15,429.02,549.312,419.5889,548.8888,425.2299,543.2478,424.8068,552.15,429.02" style="stroke:#000000;stroke-width:1;"/><text fill="#000000" font-family="Verdana" font-size="13" lengthAdjust="spacing" textLength="29.7832" x="481.12" y="347.7969">uses</text></g><!--link metadata_cache_fs to block_cache_fs--><g class="link" data-entity-1="metadata_cache_fs" data-entity-2="block_cache_fs" data-source-line="119" data-uid="lnk44" id="link_metadata_cache_fs_block_cache_fs"><path d="M532.5,473.65 C476.99,505.1 377.8,560.87 360.12,567.79 C308.52,587.98 289.93,575.7 239.12,597.79 C219.8,606.19 204.8298,615.489 189.5098,626.449" fill="none" id="metadata_cache_fs-to-block_cache_fs" style="stroke:#000000;stroke-width:1;"/><polygon fill="#000000" points="184.63,629.94,194.2771,627.9566,188.6965,627.0308,189.6224,621.4502,184.63,629.94" style="stroke:#000000;stroke-width:1;"/><text fill="#000000" font-family="Verdana" font-size="13" lengthAdjust="spacing" textLength="29.7832" x="393.12" y="563.8569">uses</text></g><!--link local_fs_d to block_cache_fs--><g class="link" data-entity-1="local_fs_d" data-entity-2="block_cache_fs" data-source-line="120" data-uid="lnk45" id="link_local_fs_d_block_cache_fs"><path d="M360.35,265.01 C355.55,313.44 339.06,434.48 289.12,520.79 C262.9,566.1 221.5215,602.7533 191.3315,626.1633" fill="none" id="local_fs_d-to-block_cache_fs" style="stroke:#000000;stroke-width:1;"/><polygon fill="#000000" points="186.59,629.84,196.1534,627.486,190.5413,626.7761,191.2512,621.164,186.59,629.84" style="stroke:#000000;stroke-width:1;"/><text fill="#000000" font-family="Verdana" font-size="13" lengthAdjust="spacing" textLength="29.7832" x="342.12" y="455.8269">uses</text></g><!--link local_fs_d to union_fs--><g class="link" data-entity-1="local_fs_d" data-entity-2="union_fs" data-source-line="121" data-uid="lnk46" id="link_local_fs_d_union_fs"><path d="M367.66,265.22 C380.37,315.05 412.01,442.65 431.12,550.79 C449.56,655.2 462.4807,775.45 467.4407,824.86" fill="none" id="local_fs_d-to-union_fs" style="stroke:#000000;stroke-width:1;"/><polygon fill="#000000" points="468.04,830.83,471.1211,821.4755,467.5406,825.855,463.1611,822.2745,468.04,830.83" style="stroke:#000000;stroke-width:1;"/><text fill="#000000" font-family="Verdana" font-size="13" lengthAdjust="spacing" textLength="29.7832" x="435.12" y="563.8569">uses</text></g><!--link metadata_cache_fs to union_fs--><g class="link" data-entity-1="metadata_cache_fs" data-entity-2="union_fs" data-source-line="122" data-uid="lnk47" id="link_metadata_cache_fs_union_fs"><path d="M565.04,473.48 C553.22,522.74 522.84,648.66 496.12,753.59 C489.3,780.33 482.6929,805.2744 477.3529,825.2044" fill="none" id="metadata_cache_fs-to-union_fs" style="stroke:#000000;stroke-width:1;"/><polygon fill="#000000" points="475.8,831,481.993,823.3419,477.094,826.1704,474.2656,821.2714,475.8,831" style="stroke:#000000;stroke-width:1;"/><text fill="#000000" font-family="Verdana" font-size="13" lengthAdjust="spacing" textLength="29.7832" x="535.12" y="656.7569">uses</text></g><!--link block_cache_fs to union_fs--><g class="link" data-entity-1="block_cache_fs" data-entity-2="union_fs" data-source-line="123" data-uid="lnk48" id="link_block_cache_fs_union_fs"><path d="M187.6,674.58 C202.76,684.82 221.56,696.92 239.12,706.59 C311.06,746.22 340.68,735.29 407.12,783.59 C425.42,796.89 438.7934,811.4535 450.5534,826.1635" fill="none" id="block_cache_fs-to-union_fs" style="stroke:#000000;stroke-width:1;"/><polygon fill="#000000" points="454.3,830.85,451.8044,821.3226,451.1778,826.9446,445.5558,826.3181,454.3,830.85" style="stroke:#000000;stroke-width:1;"/><text fill="#000000" font-family="Verdana" font-size="13" lengthAdjust="spacing" textLength="29.7832" x="357.12" y="749.6569">uses</text></g><!--link webdav_fs to union_fs--><g class="link" data-entity-1="webdav_fs" data-entity-2="union_fs" data-source-line="124" data-uid="lnk49" id="link_webdav_fs_union_fs"><path d="M758.51,264.95 C743.71,311.77 706.04,427.32 666.12,520.79 C629.84,605.71 620.59,627.38 573.12,706.59 C545.42,752.78 511.4431,798.6503 490.1831,826.3503" fill="none" id="webdav_fs-to-union_fs" style="stroke:#000000;stroke-width:1;"/><polygon fill="#000000" points="486.53,831.11,495.1828,826.4059,489.5743,827.1436,488.8365,821.535,486.53,831.11" style="stroke:#000000;stroke-width:1;"/><text fill="#000000" font-family="Verdana" font-size="13" lengthAdjust="spacing" textLength="29.7832" x="654.12" y="563.8569">uses</text></g><!--link union_fs to http_server--><g class="link" data-entity-1="union_fs" data-entity-2="http_server" data-source-line="125" data-uid="lnk50" id="link_union_fs_http_server"><path d="M455.06,875.55 C432.59,907.52 394,962.451 371.56,994.381" fill="none" id="union_fs-to-http_server" style="stroke:#000000;stroke-width:1;"/><polygon fill="#000000" points="368.11,999.29,376.5576,994.2265,370.985,995.1992,370.0123,989.6266,368.11,999.29" style="stroke:#000000;stroke-width:1;"/><text fill="#000000" font-family="Verdana" font-size="13" lengthAdjust="spacing" textLength="29.7832" x="399.12" y="965.7169">uses</text></g><!--link union_fs to webdav_server--><g class="link" data-entity-1="union_fs" data-entity-2="webdav_server" data-source-line="126" data-uid="lnk51" id="link_union_fs_webdav_server"><path d="M486.26,875.59 C498.05,890.21 515.08,909.26 533.12,922.65 C577.58,955.66 629.3439,979.8699 671.7339,996.9299" fill="none" id="union_fs-to-webdav_server" style="stroke:#000000;stroke-width:1;"/><polygon fill="#000000" points="677.3,999.17,670.4442,992.0991,672.6616,997.3032,667.4574,999.5206,677.3,999.17" style="stroke:#000000;stroke-width:1;"/><text fill="#000000" font-family="Verdana" font-size="13" lengthAdjust="spacing" textLength="29.7832" x="607.12" y="965.7169">uses</text></g><!--link app_logger to webdav_server--><g class="link" data-entity-1="app_logger" data-entity-2="webdav_server" data-source-line="127" data-uid="lnk52" id="link_app_logger_webdav_server"><path d="M1044.73,875.3 C1023.51,889.61 994.25,908.41 967.12,922.65 C909.83,952.71 846.8766,978.707 799.3966,997.057" fill="none" id="app_logger-to-webdav_server" style="stroke:#000000;stroke-width:1;"/><polygon fill="#000000" points="793.8,999.22,803.6368,999.7066,798.4638,997.4175,800.7529,992.2445,793.8,999.22" style="stroke:#000000;stroke-width:1;"/><text fill="#000000" font-family="Verdana" font-size="13" lengthAdjust="spacing" textLength="29.7832" x="906.12" y="965.7169">uses</text></g><!--link request_logger to webdav_server--><g class="link" data-entity-1="request_logger" data-entity-2="webdav_server" data-source-line="128" data-uid="lnk53" id="link_request_logger_webdav_server"><path d="M865.07,875.55 C836.65,907.52 787.4452,962.8747 759.0752,994.8047" fill="none" id="request_logger-to-webdav_server" style="stroke:#000000;stroke-width:1;"/><polygon fill="#000000" points="755.09,999.29,764.058,995.2189,758.411,995.5522,758.0776,989.9052,755.09,999.29" style="stroke:#000000;stroke-width:1;"/><text fill="#000000" font-family="Verdana" font-size="13" lengthAdjust="spacing" textLength="29.7832" x="793.12" y="965.7169">uses</text></g><!--link app_logger to component_diagram--><g class="link" data-entity-1="app_logger" data-entity-2="component_diagram" data-source-line="129" data-uid="lnk54" id="link_app_logger_component_diagram"><path d="M1095.7,875.55 C1126.43,907.52 1179.7736,963.0328 1210.4436,994.9628" fill="none" id="app_logger-to-component_diagram" style="stroke:#000000;stroke-width:1;"/><polygon fill="#000000" points="1214.6,999.29,1211.2502,990.0283,1211.1363,995.684,1205.4806,995.5702,1214.6,999.29" style="stroke:#000000;stroke-width:1;"/><text fill="#000000" font-family="Verdana" font-size="13" lengthAdjust="spacing" textLength="29.7832" x="1184.12" y="965.7169">uses</text></g><!--SRC=[jLPRJzim57xFhp1FaogHNYYiv65IRw19t0HbUq0eSfkJn6jY1zifb6dIVij-sdx9x3HDuoOjy30XePxpVRNF-Sx5FV309nJGyFhovlfgV3LnHr_xvxVzI-j0XX03IY9Cg6M9EQ49vZX6KpoR1vobr1koY77qFIGIIlYCnGcZGELWYtX1Wb0EehIUpBW7V4KSOJxVnJjZLDwHLq3jJXry9vSHe3IEEfPLED53n6OuSdtXUey82xGnBSea8CaInFoo6w56Ox9CeD5mieI1UdO6A-JmC8E7ZFeaK0Hb_VtzHz44Z0XtqCXfMegFzD565CymzV12NP05KLX631jlNGWhT7yCzpnoK2XbuZIRxTEEtJxfsPrkn-uulTRfKKvC1N2AOt3Gw-jJxakm4C-g30vwk1sF-iF9UFIOG_guwqGIHeM3VXwXEIp5h_eaOv3OmnAxCpmBOPrinMiaNKNhaZTPkqLWd0I43bRVSWn5DPnzkq2DcXTmLiTcvKADn_XbgCr-eCJhT5kjC0SYp0FzHPX9nfUJa8C8MQIkQBTQhNgjfkhskIcKwJ9KseBg92fHtgrFdVWVqycyDUj3xT5ZghFlzeu_d-G01-prG_Lle1cgcJevODismagZDeePXtgvKgeQS2tKsZ0aAfnrucJWRbdK5ejLG0_TrQV7-XZq9BXgU1R0ip1AjX59sLyEnkTgWUbeD67V8EUwbpBIVknvggz4Ne-G2RaUNiQbWtgjutPzt1oUKX3IZLWGvA6RBYFwBQYSmCfb5yYE129OWDf3XFeiz_YCnrZ5-4DaLSXwY7bmHYBGcsXCyJG2bR6F8x7keopB2nPeqbkB1oT9ERkDQMHMSl-lh3uITBwSIWrbUEgUXdrDzVRxKDzMgxmTKvtLl6QDS97ZbRumUh9bPt_R7VcH4Iy-kXx1WNhQCqqgNaENAcfCVqeYIQXTORdmeaFSM-vTih1K9gcy-tQ-gd7bR5ii0eDwStzviOkRg9yh9JK-eH4aoWGw8o2iulbIGNwfBclawBTSM9lzl9zN1JJTV5fsdFakqhgnzj-tpTewkevYwh2D5hO6Ixkt5ZS6QStOr7Wtnsp_TvzLANdE-mS0]--></g></svg>