<svg xmlns="http://www.w3.org/2000/svg" xmlns:xlink="http://www.w3.org/1999/xlink" contentStyleType="text/css" data-diagram-type="DESCRIPTION" height="852px" preserveAspectRatio="none" style="width:779px;height:852px;background:#FFFFFF;" version="1.1" viewBox="0 0 779 852" width="779px" zoomAndPan="magnify"><defs/><g><!--entity local_fs_d--><g class="entity" data-entity="local_fs_d" data-source-line="10" data-uid="ent0002" id="entity_local_fs_d"><rect fill="#ADD8E6" height="43.9688" rx="2.5" ry="2.5" style="stroke:#00008B;stroke-width:1;" width="98.0547" x="613.36" y="175.38"/><rect fill="#ADD8E6" height="10" style="stroke:#00008B;stroke-width:1;" width="15" x="691.4147" y="180.38"/><rect fill="#ADD8E6" height="2" style="stroke:#00008B;stroke-width:1;" width="4" x="689.4147" y="182.38"/><rect fill="#ADD8E6" height="2" style="stroke:#00008B;stroke-width:1;" width="4" x="689.4147" y="186.38"/><text fill="#000000" font-family="Verdana" font-size="12" lengthAdjust="spacing" textLength="58.0547" x="628.36" y="206.5187">local_fs_d</text></g><g class="entity" data-entity="GMN3" data-source-line="12" data-uid="ent0004" id="entity_GMN3"><path d="M585,11 L585,74.3984 A0,0 0 0 0 585,74.3984 L658.39,74.3984 L662.39,175.32 L666.39,74.3984 L739.7832,74.3984 A0,0 0 0 0 739.7832,74.3984 L739.7832,21 L729.7832,11 L585,11 A0,0 0 0 0 585,11" fill="#FFFFFF" style="stroke:#000000;stroke-width:1;"/><path d="M729.7832,11 L729.7832,21 L739.7832,21 L729.7832,11" fill="#FFFFFF" style="stroke:#000000;stroke-width:1;"/><text fill="#000000" font-family="Verdana" font-size="13" font-weight="bold" lengthAdjust="spacing" textLength="35.4644" x="591" y="28.0669">Type</text><text fill="#000000" font-family="Verdana" font-size="13" lengthAdjust="spacing" textLength="98.3188" x="626.4644" y="28.0669">: backend.local</text><line style="stroke:#000000;stroke-width:1;" x1="586" x2="738.7832" y1="31.1328" y2="31.1328"/><text fill="#000000" font-family="Verdana" font-size="13" font-weight="bold" lengthAdjust="spacing" textLength="47.144" x="591" y="47.1997">Config</text><text fill="#000000" font-family="Verdana" font-size="13" lengthAdjust="spacing" textLength="4.3799" x="638.144" y="47.1997">:</text><text fill="#000000" font-family="Verdana" font-size="13" lengthAdjust="spacing" textLength="89.0386" x="591" y="62.3325">&#8226; baseDir: D:/</text></g><!--entity local_fs_z--><g class="entity" data-entity="local_fs_z" data-source-line="18" data-uid="ent0006" id="entity_local_fs_z"><rect fill="#ADD8E6" height="43.9688" rx="2.5" ry="2.5" style="stroke:#00008B;stroke-width:1;" width="96.7363" x="40.02" y="175.38"/><rect fill="#ADD8E6" height="10" style="stroke:#00008B;stroke-width:1;" width="15" x="116.7563" y="180.38"/><rect fill="#ADD8E6" height="2" style="stroke:#00008B;stroke-width:1;" width="4" x="114.7563" y="182.38"/><rect fill="#ADD8E6" height="2" style="stroke:#00008B;stroke-width:1;" width="4" x="114.7563" y="186.38"/><text fill="#000000" font-family="Verdana" font-size="12" lengthAdjust="spacing" textLength="56.7363" x="55.02" y="206.5187">local_fs_z</text></g><g class="entity" data-entity="GMN7" data-source-line="20" data-uid="ent0008" id="entity_GMN7"><path d="M11,11 L11,74.3984 A0,0 0 0 0 11,74.3984 L84.39,74.3984 L88.39,175.32 L92.39,74.3984 L165.7832,74.3984 A0,0 0 0 0 165.7832,74.3984 L165.7832,21 L155.7832,11 L11,11 A0,0 0 0 0 11,11" fill="#FFFFFF" style="stroke:#000000;stroke-width:1;"/><path d="M155.7832,11 L155.7832,21 L165.7832,21 L155.7832,11" fill="#FFFFFF" style="stroke:#000000;stroke-width:1;"/><text fill="#000000" font-family="Verdana" font-size="13" font-weight="bold" lengthAdjust="spacing" textLength="35.4644" x="17" y="28.0669">Type</text><text fill="#000000" font-family="Verdana" font-size="13" lengthAdjust="spacing" textLength="98.3188" x="52.4644" y="28.0669">: backend.local</text><line style="stroke:#000000;stroke-width:1;" x1="12" x2="164.7832" y1="31.1328" y2="31.1328"/><text fill="#000000" font-family="Verdana" font-size="13" font-weight="bold" lengthAdjust="spacing" textLength="47.144" x="17" y="47.1997">Config</text><text fill="#000000" font-family="Verdana" font-size="13" lengthAdjust="spacing" textLength="4.3799" x="64.144" y="47.1997">:</text><text fill="#000000" font-family="Verdana" font-size="13" lengthAdjust="spacing" textLength="87.9341" x="17" y="62.3325">&#8226; baseDir: Z:/</text></g><!--entity metadata_cache_fs--><g class="entity" data-entity="metadata_cache_fs" data-source-line="26" data-uid="ent0010" id="entity_metadata_cache_fs"><rect fill="#ADD8E6" height="43.9688" rx="2.5" ry="2.5" style="stroke:#00008B;stroke-width:1;" width="156.1738" x="141.3" y="368.74"/><rect fill="#ADD8E6" height="10" style="stroke:#00008B;stroke-width:1;" width="15" x="277.4738" y="373.74"/><rect fill="#ADD8E6" height="2" style="stroke:#00008B;stroke-width:1;" width="4" x="275.4738" y="375.74"/><rect fill="#ADD8E6" height="2" style="stroke:#00008B;stroke-width:1;" width="4" x="275.4738" y="379.74"/><text fill="#000000" font-family="Verdana" font-size="12" lengthAdjust="spacing" textLength="116.1738" x="156.3" y="399.8787">metadata_cache_fs</text></g><g class="entity" data-entity="GMN11" data-source-line="28" data-uid="ent0012" id="entity_GMN11"><path d="M172.14,135.4 L172.14,259.3297 A0,0 0 0 0 172.14,259.3297 L262.27,259.3297 L227.01,368.61 L270.27,259.3297 L404.6376,259.3297 A0,0 0 0 0 404.6376,259.3297 L404.6376,145.4 L394.6376,135.4 L172.14,135.4 A0,0 0 0 0 172.14,135.4" fill="#FFFFFF" style="stroke:#000000;stroke-width:1;"/><path d="M394.6376,135.4 L394.6376,145.4 L404.6376,145.4 L394.6376,135.4" fill="#FFFFFF" style="stroke:#000000;stroke-width:1;"/><text fill="#000000" font-family="Verdana" font-size="13" font-weight="bold" lengthAdjust="spacing" textLength="35.4644" x="178.14" y="152.4669">Type</text><text fill="#000000" font-family="Verdana" font-size="13" lengthAdjust="spacing" textLength="176.0332" x="213.6044" y="152.4669">: backend.metadata_cache</text><line style="stroke:#000000;stroke-width:1;" x1="173.14" x2="403.6376" y1="155.5328" y2="155.5328"/><text fill="#000000" font-family="Verdana" font-size="13" font-weight="bold" lengthAdjust="spacing" textLength="47.144" x="178.14" y="171.5997">Config</text><text fill="#000000" font-family="Verdana" font-size="13" lengthAdjust="spacing" textLength="4.3799" x="225.284" y="171.5997">:</text><text fill="#000000" font-family="Verdana" font-size="13" lengthAdjust="spacing" textLength="174.8398" x="178.14" y="186.7325">&#8226; originBackend: local_fs_z</text><text fill="#000000" font-family="Verdana" font-size="13" lengthAdjust="spacing" textLength="177.7534" x="178.14" y="201.8653">&#8226; cacheBackend: local_fs_d</text><text fill="#000000" font-family="Verdana" font-size="13" lengthAdjust="spacing" textLength="190.1631" x="178.14" y="216.9981">&#8226; cacheDir: /metadata_cache</text><text fill="#000000" font-family="Verdana" font-size="13" lengthAdjust="spacing" textLength="155.5303" x="178.14" y="232.131">&#8226; maxCacheAge: 2400h</text><text fill="#000000" font-family="Verdana" font-size="13" lengthAdjust="spacing" textLength="103.2827" x="178.14" y="247.2638">&#8226; ... and 1 more</text></g><!--entity block_cache_fs--><g class="entity" data-entity="block_cache_fs" data-source-line="38" data-uid="ent0014" id="entity_block_cache_fs"><rect fill="#ADD8E6" height="43.9688" rx="2.5" ry="2.5" style="stroke:#00008B;stroke-width:1;" width="129.8535" x="348.46" y="531.84"/><rect fill="#ADD8E6" height="10" style="stroke:#00008B;stroke-width:1;" width="15" x="458.3135" y="536.84"/><rect fill="#ADD8E6" height="2" style="stroke:#00008B;stroke-width:1;" width="4" x="456.3135" y="538.84"/><rect fill="#ADD8E6" height="2" style="stroke:#00008B;stroke-width:1;" width="4" x="456.3135" y="542.84"/><text fill="#000000" font-family="Verdana" font-size="12" lengthAdjust="spacing" textLength="89.8535" x="363.46" y="562.9787">block_cache_fs</text></g><g class="entity" data-entity="GMN15" data-source-line="40" data-uid="ent0016" id="entity_GMN15"><path d="M332.28,336.33 L332.28,445.1269 L592.5105,445.1269 L592.5105,346.33 L582.5105,336.33 L332.28,336.33" fill="#FFFFFF" style="stroke:#000000;stroke-width:1;"/><path d="M582.5105,336.33 L582.5105,346.33 L592.5105,346.33 L582.5105,336.33" fill="#FFFFFF" style="stroke:#000000;stroke-width:1;"/><text fill="#000000" font-family="Verdana" font-size="13" font-weight="bold" lengthAdjust="spacing" textLength="35.4644" x="338.28" y="353.3969">Type</text><text fill="#000000" font-family="Verdana" font-size="13" lengthAdjust="spacing" textLength="147.5195" x="373.7444" y="353.3969">: backend.block_cache</text><line style="stroke:#000000;stroke-width:1;" x1="333.28" x2="591.5105" y1="356.4628" y2="356.4628"/><text fill="#000000" font-family="Verdana" font-size="13" font-weight="bold" lengthAdjust="spacing" textLength="47.144" x="338.28" y="372.5297">Config</text><text fill="#000000" font-family="Verdana" font-size="13" lengthAdjust="spacing" textLength="4.3799" x="385.424" y="372.5297">:</text><text fill="#000000" font-family="Verdana" font-size="13" lengthAdjust="spacing" textLength="239.2305" x="338.28" y="387.6625">&#8226; originBackend: metadata_cache_fs</text><text fill="#000000" font-family="Verdana" font-size="13" lengthAdjust="spacing" textLength="177.7534" x="338.28" y="402.7953">&#8226; cacheBackend: local_fs_d</text><text fill="#000000" font-family="Verdana" font-size="13" lengthAdjust="spacing" textLength="161.6494" x="338.28" y="417.9281">&#8226; cacheDir: /block_cache</text><text fill="#000000" font-family="Verdana" font-size="13" lengthAdjust="spacing" textLength="147.6592" x="338.28" y="433.061">&#8226; blockSize: 41943040</text></g><!--entity union_fs--><g class="entity" data-entity="union_fs" data-source-line="49" data-uid="ent0018" id="entity_union_fs"><rect fill="#ADD8E6" height="43.9688" rx="2.5" ry="2.5" style="stroke:#00008B;stroke-width:1;" width="89.9688" x="368.41" y="672.24"/><rect fill="#ADD8E6" height="10" style="stroke:#00008B;stroke-width:1;" width="15" x="438.3788" y="677.24"/><rect fill="#ADD8E6" height="2" style="stroke:#00008B;stroke-width:1;" width="4" x="436.3788" y="679.24"/><rect fill="#ADD8E6" height="2" style="stroke:#00008B;stroke-width:1;" width="4" x="436.3788" y="683.24"/><text fill="#000000" font-family="Verdana" font-size="12" lengthAdjust="spacing" textLength="49.9688" x="383.41" y="703.3787">union_fs</text></g><g class="entity" data-entity="GMN19" data-source-line="51" data-uid="ent0020" id="entity_GMN19"><path d="M513,522.12 L513,585.5184 A0,0 0 0 0 513,585.5184 L549,585.5184 L441.08,671.94 L557,585.5184 L673.7754,585.5184 A0,0 0 0 0 673.7754,585.5184 L673.7754,532.12 L663.7754,522.12 L513,522.12 A0,0 0 0 0 513,522.12" fill="#FFFFFF" style="stroke:#000000;stroke-width:1;"/><path d="M663.7754,522.12 L663.7754,532.12 L673.7754,532.12 L663.7754,522.12" fill="#FFFFFF" style="stroke:#000000;stroke-width:1;"/><text fill="#000000" font-family="Verdana" font-size="13" font-weight="bold" lengthAdjust="spacing" textLength="35.4644" x="519" y="539.1869">Type</text><text fill="#000000" font-family="Verdana" font-size="13" lengthAdjust="spacing" textLength="104.311" x="554.4644" y="539.1869">: backend.union</text><line style="stroke:#000000;stroke-width:1;" x1="514" x2="672.7754" y1="542.2528" y2="542.2528"/><text fill="#000000" font-family="Verdana" font-size="13" font-weight="bold" lengthAdjust="spacing" textLength="47.144" x="519" y="558.3197">Config</text><text fill="#000000" font-family="Verdana" font-size="13" lengthAdjust="spacing" textLength="4.3799" x="566.144" y="558.3197">:</text><text fill="#000000" font-family="Verdana" font-size="13" lengthAdjust="spacing" textLength="115.1465" x="519" y="573.4525">&#8226; items: [4 items]</text></g><!--entity http_server--><g class="entity" data-entity="http_server" data-source-line="57" data-uid="ent0022" id="entity_http_server"><rect fill="#ADD8E6" height="43.9688" rx="2.5" ry="2.5" style="stroke:#00008B;stroke-width:1;" width="108.6191" x="232.08" y="802.92"/><rect fill="#ADD8E6" height="10" style="stroke:#00008B;stroke-width:1;" width="15" x="320.6991" y="807.92"/><rect fill="#ADD8E6" height="2" style="stroke:#00008B;stroke-width:1;" width="4" x="318.6991" y="809.92"/><rect fill="#ADD8E6" height="2" style="stroke:#00008B;stroke-width:1;" width="4" x="318.6991" y="813.92"/><text fill="#000000" font-family="Verdana" font-size="12" lengthAdjust="spacing" textLength="68.6191" x="247.08" y="834.0587">http_server</text></g><g class="entity" data-entity="GMN23" data-source-line="59" data-uid="ent0024" id="entity_GMN23"><path d="M181.64,662.52 L181.64,725.9184 A0,0 0 0 0 181.64,725.9184 L260.41,725.9184 L281.61,802.7 L268.41,725.9184 L333.1351,725.9184 A0,0 0 0 0 333.1351,725.9184 L333.1351,672.52 L323.1351,662.52 L181.64,662.52 A0,0 0 0 0 181.64,662.52" fill="#FFFFFF" style="stroke:#000000;stroke-width:1;"/><path d="M323.1351,662.52 L323.1351,672.52 L333.1351,672.52 L323.1351,662.52" fill="#FFFFFF" style="stroke:#000000;stroke-width:1;"/><text fill="#000000" font-family="Verdana" font-size="13" font-weight="bold" lengthAdjust="spacing" textLength="35.4644" x="187.64" y="679.5869">Type</text><text fill="#000000" font-family="Verdana" font-size="13" lengthAdjust="spacing" textLength="95.0308" x="223.1044" y="679.5869">: frontend.http</text><line style="stroke:#000000;stroke-width:1;" x1="182.64" x2="332.1351" y1="682.6528" y2="682.6528"/><text fill="#000000" font-family="Verdana" font-size="13" font-weight="bold" lengthAdjust="spacing" textLength="47.144" x="187.64" y="698.7197">Config</text><text fill="#000000" font-family="Verdana" font-size="13" lengthAdjust="spacing" textLength="4.3799" x="234.784" y="698.7197">:</text><text fill="#000000" font-family="Verdana" font-size="13" lengthAdjust="spacing" textLength="129.8286" x="187.64" y="713.8525">&#8226; backend: union_fs</text></g><!--link GMN15 to block_cache_fs--><g class="link" data-entity-1="GMN15" data-entity-2="block_cache_fs" data-source-line="40" data-uid="lnk17" id="link_GMN15_block_cache_fs"><path d="M447.26,445.5 C442.89,460.62 438.05,477.04 433.39,492.12 C429.33,505.27 424.51,519.92 420.62,531.54" fill="none" id="GMN15-block_cache_fs" style="stroke:#000000;stroke-width:1;stroke-dasharray:7,7;"/></g><!--link local_fs_z to metadata_cache_fs--><g class="link" data-entity-1="local_fs_z" data-entity-2="metadata_cache_fs" data-source-line="66" data-uid="lnk26" id="link_local_fs_z_metadata_cache_fs"><path d="M102.91,219.57 C128.09,256.36 176.1904,326.6192 201.4204,363.4692" fill="none" id="local_fs_z-to-metadata_cache_fs" style="stroke:#000000;stroke-width:1;"/><polygon fill="#000000" points="204.81,368.42,203.0261,358.7341,201.9853,364.2943,196.425,363.2536,204.81,368.42" style="stroke:#000000;stroke-width:1;"/><text fill="#000000" font-family="Verdana" font-size="13" lengthAdjust="spacing" textLength="29.7832" x="163.39" y="302.3969">uses</text></g><!--link local_fs_d to metadata_cache_fs--><g class="link" data-entity-1="local_fs_d" data-entity-2="metadata_cache_fs" data-source-line="67" data-uid="lnk27" id="link_local_fs_d_metadata_cache_fs"><path d="M613.09,215.53 C544.84,239.83 418.24,286.83 314.39,336.33 C294.24,345.93 277.6648,355.0104 260.0648,365.2604" fill="none" id="local_fs_d-to-metadata_cache_fs" style="stroke:#000000;stroke-width:1;"/><polygon fill="#000000" points="254.88,368.28,264.6703,367.2072,259.2007,365.7637,260.6442,360.2941,254.88,368.28" style="stroke:#000000;stroke-width:1;"/><text fill="#000000" font-family="Verdana" font-size="13" lengthAdjust="spacing" textLength="29.7832" x="419.39" y="302.3969">uses</text></g><!--link metadata_cache_fs to block_cache_fs--><g class="link" data-entity-1="metadata_cache_fs" data-entity-2="block_cache_fs" data-source-line="68" data-uid="lnk28" id="link_metadata_cache_fs_block_cache_fs"><path d="M245.15,413.12 C282.26,443.93 345.7442,496.6467 382.9042,527.5067" fill="none" id="metadata_cache_fs-to-block_cache_fs" style="stroke:#000000;stroke-width:1;"/><polygon fill="#000000" points="387.52,531.34,383.1518,522.5129,383.6735,528.1456,378.0407,528.6673,387.52,531.34" style="stroke:#000000;stroke-width:1;"/><text fill="#000000" font-family="Verdana" font-size="13" lengthAdjust="spacing" textLength="29.7832" x="341.39" y="488.1869">uses</text></g><!--link local_fs_d to block_cache_fs--><g class="link" data-entity-1="local_fs_d" data-entity-2="block_cache_fs" data-source-line="69" data-uid="lnk29" id="link_local_fs_d_block_cache_fs"><path d="M663.55,219.56 C664.94,265.43 662.23,375.37 610.39,445.12 C591.21,470.94 520.3943,505.7539 468.5743,529.0039" fill="none" id="local_fs_d-to-block_cache_fs" style="stroke:#000000;stroke-width:1;"/><polygon fill="#000000" points="463.1,531.46,472.9488,531.4253,467.6619,529.4132,469.674,524.1263,463.1,531.46" style="stroke:#000000;stroke-width:1;"/><text fill="#000000" font-family="Verdana" font-size="13" lengthAdjust="spacing" textLength="29.7832" x="655.39" y="395.2969">uses</text></g><!--link local_fs_d to union_fs--><g class="link" data-entity-1="local_fs_d" data-entity-2="union_fs" data-source-line="70" data-uid="lnk30" id="link_local_fs_d_union_fs"><path d="M672.49,219.67 C700.58,282.35 772.41,469.04 691.39,585.52 C638.34,661.8 528.9796,683.4564 464.7896,689.9464" fill="none" id="local_fs_d-to-union_fs" style="stroke:#000000;stroke-width:1;"/><polygon fill="#000000" points="458.82,690.55,468.1767,693.6244,463.7946,690.047,467.372,685.665,458.82,690.55" style="stroke:#000000;stroke-width:1;"/><text fill="#000000" font-family="Verdana" font-size="13" lengthAdjust="spacing" textLength="29.7832" x="728.39" y="488.1869">uses</text></g><!--link local_fs_z to union_fs--><g class="link" data-entity-1="local_fs_z" data-entity-2="union_fs" data-source-line="71" data-uid="lnk31" id="link_local_fs_z_union_fs"><path d="M87.15,219.77 C85.46,264.21 86.15,368.69 123.39,445.12 C177,555.17 298.9984,632.7246 365.6884,668.9746" fill="none" id="local_fs_z-to-union_fs" style="stroke:#000000;stroke-width:1;"/><polygon fill="#000000" points="370.96,671.84,364.9629,664.0275,366.567,669.4522,361.1424,671.0563,370.96,671.84" style="stroke:#000000;stroke-width:1;"/><text fill="#000000" font-family="Verdana" font-size="13" lengthAdjust="spacing" textLength="29.7832" x="151.39" y="488.1869">uses</text></g><!--link metadata_cache_fs to union_fs--><g class="link" data-entity-1="metadata_cache_fs" data-entity-2="union_fs" data-source-line="72" data-uid="lnk32" id="link_metadata_cache_fs_union_fs"><path d="M225.1,412.93 C235.79,450.17 261.33,528.74 300.39,585.52 C324.05,619.91 355.4575,648.1484 380.4575,668.1784" fill="none" id="metadata_cache_fs-to-union_fs" style="stroke:#000000;stroke-width:1;"/><polygon fill="#000000" points="385.14,671.93,380.6174,663.181,381.2379,668.8037,375.6152,669.4243,385.14,671.93" style="stroke:#000000;stroke-width:1;"/><text fill="#000000" font-family="Verdana" font-size="13" lengthAdjust="spacing" textLength="29.7832" x="301.39" y="558.3869">uses</text></g><!--link block_cache_fs to union_fs--><g class="link" data-entity-1="block_cache_fs" data-entity-2="union_fs" data-source-line="73" data-uid="lnk33" id="link_block_cache_fs_union_fs"><path d="M413.39,576.15 C413.39,602.23 413.39,640.11 413.39,666.1" fill="none" id="block_cache_fs-to-union_fs" style="stroke:#000000;stroke-width:1;"/><polygon fill="#000000" points="413.39,672.1,417.39,663.1,413.39,667.1,409.39,663.1,413.39,672.1" style="stroke:#000000;stroke-width:1;"/><text fill="#000000" font-family="Verdana" font-size="13" lengthAdjust="spacing" textLength="29.7832" x="414.39" y="628.5869">uses</text></g><!--link union_fs to http_server--><g class="link" data-entity-1="union_fs" data-entity-2="http_server" data-source-line="74" data-uid="lnk34" id="link_union_fs_http_server"><path d="M392.42,716.47 C368.89,740.31 335.1557,774.5006 311.6057,798.3506" fill="none" id="union_fs-to-http_server" style="stroke:#000000;stroke-width:1;"/><polygon fill="#000000" points="307.39,802.62,316.5598,799.0264,310.9031,799.0622,310.8673,793.4054,307.39,802.62" style="stroke:#000000;stroke-width:1;"/><text fill="#000000" font-family="Verdana" font-size="13" lengthAdjust="spacing" textLength="29.7832" x="351.39" y="768.9869">uses</text></g><!--SRC=[fLHTQzim57tthxXz6WIQ9fbVveT14hUbiBPZBGnMYb7jQrl4beoiZDLF-otxQVibbPGlAPPBIzzyxpdIFUT8yac6EMK8ozlhxxStvpVtINmrl_mnlmvEP8arGbCHoeAWNL7M445gU2BfgX1ypR8bhxY0doMLQE4fhnlEaCd54V4RBKgvgDP-CXSPYWqn9c8rnBlWJDxH3c4wyy5tyhb2MDVLB0ZsJNYeU4gg96-Jx1582uSoO5mYIDu0p-qsm6Xq_zpWQ1GPmyYoiO4LSdfgu2LdEIqKGLN___vJj1PZAYA8exD0yK5lxLVHkIewluhkGof-3QceKPACI9Aa92rH3J9YUbr7Kn_rINDPmngve0LbYysgo3MiSREy3sSsR3oUzIPgl2P_bhgS5nZ1B9nCoYqm7e-1g4YcK7E1_dIUrBYL6utRSd8vWdoXM9Gt9-AB-tt1k5FDnT0T_N8Y2ATVmi-JSE9FOCqePpllky9nlM_w_1fmsAdwLzHj10_XvklHhw6KiabQ5BzH61bMxIYn-xQONAZVX5QZ2QyzbcsKUqS7DPyWnaQLo5AARN2uf6gph_qJ0hL9Q_EortbzGDFT-pImvvj8EqSzkFF2VZd7hAF9Fig-rg1rF5ly1G00]--></g></svg>