<svg xmlns="http://www.w3.org/2000/svg" xmlns:xlink="http://www.w3.org/1999/xlink" contentStyleType="text/css" data-diagram-type="DESCRIPTION" height="928px" preserveAspectRatio="none" style="width:843px;height:928px;background:#FFFFFF;" version="1.1" viewBox="0 0 843 928" width="843px" zoomAndPan="magnify"><defs/><g><!--entity local_fs_d--><g class="entity" data-entity="local_fs_d" data-source-line="10" data-uid="ent0002" id="entity_local_fs_d"><rect fill="#ADD8E6" height="43.9688" rx="2.5" ry="2.5" style="stroke:#00008B;stroke-width:1;" width="98.0547" x="667.56" y="220.77"/><rect fill="#ADD8E6" height="10" style="stroke:#00008B;stroke-width:1;" width="15" x="745.6147" y="225.77"/><rect fill="#ADD8E6" height="2" style="stroke:#00008B;stroke-width:1;" width="4" x="743.6147" y="227.77"/><rect fill="#ADD8E6" height="2" style="stroke:#00008B;stroke-width:1;" width="4" x="743.6147" y="231.77"/><text fill="#000000" font-family="Verdana" font-size="12" lengthAdjust="spacing" textLength="58.0547" x="682.56" y="251.9087">local_fs_d</text></g><g class="entity" data-entity="GMN3" data-source-line="12" data-uid="ent0004" id="entity_GMN3"><path d="M639.19,33.69 L639.19,97.0884 A0,0 0 0 0 639.19,97.0884 L712.58,97.0884 L716.58,220.49 L720.58,97.0884 L793.9732,97.0884 A0,0 0 0 0 793.9732,97.0884 L793.9732,43.69 L783.9732,33.69 L639.19,33.69 A0,0 0 0 0 639.19,33.69" fill="#FFFFFF" style="stroke:#000000;stroke-width:1;"/><path d="M783.9732,33.69 L783.9732,43.69 L793.9732,43.69 L783.9732,33.69" fill="#FFFFFF" style="stroke:#000000;stroke-width:1;"/><text fill="#000000" font-family="Verdana" font-size="13" font-weight="bold" lengthAdjust="spacing" textLength="35.4644" x="645.19" y="50.7569">Type</text><text fill="#000000" font-family="Verdana" font-size="13" lengthAdjust="spacing" textLength="98.3188" x="680.6544" y="50.7569">: backend.local</text><line style="stroke:#000000;stroke-width:1;" x1="640.19" x2="792.9732" y1="53.8228" y2="53.8228"/><text fill="#000000" font-family="Verdana" font-size="13" font-weight="bold" lengthAdjust="spacing" textLength="47.144" x="645.19" y="69.8897">Config</text><text fill="#000000" font-family="Verdana" font-size="13" lengthAdjust="spacing" textLength="4.3799" x="692.334" y="69.8897">:</text><text fill="#000000" font-family="Verdana" font-size="13" lengthAdjust="spacing" textLength="89.0386" x="645.19" y="85.0225">&#8226; baseDir: D:/</text></g><!--entity webdav_fs--><g class="entity" data-entity="webdav_fs" data-source-line="18" data-uid="ent0006" id="entity_webdav_fs"><rect fill="#ADD8E6" height="43.9688" rx="2.5" ry="2.5" style="stroke:#00008B;stroke-width:1;" width="103.3633" x="90.9" y="220.77"/><rect fill="#ADD8E6" height="10" style="stroke:#00008B;stroke-width:1;" width="15" x="174.2633" y="225.77"/><rect fill="#ADD8E6" height="2" style="stroke:#00008B;stroke-width:1;" width="4" x="172.2633" y="227.77"/><rect fill="#ADD8E6" height="2" style="stroke:#00008B;stroke-width:1;" width="4" x="172.2633" y="231.77"/><text fill="#000000" font-family="Verdana" font-size="12" lengthAdjust="spacing" textLength="63.3633" x="105.9" y="251.9087">webdav_fs</text></g><g class="entity" data-entity="GMN7" data-source-line="20" data-uid="ent0008" id="entity_GMN7"><path d="M11,11 L11,119.7969 A0,0 0 0 0 11,119.7969 L138.58,119.7969 L142.58,220.47 L146.58,119.7969 L274.1694,119.7969 A0,0 0 0 0 274.1694,119.7969 L274.1694,21 L264.1694,11 L11,11 A0,0 0 0 0 11,11" fill="#FFFFFF" style="stroke:#000000;stroke-width:1;"/><path d="M264.1694,11 L264.1694,21 L274.1694,21 L264.1694,11" fill="#FFFFFF" style="stroke:#000000;stroke-width:1;"/><text fill="#000000" font-family="Verdana" font-size="13" font-weight="bold" lengthAdjust="spacing" textLength="35.4644" x="17" y="28.0669">Type</text><text fill="#000000" font-family="Verdana" font-size="13" lengthAdjust="spacing" textLength="118.8218" x="52.4644" y="28.0669">: backend.webdav</text><line style="stroke:#000000;stroke-width:1;" x1="12" x2="273.1694" y1="31.1328" y2="31.1328"/><text fill="#000000" font-family="Verdana" font-size="13" font-weight="bold" lengthAdjust="spacing" textLength="47.144" x="17" y="47.1997">Config</text><text fill="#000000" font-family="Verdana" font-size="13" lengthAdjust="spacing" textLength="4.3799" x="64.144" y="47.1997">:</text><text fill="#000000" font-family="Verdana" font-size="13" lengthAdjust="spacing" textLength="242.1694" x="17" y="62.3325">&#8226; baseUrl: http://192.168.242.2:8093</text><text fill="#000000" font-family="Verdana" font-size="13" lengthAdjust="spacing" textLength="126.2676" x="17" y="77.4653">&#8226; username: admin</text><text fill="#000000" font-family="Verdana" font-size="13" lengthAdjust="spacing" textLength="107.2246" x="17" y="92.5981">&#8226; password: test</text><text fill="#000000" font-family="Verdana" font-size="13" lengthAdjust="spacing" textLength="156.0952" x="17" y="107.731">&#8226; httpOptions: {3 keys}</text></g><!--entity metadata_cache_fs--><g class="entity" data-entity="metadata_cache_fs" data-source-line="29" data-uid="ent0010" id="entity_metadata_cache_fs"><rect fill="#ADD8E6" height="43.9688" rx="2.5" ry="2.5" style="stroke:#00008B;stroke-width:1;" width="156.1738" x="195.5" y="429.27"/><rect fill="#ADD8E6" height="10" style="stroke:#00008B;stroke-width:1;" width="15" x="331.6738" y="434.27"/><rect fill="#ADD8E6" height="2" style="stroke:#00008B;stroke-width:1;" width="4" x="329.6738" y="436.27"/><rect fill="#ADD8E6" height="2" style="stroke:#00008B;stroke-width:1;" width="4" x="329.6738" y="440.27"/><text fill="#000000" font-family="Verdana" font-size="12" lengthAdjust="spacing" textLength="116.1738" x="210.5" y="460.4087">metadata_cache_fs</text></g><g class="entity" data-entity="GMN11" data-source-line="31" data-uid="ent0012" id="entity_GMN11"><path d="M229.34,180.79 L229.34,304.7197 A0,0 0 0 0 229.34,304.7197 L320.18,304.7197 L281.04,428.86 L328.18,304.7197 L461.8376,304.7197 A0,0 0 0 0 461.8376,304.7197 L461.8376,190.79 L451.8376,180.79 L229.34,180.79 A0,0 0 0 0 229.34,180.79" fill="#FFFFFF" style="stroke:#000000;stroke-width:1;"/><path d="M451.8376,180.79 L451.8376,190.79 L461.8376,190.79 L451.8376,180.79" fill="#FFFFFF" style="stroke:#000000;stroke-width:1;"/><text fill="#000000" font-family="Verdana" font-size="13" font-weight="bold" lengthAdjust="spacing" textLength="35.4644" x="235.34" y="197.8569">Type</text><text fill="#000000" font-family="Verdana" font-size="13" lengthAdjust="spacing" textLength="176.0332" x="270.8044" y="197.8569">: backend.metadata_cache</text><line style="stroke:#000000;stroke-width:1;" x1="230.34" x2="460.8376" y1="200.9228" y2="200.9228"/><text fill="#000000" font-family="Verdana" font-size="13" font-weight="bold" lengthAdjust="spacing" textLength="47.144" x="235.34" y="216.9897">Config</text><text fill="#000000" font-family="Verdana" font-size="13" lengthAdjust="spacing" textLength="4.3799" x="282.484" y="216.9897">:</text><text fill="#000000" font-family="Verdana" font-size="13" lengthAdjust="spacing" textLength="182.019" x="235.34" y="232.1225">&#8226; originBackend: webdav_fs</text><text fill="#000000" font-family="Verdana" font-size="13" lengthAdjust="spacing" textLength="177.7534" x="235.34" y="247.2553">&#8226; cacheBackend: local_fs_d</text><text fill="#000000" font-family="Verdana" font-size="13" lengthAdjust="spacing" textLength="190.1631" x="235.34" y="262.3881">&#8226; cacheDir: /metadata_cache</text><text fill="#000000" font-family="Verdana" font-size="13" lengthAdjust="spacing" textLength="155.5303" x="235.34" y="277.521">&#8226; maxCacheAge: 2400h</text><text fill="#000000" font-family="Verdana" font-size="13" lengthAdjust="spacing" textLength="211.123" x="235.34" y="292.6538">&#8226; largeDirectoryThreshold: 1000</text></g><!--entity block_cache_fs--><g class="entity" data-entity="block_cache_fs" data-source-line="41" data-uid="ent0014" id="entity_block_cache_fs"><rect fill="#ADD8E6" height="43.9688" rx="2.5" ry="2.5" style="stroke:#00008B;stroke-width:1;" width="129.8535" x="402.66" y="607.5"/><rect fill="#ADD8E6" height="10" style="stroke:#00008B;stroke-width:1;" width="15" x="512.5135" y="612.5"/><rect fill="#ADD8E6" height="2" style="stroke:#00008B;stroke-width:1;" width="4" x="510.5135" y="614.5"/><rect fill="#ADD8E6" height="2" style="stroke:#00008B;stroke-width:1;" width="4" x="510.5135" y="618.5"/><text fill="#000000" font-family="Verdana" font-size="12" lengthAdjust="spacing" textLength="89.8535" x="417.66" y="638.6387">block_cache_fs</text></g><g class="entity" data-entity="GMN15" data-source-line="43" data-uid="ent0016" id="entity_GMN15"><path d="M386.47,381.72 L386.47,520.7825 L646.7005,520.7825 L646.7005,391.72 L636.7005,381.72 L386.47,381.72" fill="#FFFFFF" style="stroke:#000000;stroke-width:1;"/><path d="M636.7005,381.72 L636.7005,391.72 L646.7005,391.72 L636.7005,381.72" fill="#FFFFFF" style="stroke:#000000;stroke-width:1;"/><text fill="#000000" font-family="Verdana" font-size="13" font-weight="bold" lengthAdjust="spacing" textLength="35.4644" x="392.47" y="398.7869">Type</text><text fill="#000000" font-family="Verdana" font-size="13" lengthAdjust="spacing" textLength="147.5195" x="427.9344" y="398.7869">: backend.block_cache</text><line style="stroke:#000000;stroke-width:1;" x1="387.47" x2="645.7005" y1="401.8528" y2="401.8528"/><text fill="#000000" font-family="Verdana" font-size="13" font-weight="bold" lengthAdjust="spacing" textLength="47.144" x="392.47" y="417.9197">Config</text><text fill="#000000" font-family="Verdana" font-size="13" lengthAdjust="spacing" textLength="4.3799" x="439.614" y="417.9197">:</text><text fill="#000000" font-family="Verdana" font-size="13" lengthAdjust="spacing" textLength="239.2305" x="392.47" y="433.0525">&#8226; originBackend: metadata_cache_fs</text><text fill="#000000" font-family="Verdana" font-size="13" lengthAdjust="spacing" textLength="177.7534" x="392.47" y="448.1853">&#8226; cacheBackend: local_fs_d</text><text fill="#000000" font-family="Verdana" font-size="13" lengthAdjust="spacing" textLength="161.6494" x="392.47" y="463.3181">&#8226; cacheDir: /block_cache</text><text fill="#000000" font-family="Verdana" font-size="13" lengthAdjust="spacing" textLength="139.3882" x="392.47" y="478.451">&#8226; blockSize: 4194304</text><text fill="#000000" font-family="Verdana" font-size="13" lengthAdjust="spacing" textLength="141.4258" x="392.47" y="493.5838">&#8226; readAheadBlocks: 2</text><text fill="#000000" font-family="Verdana" font-size="13" lengthAdjust="spacing" textLength="103.2827" x="392.47" y="508.7166">&#8226; ... and 1 more</text></g><!--entity union_fs--><g class="entity" data-entity="union_fs" data-source-line="54" data-uid="ent0018" id="entity_union_fs"><rect fill="#ADD8E6" height="43.9688" rx="2.5" ry="2.5" style="stroke:#00008B;stroke-width:1;" width="89.9688" x="422.6" y="747.9"/><rect fill="#ADD8E6" height="10" style="stroke:#00008B;stroke-width:1;" width="15" x="492.5688" y="752.9"/><rect fill="#ADD8E6" height="2" style="stroke:#00008B;stroke-width:1;" width="4" x="490.5688" y="754.9"/><rect fill="#ADD8E6" height="2" style="stroke:#00008B;stroke-width:1;" width="4" x="490.5688" y="758.9"/><text fill="#000000" font-family="Verdana" font-size="12" lengthAdjust="spacing" textLength="49.9688" x="437.6" y="779.0387">union_fs</text></g><g class="entity" data-entity="GMN19" data-source-line="56" data-uid="ent0020" id="entity_GMN19"><path d="M567.2,597.78 L567.2,661.1784 A0,0 0 0 0 567.2,661.1784 L603.19,661.1784 L495.27,747.6 L611.19,661.1784 L727.9754,661.1784 A0,0 0 0 0 727.9754,661.1784 L727.9754,607.78 L717.9754,597.78 L567.2,597.78 A0,0 0 0 0 567.2,597.78" fill="#FFFFFF" style="stroke:#000000;stroke-width:1;"/><path d="M717.9754,597.78 L717.9754,607.78 L727.9754,607.78 L717.9754,597.78" fill="#FFFFFF" style="stroke:#000000;stroke-width:1;"/><text fill="#000000" font-family="Verdana" font-size="13" font-weight="bold" lengthAdjust="spacing" textLength="35.4644" x="573.2" y="614.8469">Type</text><text fill="#000000" font-family="Verdana" font-size="13" lengthAdjust="spacing" textLength="104.311" x="608.6644" y="614.8469">: backend.union</text><line style="stroke:#000000;stroke-width:1;" x1="568.2" x2="726.9754" y1="617.9128" y2="617.9128"/><text fill="#000000" font-family="Verdana" font-size="13" font-weight="bold" lengthAdjust="spacing" textLength="47.144" x="573.2" y="633.9797">Config</text><text fill="#000000" font-family="Verdana" font-size="13" lengthAdjust="spacing" textLength="4.3799" x="620.344" y="633.9797">:</text><text fill="#000000" font-family="Verdana" font-size="13" lengthAdjust="spacing" textLength="115.1465" x="573.2" y="649.1125">&#8226; items: [4 items]</text></g><!--entity http_server--><g class="entity" data-entity="http_server" data-source-line="62" data-uid="ent0022" id="entity_http_server"><rect fill="#ADD8E6" height="43.9688" rx="2.5" ry="2.5" style="stroke:#00008B;stroke-width:1;" width="108.6191" x="286.28" y="878.58"/><rect fill="#ADD8E6" height="10" style="stroke:#00008B;stroke-width:1;" width="15" x="374.8991" y="883.58"/><rect fill="#ADD8E6" height="2" style="stroke:#00008B;stroke-width:1;" width="4" x="372.8991" y="885.58"/><rect fill="#ADD8E6" height="2" style="stroke:#00008B;stroke-width:1;" width="4" x="372.8991" y="889.58"/><text fill="#000000" font-family="Verdana" font-size="12" lengthAdjust="spacing" textLength="68.6191" x="301.28" y="909.7187">http_server</text></g><g class="entity" data-entity="GMN23" data-source-line="64" data-uid="ent0024" id="entity_GMN23"><path d="M235.84,738.18 L235.84,801.5784 A0,0 0 0 0 235.84,801.5784 L314.6,801.5784 L335.81,878.36 L322.6,801.5784 L387.3351,801.5784 A0,0 0 0 0 387.3351,801.5784 L387.3351,748.18 L377.3351,738.18 L235.84,738.18 A0,0 0 0 0 235.84,738.18" fill="#FFFFFF" style="stroke:#000000;stroke-width:1;"/><path d="M377.3351,738.18 L377.3351,748.18 L387.3351,748.18 L377.3351,738.18" fill="#FFFFFF" style="stroke:#000000;stroke-width:1;"/><text fill="#000000" font-family="Verdana" font-size="13" font-weight="bold" lengthAdjust="spacing" textLength="35.4644" x="241.84" y="755.2469">Type</text><text fill="#000000" font-family="Verdana" font-size="13" lengthAdjust="spacing" textLength="95.0308" x="277.3044" y="755.2469">: frontend.http</text><line style="stroke:#000000;stroke-width:1;" x1="236.84" x2="386.3351" y1="758.3128" y2="758.3128"/><text fill="#000000" font-family="Verdana" font-size="13" font-weight="bold" lengthAdjust="spacing" textLength="47.144" x="241.84" y="774.3797">Config</text><text fill="#000000" font-family="Verdana" font-size="13" lengthAdjust="spacing" textLength="4.3799" x="288.984" y="774.3797">:</text><text fill="#000000" font-family="Verdana" font-size="13" lengthAdjust="spacing" textLength="129.8286" x="241.84" y="789.5125">&#8226; backend: union_fs</text></g><!--link GMN15 to block_cache_fs--><g class="link" data-entity-1="GMN15" data-entity-2="block_cache_fs" data-source-line="43" data-uid="lnk17" id="link_GMN15_block_cache_fs"><path d="M500.15,521.2 C496.24,536.59 491.93,552.79 487.58,567.78 C483.75,581 478.94,595.65 475,607.25" fill="none" id="GMN15-block_cache_fs" style="stroke:#000000;stroke-width:1;stroke-dasharray:7,7;"/></g><!--link webdav_fs to metadata_cache_fs--><g class="link" data-entity-1="webdav_fs" data-entity-2="metadata_cache_fs" data-source-line="71" data-uid="lnk26" id="link_webdav_fs_metadata_cache_fs"><path d="M156.11,265.08 C181.28,304.75 231.8064,384.3932 256.9164,423.9832" fill="none" id="webdav_fs-to-metadata_cache_fs" style="stroke:#000000;stroke-width:1;"/><polygon fill="#000000" points="260.13,429.05,258.6874,419.3074,257.452,424.8277,251.9317,423.5922,260.13,429.05" style="stroke:#000000;stroke-width:1;"/><text fill="#000000" font-family="Verdana" font-size="13" lengthAdjust="spacing" textLength="29.7832" x="209.58" y="347.7869">uses</text></g><!--link local_fs_d to metadata_cache_fs--><g class="link" data-entity-1="local_fs_d" data-entity-2="metadata_cache_fs" data-source-line="72" data-uid="lnk27" id="link_local_fs_d_metadata_cache_fs"><path d="M667.32,258.99 C598.29,281.28 469.9,326.22 368.58,381.72 C343.79,395.3 322.633,410.6268 304.153,425.1868" fill="none" id="local_fs_d-to-metadata_cache_fs" style="stroke:#000000;stroke-width:1;"/><polygon fill="#000000" points="299.44,428.9,308.9849,426.4721,303.3675,425.8056,304.0339,420.1882,299.44,428.9" style="stroke:#000000;stroke-width:1;"/><text fill="#000000" font-family="Verdana" font-size="13" lengthAdjust="spacing" textLength="29.7832" x="462.58" y="347.7869">uses</text></g><!--link metadata_cache_fs to block_cache_fs--><g class="link" data-entity-1="metadata_cache_fs" data-entity-2="block_cache_fs" data-source-line="73" data-uid="lnk28" id="link_metadata_cache_fs_block_cache_fs"><path d="M296.99,473.51 C334.27,507.38 402.3189,569.1956 439.6589,603.1156" fill="none" id="metadata_cache_fs-to-block_cache_fs" style="stroke:#000000;stroke-width:1;"/><polygon fill="#000000" points="444.1,607.15,440.1279,598.1377,440.399,603.788,434.7487,604.0592,444.1,607.15" style="stroke:#000000;stroke-width:1;"/><text fill="#000000" font-family="Verdana" font-size="13" lengthAdjust="spacing" textLength="29.7832" x="400.58" y="563.8469">uses</text></g><!--link local_fs_d to block_cache_fs--><g class="link" data-entity-1="local_fs_d" data-entity-2="block_cache_fs" data-source-line="74" data-uid="lnk29" id="link_local_fs_d_block_cache_fs"><path d="M718.4,265.23 C721.47,315.18 722.52,440.99 664.58,520.78 C645.69,546.81 574.7886,581.5736 522.8786,604.7536" fill="none" id="local_fs_d-to-block_cache_fs" style="stroke:#000000;stroke-width:1;"/><polygon fill="#000000" points="517.4,607.2,527.2488,607.1828,521.9655,605.1613,523.9869,599.878,517.4,607.2" style="stroke:#000000;stroke-width:1;"/><text fill="#000000" font-family="Verdana" font-size="13" lengthAdjust="spacing" textLength="29.7832" x="715.58" y="455.8169">uses</text></g><!--link local_fs_d to union_fs--><g class="link" data-entity-1="local_fs_d" data-entity-2="union_fs" data-source-line="75" data-uid="lnk30" id="link_local_fs_d_union_fs"><path d="M726.68,265.01 C756.47,331.14 836.41,536.36 745.58,661.18 C691,736.2 582.5251,758.3241 518.8051,765.2241" fill="none" id="local_fs_d-to-union_fs" style="stroke:#000000;stroke-width:1;"/><polygon fill="#000000" points="512.84,765.87,522.2183,768.8778,517.8109,765.3317,521.3571,760.9243,512.84,765.87" style="stroke:#000000;stroke-width:1;"/><text fill="#000000" font-family="Verdana" font-size="13" lengthAdjust="spacing" textLength="29.7832" x="786.58" y="563.8469">uses</text></g><!--link metadata_cache_fs to union_fs--><g class="link" data-entity-1="metadata_cache_fs" data-entity-2="union_fs" data-source-line="76" data-uid="lnk31" id="link_metadata_cache_fs_union_fs"><path d="M278.53,473.57 C288.38,513.07 313.16,599.26 354.58,661.18 C377.79,695.87 409.2675,724.0735 434.4175,744.0035" fill="none" id="metadata_cache_fs-to-union_fs" style="stroke:#000000;stroke-width:1;"/><polygon fill="#000000" points="439.12,747.73,434.5506,739.0053,435.2013,744.6246,429.5819,745.2753,439.12,747.73" style="stroke:#000000;stroke-width:1;"/><text fill="#000000" font-family="Verdana" font-size="13" lengthAdjust="spacing" textLength="29.7832" x="355.58" y="634.0469">uses</text></g><!--link block_cache_fs to union_fs--><g class="link" data-entity-1="block_cache_fs" data-entity-2="union_fs" data-source-line="77" data-uid="lnk32" id="link_block_cache_fs_union_fs"><path d="M467.58,651.81 C467.58,677.89 467.58,715.77 467.58,741.76" fill="none" id="block_cache_fs-to-union_fs" style="stroke:#000000;stroke-width:1;"/><polygon fill="#000000" points="467.58,747.76,471.58,738.76,467.58,742.76,463.58,738.76,467.58,747.76" style="stroke:#000000;stroke-width:1;"/><text fill="#000000" font-family="Verdana" font-size="13" lengthAdjust="spacing" textLength="29.7832" x="468.58" y="704.2469">uses</text></g><!--link webdav_fs to union_fs--><g class="link" data-entity-1="webdav_fs" data-entity-2="union_fs" data-source-line="78" data-uid="lnk33" id="link_webdav_fs_union_fs"><path d="M140.85,265.18 C137.86,313.46 135.62,433.38 177.58,520.78 C230.49,630.99 352.4921,708.3563 419.4621,744.5663" fill="none" id="webdav_fs-to-union_fs" style="stroke:#000000;stroke-width:1;"/><polygon fill="#000000" points="424.74,747.42,418.7256,739.6208,420.3417,745.0419,414.9207,746.658,424.74,747.42" style="stroke:#000000;stroke-width:1;"/><text fill="#000000" font-family="Verdana" font-size="13" lengthAdjust="spacing" textLength="29.7832" x="204.58" y="563.8469">uses</text></g><!--link union_fs to http_server--><g class="link" data-entity-1="union_fs" data-entity-2="http_server" data-source-line="79" data-uid="lnk34" id="link_union_fs_http_server"><path d="M446.61,792.13 C423.08,815.97 389.3448,850.1597 365.8048,874.0097" fill="none" id="union_fs-to-http_server" style="stroke:#000000;stroke-width:1;"/><polygon fill="#000000" points="361.59,878.28,370.7591,874.6844,365.1023,874.7214,365.0653,869.0647,361.59,878.28" style="stroke:#000000;stroke-width:1;"/><text fill="#000000" font-family="Verdana" font-size="13" lengthAdjust="spacing" textLength="29.7832" x="405.58" y="844.6469">uses</text></g><!--SRC=[bLJRYjim47ttLym-5GBhs8uf6pqKScbBeRiftPG-B4jGx8bjOaj6KdQRBeL-Ip-jNrB9SHmhSSBs9MJc7CsSEIFvAiPLnX0cizilixltT_F5zDFeuzVHhNEbKYmGofncp77aEcCb5RI09OtMYU0R5azupWLyJpE5BJpYHSaPCZK-8dxEabIDyqqtcOiOnOuufM9zZlU1CtMV_KJmWoxuNcrpX4sH1uxJ9E4Xvn7D5okvY1-1IZY43kCAGV4I-AgT1kZrvjiIUprI3OmiTYjO8zVN5JpXR9Kbcg2Zlx__Q9h4QIO8J4dVqNmmfIqLpxYCwPDkK8be8al38TibOOTUrl1Dv0HIfKhIx_l3mFNVthX16BW1kV66WvguaIWOBP00ZGkztrssf58-wqKGK2XLdJIbPgNAE9C4NWQmngtyrJrWWOh6LD55HACKzuEUPAs1Jz6kmMtMUGEuo9ACZNUdYEMcWQlJ3Mhjku6h7VPF6Xgye3yc9XmbshWWzBoq1d8g4dCG8yN5TfuAb2dFTGlVyxnkhvQw-zesoavPBXr1NHQrAA_sfyly__F9xbhTGPCnJvH0w0_3WHVMW40QZrBzCpOCVPc26d1T5wZso8U22-osQyFq1TmRjGyiYvfabpaLUDuM_GKhjA27SFVliLk3UGaB_N2UK5GoMh6bf9rlYra9_V4oQWpXqYEkVMycEgXv0rCiTOWiob0wpVtMjTwTRXE8UUZIEIpmCkyKC7Jxxfsf-IhIVg3B_OvPHwMxABOFnsWJ6x2rd1h_1m00]--></g></svg>